<svg width="300" height="48" viewBox="0 0 300 48" fill="none" xmlns="http://www.w3.org/2000/svg">
<g clip-path="url(#clip0_369_20180)">
<path d="M65.2834 1.55795H91.5883L65.2834 18.0603V1.55795ZM32.6198 36.3239H65.2834V46.967H27.3166V18.0688L1.01172 1.55795H32.6198V36.3154V36.3239ZM134.25 16.35H142.492V30.4477H150.202V0H142.492V10.3468H134.25V2.20991H109.702V24.5461H134.25V16.35ZM126.709 18.1365H117.243V8.61951H126.709V18.1365ZM139.697 33.2334L151.9 42.1154L147.677 48L135.475 39.118C134.537 38.4152 133.71 37.704 133.009 37.0012C132.308 37.704 131.481 38.4152 130.543 39.118L118.341 48L114.118 42.1154L126.321 33.2334C128.846 31.4129 129.082 30.5832 129.082 29.5841V27.6282H136.885V29.5841C136.885 30.5832 137.181 31.4045 139.706 33.2334H139.697ZM175.831 20.8037L185.864 34.876L180.104 39.0333L170.072 24.961C169.844 24.6731 169.667 24.3853 169.498 24.1482C169.329 24.3768 169.152 24.6647 168.924 24.961L158.892 39.0333L153.132 34.876L163.165 20.8037C165.411 17.6285 165.757 16.4685 165.757 14.0977V2.20991H173.247V14.0977C173.247 16.4685 173.594 17.62 175.84 20.8037H175.831ZM195.507 18.0688H202.508V24.6139H195.507V48.0085H187.797V0H195.507V18.0688ZM257.752 31.8532H292.046V48H284.336V38.229H257.752V31.8448V31.8532ZM299.046 12.1249V18.67H292.046V29.9143H284.336V0H292.046V12.1249H299.046ZM279.092 16.5447C279.066 14.284 278.509 12.218 277.521 10.4484H281.127V4.06421H270.065V0H262.456V4.06421H251.394V10.4484H254.898C253.952 12.2096 253.429 14.2671 253.429 16.5447C253.505 23.674 258.884 28.8813 266.231 28.8813C273.578 28.8813 279.083 23.8095 279.092 16.5447ZM260.539 16.5447C260.539 12.8531 262.785 10.4653 266.256 10.4484C269.727 10.4653 271.973 12.8615 271.973 16.5447C271.973 20.2364 269.727 22.6241 266.256 22.641C262.785 22.6241 260.539 20.2279 260.539 16.5447ZM213.097 31.8532H225.925V38.2374H205.556V3.39531H224.878V9.7795H213.097V31.8532ZM239.377 0H246.589V48H239.377V24.0974H235.856V45.9425H228.804V0.592697H235.856V17.5608H239.377V0Z" fill="#FF6000"/>
</g>
<defs>
<clipPath id="clip0_369_20180">
<rect width="300" height="48" fill="white"/>
</clipPath>
</defs>
</svg>
