<svg width="300" height="36" viewBox="0 0 300 36" fill="none" xmlns="http://www.w3.org/2000/svg">
<g clip-path="url(#clip0_369_20192)">
<path d="M24.7663 27.2429H49.4776V35.2316H20.7542V13.5516L0.853516 1.16846H24.7663V27.2365V27.2429ZM49.4776 13.5516L69.3783 1.16846H49.4776V13.5452V13.5516ZM101.654 12.2625H107.889V22.8358H113.722V0H107.889V7.7601H101.654V1.65744H83.0819V18.4096H101.654V12.2625ZM95.9487 13.6024H88.787V6.46463H95.9487V13.6024ZM103.641 22.188V20.7211H97.7375V22.188C97.7375 22.9374 97.5586 23.5534 95.6484 24.925L86.4168 31.5865L89.6111 36L98.8428 29.3385C99.5519 28.8114 100.172 28.278 100.708 27.7509C101.239 28.278 101.865 28.8114 102.574 29.3385L111.805 36L115 31.5865L105.768 24.925C103.858 23.5597 103.634 22.9374 103.634 22.188H103.641ZM131.15 10.5733V1.65744H125.483V10.5733C125.483 12.3514 125.222 13.215 123.522 15.6028L115.932 26.157L120.289 29.275L127.879 18.7208C128.052 18.5049 128.186 18.2889 128.314 18.1111C128.441 18.2826 128.576 18.4985 128.748 18.7208L136.338 29.275L140.695 26.157L133.105 15.6028C131.406 13.2214 131.144 12.3514 131.144 10.5733H131.15ZM147.997 0H142.164V36H147.997V18.454H153.293V13.5452H147.997V0ZM256.975 7.96966H254.228V0.400071H248.81V20.6259H254.228V12.8721H256.975V21.0132H262.514V0H256.975V7.96966ZM236.097 36H262.514V22.5754H236.097V36ZM241.808 27.0397H256.719V31.5421H241.808V27.0397ZM245.392 13.2976C246.446 11.0432 246.721 8.54119 246.721 8.54119C246.83 7.7093 246.9 5.49938 246.9 4.74369V1.0351H231.618V5.91215H241.719C241.7 6.61704 241.604 7.94426 241.47 8.6809H231.618V13.3103H239.278C237.138 15.5901 233.899 16.5426 231.037 17.2221L232.295 22.2706C238.946 20.7084 243.316 17.8381 245.392 13.3039V13.2976ZM273.617 17.9333H269.241V22.5754H295.709V17.9333H291.295V6.62339H295.754V1.9432H269.203V6.62339H273.617V17.9333ZM279.45 6.62339H285.513V17.9333H279.45V6.62339ZM265.35 27.0397V31.8723H299.606V27.0397H265.35ZM225.191 17.9333H206.006V14.5867H225.191V10.0716H206.006V6.62974H225.191V1.9432H200.135V22.5754H225.191V17.9333ZM195.535 31.8723H229.791V27.0397H195.535V31.8723ZM160.538 25.5601H174.548V36H180.535V25.5601H194.545V20.7275H160.538V25.5601ZM189.721 1.0351H184.016V5.02946H171.118V1.0351H165.368V17.6222H189.721V1.0351ZM184.016 12.9801H171.118V9.58899H184.016V12.9801Z" fill="#FF6000"/>
</g>
<defs>
<clipPath id="clip0_369_20192">
<rect width="300" height="36" fill="white"/>
</clipPath>
</defs>
</svg>
