<svg width="176" height="19" viewBox="0 0 176 19" fill="none" xmlns="http://www.w3.org/2000/svg">
<g clip-path="url(#clip0_1008_6314)">
<path d="M12.9874 14.3782H25.9463V18.5945H10.8834V7.15223L0.447266 0.616687H12.9874V14.3748V14.3782ZM25.9463 0.616687H36.3825L25.9463 7.14888V0.616687ZM71.6209 10.6881C67.6977 10.6881 64.9538 12.3974 64.9471 14.8441C64.9538 17.2907 67.6977 19 71.6209 19C75.5441 19 78.288 17.2907 78.2947 14.8441C78.288 12.3974 75.5441 10.6881 71.6209 10.6881ZM71.6209 16.7075C69.8519 16.7075 67.959 16.2283 67.949 14.8843C67.959 13.537 69.8519 13.0577 71.6209 13.0577C73.3898 13.0577 75.2827 13.537 75.2928 14.8809C75.2827 16.2283 73.3898 16.7075 71.6209 16.7075ZM75.9762 0H78.8374V10.6881H75.9762V6.59922H74.7668V9.71953H71.9693V0.211148H74.7668V4.22297H75.9762V0ZM66.3207 7.36003L63.617 10.0647L61.6068 8.0538L64.6456 5.01394C65.2185 4.3939 65.2084 3.94814 65.2084 3.40519H62.1228V0.874757H71.1954V3.40183H68.1098C68.1098 3.94479 68.0997 4.39055 68.6726 5.01058L71.7113 8.05045L69.7012 10.0614L66.9975 7.35668C66.8802 7.23937 66.7495 7.0785 66.6591 6.96454C66.5686 7.08185 66.438 7.23937 66.3207 7.35668V7.36003ZM53.3082 6.47186H56.5781V12.0522H59.6369V0H56.5781V4.09561H53.3082V0.874757H43.5689V9.71618H53.3082V6.47186ZM50.3164 7.17904H46.5607V3.41189H50.3164V7.17904ZM55.4691 13.1549L60.3103 16.6707L58.6351 19L53.794 15.4842C53.4221 15.206 53.0938 14.9245 52.8157 14.6463C52.5376 14.9245 52.2093 15.206 51.8374 15.4842L46.9962 19L45.3211 16.6707L50.1623 13.1549C51.164 12.4343 51.2578 12.1058 51.2578 11.7104V10.9361H54.3535V11.7104C54.3535 12.1058 54.4707 12.4309 55.4725 13.1549H55.4691ZM115.912 7.15223H118.689V9.74299H115.912V19.0034H112.853V0H115.912V7.15223ZM169.212 10.487H158.873V4.31011H165.362V3.02311H158.873V0.496031H168.451V6.57911H161.962V7.95996H169.212V10.487ZM152.946 0H156.005V19H152.946V9.31734H149.653V6.72658H152.946V0ZM175.235 0V11.0467H172.173V6.1233H169.275V3.53255H172.173V0H175.235ZM147.237 8.23479L151.217 13.8051L148.932 15.4507L144.952 9.8804C144.862 9.76645 144.791 9.6525 144.724 9.55865C144.657 9.64915 144.587 9.7631 144.496 9.8804L140.516 15.4507L138.231 13.8051L142.212 8.23479C143.103 6.97795 143.24 6.51879 143.24 5.58035V5.00388H139.267V2.4768H143.227V0H146.222V2.4768H150.182V5.00388H146.208V5.58035C146.208 6.51879 146.346 6.9746 147.237 8.23479ZM86.6302 0.616687C83.0889 0.630094 81.1391 3.62639 81.1391 8.23479C81.1391 12.8432 83.0889 15.8395 86.6302 15.8529C90.1714 15.8395 92.1213 12.8432 92.1213 8.23479C92.1213 3.62639 90.1714 0.630094 86.6302 0.616687ZM86.6302 13.3962C84.6535 13.3794 84.2414 10.3764 84.2414 8.23479C84.2414 6.09314 84.6569 3.09014 86.6302 3.07338C88.6068 3.09014 89.0189 6.09314 89.0189 8.23479C89.0189 10.3764 88.6035 13.3794 86.6302 13.3962ZM161.382 19H175.235V11.9148H161.382V19ZM164.377 14.2709H172.197V16.6472H164.377V14.2709ZM138.385 9.74299H135.628V19.0034H132.569V0H135.628V7.15223H138.385V9.74299ZM108.106 8.23479L112.086 13.8051L109.801 15.4507L105.821 9.8804C105.73 9.76645 105.66 9.6525 105.593 9.55865C105.526 9.64915 105.455 9.7631 105.365 9.8804L101.385 15.4507L99.1 13.8051L103.08 8.23479C103.971 6.97795 104.109 6.51879 104.109 5.58035V0.874757H107.08V5.58035C107.08 6.51879 107.218 6.9746 108.109 8.23479H108.106ZM94.2822 0H97.3411V19H94.2822V0ZM127.745 8.23479L131.725 13.8051L129.44 15.4507L125.46 9.8804C125.37 9.76645 125.299 9.6525 125.232 9.55865C125.165 9.64915 125.095 9.7631 125.004 9.8804L121.024 15.4507L118.739 13.8051L122.72 8.23479C123.611 6.97795 123.748 6.51879 123.748 5.58035V3.74034H119.909V1.21327H130.559V3.74034H126.72V5.58035C126.72 6.51879 126.857 6.9746 127.748 8.23479H127.745Z" fill="#262626"/>
</g>
<defs>
<clipPath id="clip0_1008_6314">
<rect width="176" height="19" fill="white"/>
</clipPath>
</defs>
</svg>
