<svg width="293" height="282" viewBox="0 0 293 282" fill="none" xmlns="http://www.w3.org/2000/svg">
<rect width="293" height="282" rx="16" fill="white"/>
<mask id="path-2-inside-1_16353_17688" fill="white">
<path d="M26.5 132C26.5 116.241 29.6039 100.637 35.6345 86.078C41.665 71.5189 50.5042 58.2902 61.6472 47.1472C72.7902 36.0041 86.0189 27.165 100.578 21.1345C115.137 15.1039 130.741 12 146.5 12C162.259 12 177.863 15.1039 192.422 21.1345C206.981 27.165 220.21 36.0042 231.353 47.1472C242.496 58.2902 251.335 71.5189 257.366 86.078C263.396 100.637 266.5 116.241 266.5 132L170.5 132C170.5 128.848 169.879 125.727 168.673 122.816C167.467 119.904 165.699 117.258 163.471 115.029C161.242 112.801 158.596 111.033 155.684 109.827C152.773 108.621 149.652 108 146.5 108C143.348 108 140.227 108.621 137.316 109.827C134.404 111.033 131.758 112.801 129.529 115.029C127.301 117.258 125.533 119.904 124.327 122.816C123.121 125.727 122.5 128.848 122.5 132L26.5 132Z"/>
</mask>
<path d="M26.5 132C26.5 116.241 29.6039 100.637 35.6345 86.078C41.665 71.5189 50.5042 58.2902 61.6472 47.1472C72.7902 36.0041 86.0189 27.165 100.578 21.1345C115.137 15.1039 130.741 12 146.5 12C162.259 12 177.863 15.1039 192.422 21.1345C206.981 27.165 220.21 36.0042 231.353 47.1472C242.496 58.2902 251.335 71.5189 257.366 86.078C263.396 100.637 266.5 116.241 266.5 132L170.5 132C170.5 128.848 169.879 125.727 168.673 122.816C167.467 119.904 165.699 117.258 163.471 115.029C161.242 112.801 158.596 111.033 155.684 109.827C152.773 108.621 149.652 108 146.5 108C143.348 108 140.227 108.621 137.316 109.827C134.404 111.033 131.758 112.801 129.529 115.029C127.301 117.258 125.533 119.904 124.327 122.816C123.121 125.727 122.5 128.848 122.5 132L26.5 132Z" stroke="#737373" stroke-width="0.347826" mask="url(#path-2-inside-1_16353_17688)"/>
<mask id="path-3-inside-2_16353_17688" fill="white">
<path d="M26.5 132C26.5 106.658 34.5226 81.9675 49.418 61.4658C64.3133 40.964 85.3168 25.7042 109.418 17.8732C133.519 10.0423 159.481 10.0423 183.582 17.8732C207.683 25.7042 228.687 40.9641 243.582 61.4658L165.916 117.893C162.937 113.793 158.737 110.741 153.916 109.175C149.096 107.608 143.904 107.608 139.084 109.175C134.263 110.741 130.063 113.793 127.084 117.893C124.105 121.993 122.5 126.932 122.5 132L26.5 132Z"/>
</mask>
<path d="M26.5 132C26.5 106.658 34.5226 81.9675 49.418 61.4658C64.3133 40.964 85.3168 25.7042 109.418 17.8732C133.519 10.0423 159.481 10.0423 183.582 17.8732C207.683 25.7042 228.687 40.9641 243.582 61.4658L165.916 117.893C162.937 113.793 158.737 110.741 153.916 109.175C149.096 107.608 143.904 107.608 139.084 109.175C134.263 110.741 130.063 113.793 127.084 117.893C124.105 121.993 122.5 126.932 122.5 132L26.5 132Z" stroke="#737373" stroke-width="0.347826" mask="url(#path-3-inside-2_16353_17688)"/>
<mask id="path-4-inside-3_16353_17688" fill="white">
<path d="M26.5 132C26.5 113.063 30.9819 94.3943 39.5792 77.5211C48.1766 60.6479 60.6452 46.049 75.9658 34.918C91.2863 23.7869 109.024 16.4398 127.728 13.4774C146.432 10.515 165.572 12.0213 183.582 17.8732L153.916 109.175C150.314 108.004 146.486 107.703 142.746 108.295C139.005 108.888 135.457 110.357 132.393 112.584C129.329 114.81 126.835 117.73 125.116 121.104C123.396 124.479 122.5 128.213 122.5 132L26.5 132Z"/>
</mask>
<path d="M26.5 132C26.5 113.063 30.9819 94.3943 39.5792 77.5211C48.1766 60.6479 60.6452 46.049 75.9658 34.918C91.2863 23.7869 109.024 16.4398 127.728 13.4774C146.432 10.515 165.572 12.0213 183.582 17.8732L153.916 109.175C150.314 108.004 146.486 107.703 142.746 108.295C139.005 108.888 135.457 110.357 132.393 112.584C129.329 114.81 126.835 117.73 125.116 121.104C123.396 124.479 122.5 128.213 122.5 132L26.5 132Z" stroke="#737373" stroke-width="0.347826" mask="url(#path-4-inside-3_16353_17688)"/>
<mask id="path-5-inside-4_16353_17688" fill="white">
<path d="M26.5 132C26.5 106.658 34.5226 81.9675 49.418 61.4658C64.3133 40.9641 85.3167 25.7042 109.418 17.8732L139.084 109.175C134.263 110.741 130.063 113.793 127.084 117.893C124.105 121.993 122.5 126.932 122.5 132L26.5 132Z"/>
</mask>
<path d="M26.5 132C26.5 106.658 34.5226 81.9675 49.418 61.4658C64.3133 40.9641 85.3167 25.7042 109.418 17.8732L139.084 109.175C134.263 110.741 130.063 113.793 127.084 117.893C124.105 121.993 122.5 126.932 122.5 132L26.5 132Z" stroke="#737373" stroke-width="0.347826" mask="url(#path-5-inside-4_16353_17688)"/>
<mask id="path-6-inside-5_16353_17688" fill="white">
<path d="M26.5 132C26.5 106.658 34.5226 81.9675 49.418 61.4658L127.084 117.893C124.105 121.993 122.5 126.932 122.5 132L26.5 132Z"/>
</mask>
<path d="M26.5 132C26.5 106.658 34.5226 81.9675 49.418 61.4658L127.084 117.893C124.105 121.993 122.5 126.932 122.5 132L26.5 132Z" stroke="#737373" stroke-width="0.347826" mask="url(#path-6-inside-5_16353_17688)"/>
<mask id="path-7-inside-6_16353_17688" fill="white">
<path d="M26.5 132C26.5 116.241 29.6039 100.637 35.6345 86.078C41.665 71.5189 50.5042 58.2902 61.6472 47.1472C72.7902 36.0041 86.0189 27.165 100.578 21.1345C115.137 15.1039 130.741 12 146.5 12C162.259 12 177.863 15.1039 192.422 21.1345C206.981 27.165 220.21 36.0042 231.353 47.1472C242.496 58.2902 251.335 71.5189 257.366 86.078C263.396 100.637 266.5 116.241 266.5 132L240.1 132C240.1 119.708 237.679 107.537 232.975 96.1808C228.271 84.8248 221.377 74.5064 212.685 65.8148C203.994 57.1233 193.675 50.2287 182.319 45.5249C170.963 40.821 158.792 38.4 146.5 38.4C134.208 38.4 122.037 40.821 110.681 45.5249C99.3248 50.2287 89.0064 57.1232 80.3148 65.8148C71.6232 74.5064 64.7287 84.8247 60.0249 96.1808C55.321 107.537 52.9 119.708 52.9 132H26.5Z"/>
</mask>
<path d="M26.5 132C26.5 116.241 29.6039 100.637 35.6345 86.078C41.665 71.5189 50.5042 58.2902 61.6472 47.1472C72.7902 36.0041 86.0189 27.165 100.578 21.1345C115.137 15.1039 130.741 12 146.5 12C162.259 12 177.863 15.1039 192.422 21.1345C206.981 27.165 220.21 36.0042 231.353 47.1472C242.496 58.2902 251.335 71.5189 257.366 86.078C263.396 100.637 266.5 116.241 266.5 132L240.1 132C240.1 119.708 237.679 107.537 232.975 96.1808C228.271 84.8248 221.377 74.5064 212.685 65.8148C203.994 57.1233 193.675 50.2287 182.319 45.5249C170.963 40.821 158.792 38.4 146.5 38.4C134.208 38.4 122.037 40.821 110.681 45.5249C99.3248 50.2287 89.0064 57.1232 80.3148 65.8148C71.6232 74.5064 64.7287 84.8247 60.0249 96.1808C55.321 107.537 52.9 119.708 52.9 132H26.5Z" fill="#A23F00" stroke="white" stroke-width="1.6" mask="url(#path-7-inside-6_16353_17688)"/>
<mask id="path-8-inside-7_16353_17688" fill="white">
<path d="M26.5 132C26.5 106.658 34.5226 81.9675 49.418 61.4658C64.3133 40.964 85.3168 25.7042 109.418 17.8732C133.519 10.0423 159.481 10.0423 183.582 17.8732C207.683 25.7042 228.687 40.9641 243.582 61.4658L222.224 76.9833C210.606 60.992 194.223 49.0893 175.424 42.9811C156.625 36.873 136.375 36.873 117.576 42.9811C98.7771 49.0892 82.3944 60.992 70.776 76.9833C59.1576 92.9746 52.9 112.234 52.9 132H26.5Z"/>
</mask>
<path d="M26.5 132C26.5 106.658 34.5226 81.9675 49.418 61.4658C64.3133 40.964 85.3168 25.7042 109.418 17.8732C133.519 10.0423 159.481 10.0423 183.582 17.8732C207.683 25.7042 228.687 40.9641 243.582 61.4658L222.224 76.9833C210.606 60.992 194.223 49.0893 175.424 42.9811C156.625 36.873 136.375 36.873 117.576 42.9811C98.7771 49.0892 82.3944 60.992 70.776 76.9833C59.1576 92.9746 52.9 112.234 52.9 132H26.5Z" fill="#E05600" stroke="white" stroke-width="1.6" mask="url(#path-8-inside-7_16353_17688)"/>
<mask id="path-9-inside-8_16353_17688" fill="white">
<path d="M26.5 132C26.5 113.063 30.9819 94.3943 39.5792 77.5211C48.1766 60.6479 60.6452 46.049 75.9658 34.918C91.2863 23.7869 109.024 16.4398 127.728 13.4774C146.432 10.515 165.572 12.0213 183.582 17.8732L175.424 42.9811C161.376 38.4166 146.447 37.2417 131.858 39.5524C117.269 41.8631 103.433 47.5938 91.4833 56.276C79.5333 64.9582 69.8077 76.3454 63.1018 89.5065C56.3959 102.668 52.9 117.229 52.9 132H26.5Z"/>
</mask>
<path d="M26.5 132C26.5 113.063 30.9819 94.3943 39.5792 77.5211C48.1766 60.6479 60.6452 46.049 75.9658 34.918C91.2863 23.7869 109.024 16.4398 127.728 13.4774C146.432 10.515 165.572 12.0213 183.582 17.8732L175.424 42.9811C161.376 38.4166 146.447 37.2417 131.858 39.5524C117.269 41.8631 103.433 47.5938 91.4833 56.276C79.5333 64.9582 69.8077 76.3454 63.1018 89.5065C56.3959 102.668 52.9 117.229 52.9 132H26.5Z" fill="#FF6000" stroke="white" stroke-width="1.6" mask="url(#path-9-inside-8_16353_17688)"/>
<mask id="path-10-inside-9_16353_17688" fill="white">
<path d="M26.5 132C26.5 106.658 34.5226 81.9675 49.418 61.4658C64.3133 40.9641 85.3167 25.7042 109.418 17.8732L117.576 42.9811C98.7771 49.0893 82.3944 60.992 70.776 76.9833C59.1576 92.9746 52.9 112.234 52.9 132H26.5Z"/>
</mask>
<path d="M26.5 132C26.5 106.658 34.5226 81.9675 49.418 61.4658C64.3133 40.9641 85.3167 25.7042 109.418 17.8732L117.576 42.9811C98.7771 49.0893 82.3944 60.992 70.776 76.9833C59.1576 92.9746 52.9 112.234 52.9 132H26.5Z" fill="#FF8032" stroke="white" stroke-width="1.6" mask="url(#path-10-inside-9_16353_17688)"/>
<path d="M26.5 132C26.5 106.658 34.5226 81.9675 49.418 61.4658L70.776 76.9833C59.1576 92.9746 52.9 112.234 52.9 132H26.5Z" fill="#FEA770" stroke="white" stroke-width="0.8" stroke-linejoin="round"/>
<path d="M89.9766 131.998C89.9766 117.008 95.9315 102.631 106.531 92.0314C117.131 81.4315 131.508 75.4766 146.498 75.4766C161.489 75.4766 175.865 81.4315 186.465 92.0314C197.065 102.631 203.02 117.008 203.02 131.998L89.9766 131.998Z" fill="#E5E5E5"/>
<path d="M146.535 98.8008C149.352 98.8008 151.74 99.6005 153.435 101.018C155.136 102.441 156.105 104.463 156.105 106.824C156.105 109.94 154.542 112.46 149.31 117.202L146.181 120.246H156.457V125.605H137.251L137.246 125.11L137.211 121.278L137.209 121.056L137.373 120.905L146.506 112.51C148.928 110.195 150.008 108.932 150.008 107.176C150.008 106.188 149.634 105.413 149.026 104.88C148.413 104.341 147.526 104.02 146.465 104.02C145.376 104.02 144.527 104.362 143.952 104.934C143.377 105.505 143.027 106.353 143.027 107.457V107.957H137.004L137 107.461C136.981 104.833 137.948 102.651 139.655 101.133C141.356 99.6204 143.75 98.8008 146.535 98.8008Z" fill="#FF6000" stroke="white"/>
<path d="M169.683 87.1514L170.542 87.5479L170.643 87.5947L170.586 87.6895L166.794 94.0508L166.748 94.1289L166.666 94.0908L165.808 93.6943L165.706 93.6484L165.764 93.5527L169.555 87.1914L169.602 87.1143L169.683 87.1514ZM123.461 86.6738L127.015 93.1406L127.068 93.2383L126.967 93.2812L126.094 93.6523L126.01 93.6875L125.967 93.6084L122.412 87.1416L122.359 87.0449L122.461 87.002L123.334 86.6299L123.417 86.5947L123.461 86.6738ZM155.667 87.583C156.186 85.9397 157.65 85.0579 159.312 85.4639C159.948 85.6191 160.556 85.9521 160.927 86.5039C161.299 87.0592 161.42 87.8195 161.109 88.8027L161.001 89.1465L160.973 89.2363L160.882 89.2139L156.698 88.1914C156.583 88.6836 156.646 89.0938 156.844 89.4111C157.055 89.7495 157.428 89.9968 157.937 90.1211C158.617 90.2873 159.113 90.1317 159.404 89.8838L159.443 89.8506L159.492 89.8633L160.492 90.1074L160.639 90.1426L160.549 90.2637C159.988 91.02 158.903 91.3458 157.659 91.042C156.786 90.8286 156.153 90.3807 155.807 89.7705C155.46 89.1603 155.409 88.4017 155.667 87.583ZM133.881 85.1445C134.522 85.0076 135.234 85.0392 135.857 85.3594C136.484 85.6811 137.009 86.2884 137.283 87.2803L137.379 87.6279L137.407 87.7305L137.304 87.752L133.098 88.6504C133.271 89.1234 133.552 89.4548 133.903 89.6484C134.28 89.8563 134.746 89.9112 135.259 89.8018C135.945 89.655 136.287 89.3083 136.401 88.9746L136.42 88.9209L136.475 88.9092L137.483 88.6934L137.614 88.666L137.604 88.7998C137.532 89.7106 136.756 90.4627 135.503 90.7305C134.622 90.9187 133.825 90.7979 133.19 90.417C132.555 90.036 132.09 89.3996 131.862 88.5732C131.634 87.7471 131.714 86.9788 132.068 86.3701C132.423 85.761 133.046 85.3228 133.881 85.1445ZM143.653 83.9004L144.713 83.915L144.781 83.916L144.806 83.9805L146.338 88.126L148.024 84.0264L148.051 83.9629L148.118 83.9639L149.179 83.9795L149.329 83.9814L149.269 84.1201L146.902 89.4736L146.875 89.5342L146.81 89.5332L145.806 89.5186L145.739 89.5176L145.714 89.4561L143.559 84.0371L143.504 83.8975L143.653 83.9004ZM159.036 86.3848C158.111 86.1589 157.318 86.6195 156.994 87.3066L160.108 88.0674C160.206 87.6893 160.164 87.3367 159.999 87.0498C159.821 86.7403 159.497 86.4975 159.036 86.3848ZM136.006 87.0791C135.745 86.3176 135.011 85.884 134.125 86.0732C133.191 86.2727 132.761 87.0141 132.864 87.751L136.006 87.0791Z" fill="#FF6000" stroke="#FF6000" stroke-width="0.2"/>
<path d="M94.7367 62.2636C94.6688 61.6515 95.2889 61.1954 95.853 61.4426L117.11 70.7595C117.674 71.0068 117.759 71.7719 117.263 72.1367L98.5658 85.8877C98.0697 86.2525 97.3646 85.9435 97.2967 85.3314L94.7367 62.2636Z" fill="#FF6000"/>
<path d="M38.25 98.6133L50.542 101.907L50.9287 102.011L50.8252 102.397L50.1387 104.961L50.0352 105.348L49.6484 105.244L40.4385 102.775L41.2617 105.457L41.4736 106.147L40.7764 105.96L38.5176 105.355L38.3057 105.299L38.2402 105.089L37.1182 101.531L37.083 101.42L37.1133 101.308L37.7598 98.8965L37.8633 98.5098L38.25 98.6133Z" fill="white" stroke="#E05600" stroke-width="0.8"/>
<path d="M80.7266 39.6025C81.8793 39.6443 82.9235 40.1667 83.6748 41.1338C84.6746 42.4209 84.8166 43.958 84.2031 47.4434L83.9541 49.2246L87.5225 46.4531L87.8389 46.208L88.084 46.5234L89.4209 48.2451L89.667 48.5605L89.3506 48.8066L82.1602 54.3916L81.8467 54.6348L81.6006 54.3242L80.4111 52.8223L80.3008 52.6826L80.3311 52.5068L81.3613 46.3936L81.4434 45.8086C81.6071 44.5353 81.5702 43.8827 81.1387 43.3271C80.8608 42.9694 80.5144 42.8009 80.1562 42.7793C79.7911 42.7573 79.3771 42.887 78.9814 43.1943C78.577 43.5086 78.372 43.8707 78.3262 44.2266C78.2804 44.5819 78.3862 44.9851 78.7051 45.3955L78.9502 45.7109L78.6348 45.957L76.6494 47.499L76.3359 47.7422L76.0898 47.4307C75.2519 46.3674 74.9512 45.166 75.168 43.9971C75.3836 42.835 76.1022 41.7469 77.2246 40.875C78.3585 39.9942 79.5808 39.561 80.7266 39.6025Z" fill="white" stroke="#E05600" stroke-width="0.8"/>
<path d="M146.387 18.5996C149.184 18.5996 151.214 20.2728 151.199 22.5811L151.188 22.8857C151.103 23.9591 150.494 24.7947 149.606 25.2754C150.087 25.4655 150.499 25.7315 150.826 26.0732C151.395 26.6673 151.682 27.4504 151.674 28.3311L151.668 28.5625C151.545 30.9324 149.233 32.4785 146.352 32.4785C143.43 32.4785 141.161 30.8382 141.101 28.3262L141.091 27.916H144.55L144.571 28.2939C144.607 28.9371 145.242 29.498 146.369 29.498C147.507 29.498 148.143 28.8758 148.131 28.165V28.1514C148.137 27.7679 147.974 27.4427 147.653 27.2012C147.323 26.9527 146.809 26.7832 146.123 26.7832H144.545V24.0312H146.123C146.677 24.0312 147.115 23.8791 147.406 23.6494C147.69 23.425 147.85 23.117 147.85 22.7441C147.85 22.3688 147.71 22.071 147.476 21.8633C147.237 21.6521 146.871 21.5098 146.387 21.5098C145.373 21.5098 144.718 22.0622 144.694 22.7236L144.681 23.1094H141.357L141.363 22.7021C141.403 20.21 143.653 18.5996 146.387 18.5996Z" fill="white" stroke="#E05600" stroke-width="0.8"/>
<path d="M214.183 39.6738L216.892 41.5967L217.218 41.8281L216.986 42.1543L212.384 48.6367L213.377 49.3418L213.703 49.5732L213.471 49.8994L212.24 51.6338L212.009 51.96L211.683 51.7285L210.688 51.0234L209.619 52.5322L209.387 52.8584L209.061 52.627L207.012 51.1719L206.686 50.9404L206.917 50.6143L207.987 49.1045L203.269 45.7549L202.942 45.5234L203.174 45.1973L204.385 43.4922L204.452 43.3965L204.562 43.3525L213.801 39.6289L214.004 39.5469L214.183 39.6738ZM207.683 45.2988L209.711 46.7383L211.955 43.5771L207.683 45.2988Z" fill="white" stroke="#E05600" stroke-width="0.8"/>
<path d="M254.382 94.749L256.54 102.286L256.649 102.671L256.266 102.781L254.187 103.376L253.802 103.486L253.692 103.102L252.233 98.0049L250.319 98.333C250.836 98.7903 251.251 99.4587 251.476 100.244C252.181 102.711 250.856 105.079 248.301 105.811C246.965 106.193 245.655 106.016 244.57 105.357C243.488 104.7 242.657 103.58 242.239 102.12C241.469 99.4289 242.476 96.8706 244.844 96.1309L245.235 96.0088L245.348 96.4033L246.054 98.8701L246.158 99.2354L245.8 99.3584C245.115 99.594 244.753 100.394 245.02 101.324C245.174 101.865 245.49 102.251 245.881 102.468C246.272 102.685 246.767 102.749 247.308 102.594C247.865 102.434 248.258 102.111 248.479 101.712C248.701 101.313 248.766 100.81 248.617 100.258L248.522 99.9746C248.278 99.3566 247.883 99.0252 247.335 98.9062L247.102 98.8564L247.035 98.626L246.377 96.3271L246.257 95.9053L246.688 95.8242L253.924 94.4658L254.282 94.3994L254.382 94.749Z" fill="white" stroke="#E05600" stroke-width="0.8"/>
<mask id="path-21-outside-10_16353_17688" maskUnits="userSpaceOnUse" x="41.5" y="151" width="208" height="28" fill="black">
<rect fill="white" x="41.5" y="151" width="208" height="28"/>
<path d="M50.7675 177.631L43.5 153.374H49.2578L53.5411 170.327H53.7517L58.4212 153.374H63.3715L68.041 170.361H68.2516L72.5349 153.374H78.2927L71.0252 177.631H65.8642L61.0192 161.616H60.8086L55.9285 177.631H50.7675Z"/>
<path d="M87.3859 178C81.628 178 78.047 174.214 78.047 168.585C78.047 162.956 81.628 159.204 87.3859 159.204C93.1437 159.204 96.7599 162.956 96.7599 168.585C96.7599 174.214 93.1437 178 87.3859 178ZM87.421 174.147C90.0892 174.147 91.4585 171.768 91.4585 168.585C91.4585 165.369 90.0892 162.99 87.421 162.99C84.7176 162.99 83.3133 165.369 83.3133 168.585C83.3133 171.768 84.7176 174.147 87.421 174.147Z"/>
<path d="M100.025 177.631V159.438H105.046V162.588H105.256C105.958 160.343 107.714 159.17 109.855 159.17C110.382 159.17 111.049 159.237 111.506 159.338V163.76C111.014 163.626 110.031 163.492 109.294 163.492C106.941 163.492 105.221 165.067 105.221 167.278V177.631H100.025Z"/>
<path d="M114.033 177.631V153.374H119.229V166.407H119.51L125.689 159.438H131.658L124.566 167.312L132.044 177.631H125.935L120.704 170.227L119.229 171.802V177.631H114.033Z"/>
<path d="M151.424 177.631H142.471V153.374H151.529C159.183 153.374 163.853 157.93 163.853 165.469C163.853 173.075 159.183 177.631 151.424 177.631ZM147.738 173.309H151.213C156.058 173.309 158.586 170.897 158.586 165.469C158.586 160.075 156.058 157.696 151.249 157.696H147.738V173.309Z"/>
<path d="M167.574 177.631V159.438H172.595V162.588H172.805C173.507 160.343 175.263 159.17 177.405 159.17C177.931 159.17 178.598 159.237 179.055 159.338V163.76C178.563 163.626 177.58 163.492 176.843 163.492C174.491 163.492 172.77 165.067 172.77 167.278V177.631H167.574Z"/>
<path d="M181.582 177.631V159.438H186.779V177.631H181.582ZM184.181 157.059C182.601 157.059 181.337 155.92 181.337 154.546C181.337 153.139 182.601 152 184.181 152C185.725 152 186.989 153.139 186.989 154.546C186.989 155.92 185.725 157.059 184.181 157.059Z"/>
<path d="M208.511 159.438L201.805 177.631H195.977L189.306 159.438H194.783L198.786 172.505H198.996L202.999 159.438H208.511Z"/>
<path d="M219.043 178C213.215 178 209.634 174.381 209.634 168.619C209.634 162.99 213.251 159.204 218.833 159.204C223.853 159.204 227.786 162.219 227.786 168.418V169.825H214.76C214.76 172.572 216.481 174.281 219.149 174.281C220.904 174.281 222.168 173.544 222.695 172.438H227.645C226.908 175.789 223.748 178 219.043 178ZM214.76 166.709H222.87C222.87 164.497 221.255 162.923 218.938 162.923C216.551 162.923 214.848 164.615 214.76 166.709Z"/>
<path d="M236.247 167.111V177.631H231.051V159.438H236.001V162.621H236.212C237.089 160.51 239.126 159.204 241.934 159.204C245.902 159.204 248.535 161.784 248.5 166.039V177.631H243.339V166.91C243.339 164.665 242.04 163.325 239.898 163.325C237.721 163.325 236.247 164.698 236.247 167.111Z"/>
</mask>
<path d="M50.7675 177.631L43.5 153.374H49.2578L53.5411 170.327H53.7517L58.4212 153.374H63.3715L68.041 170.361H68.2516L72.5349 153.374H78.2927L71.0252 177.631H65.8642L61.0192 161.616H60.8086L55.9285 177.631H50.7675Z" fill="#291000"/>
<path d="M87.3859 178C81.628 178 78.047 174.214 78.047 168.585C78.047 162.956 81.628 159.204 87.3859 159.204C93.1437 159.204 96.7599 162.956 96.7599 168.585C96.7599 174.214 93.1437 178 87.3859 178ZM87.421 174.147C90.0892 174.147 91.4585 171.768 91.4585 168.585C91.4585 165.369 90.0892 162.99 87.421 162.99C84.7176 162.99 83.3133 165.369 83.3133 168.585C83.3133 171.768 84.7176 174.147 87.421 174.147Z" fill="#291000"/>
<path d="M100.025 177.631V159.438H105.046V162.588H105.256C105.958 160.343 107.714 159.17 109.855 159.17C110.382 159.17 111.049 159.237 111.506 159.338V163.76C111.014 163.626 110.031 163.492 109.294 163.492C106.941 163.492 105.221 165.067 105.221 167.278V177.631H100.025Z" fill="#291000"/>
<path d="M114.033 177.631V153.374H119.229V166.407H119.51L125.689 159.438H131.658L124.566 167.312L132.044 177.631H125.935L120.704 170.227L119.229 171.802V177.631H114.033Z" fill="#291000"/>
<path d="M151.424 177.631H142.471V153.374H151.529C159.183 153.374 163.853 157.93 163.853 165.469C163.853 173.075 159.183 177.631 151.424 177.631ZM147.738 173.309H151.213C156.058 173.309 158.586 170.897 158.586 165.469C158.586 160.075 156.058 157.696 151.249 157.696H147.738V173.309Z" fill="#291000"/>
<path d="M167.574 177.631V159.438H172.595V162.588H172.805C173.507 160.343 175.263 159.17 177.405 159.17C177.931 159.17 178.598 159.237 179.055 159.338V163.76C178.563 163.626 177.58 163.492 176.843 163.492C174.491 163.492 172.77 165.067 172.77 167.278V177.631H167.574Z" fill="#291000"/>
<path d="M181.582 177.631V159.438H186.779V177.631H181.582ZM184.181 157.059C182.601 157.059 181.337 155.92 181.337 154.546C181.337 153.139 182.601 152 184.181 152C185.725 152 186.989 153.139 186.989 154.546C186.989 155.92 185.725 157.059 184.181 157.059Z" fill="#291000"/>
<path d="M208.511 159.438L201.805 177.631H195.977L189.306 159.438H194.783L198.786 172.505H198.996L202.999 159.438H208.511Z" fill="#291000"/>
<path d="M219.043 178C213.215 178 209.634 174.381 209.634 168.619C209.634 162.99 213.251 159.204 218.833 159.204C223.853 159.204 227.786 162.219 227.786 168.418V169.825H214.76C214.76 172.572 216.481 174.281 219.149 174.281C220.904 174.281 222.168 173.544 222.695 172.438H227.645C226.908 175.789 223.748 178 219.043 178ZM214.76 166.709H222.87C222.87 164.497 221.255 162.923 218.938 162.923C216.551 162.923 214.848 164.615 214.76 166.709Z" fill="#291000"/>
<path d="M236.247 167.111V177.631H231.051V159.438H236.001V162.621H236.212C237.089 160.51 239.126 159.204 241.934 159.204C245.902 159.204 248.535 161.784 248.5 166.039V177.631H243.339V166.91C243.339 164.665 242.04 163.325 239.898 163.325C237.721 163.325 236.247 164.698 236.247 167.111Z" fill="#291000"/>
<path d="M50.7675 177.631L43.5 153.374H49.2578L53.5411 170.327H53.7517L58.4212 153.374H63.3715L68.041 170.361H68.2516L72.5349 153.374H78.2927L71.0252 177.631H65.8642L61.0192 161.616H60.8086L55.9285 177.631H50.7675Z" stroke="white" stroke-width="2" mask="url(#path-21-outside-10_16353_17688)"/>
<path d="M87.3859 178C81.628 178 78.047 174.214 78.047 168.585C78.047 162.956 81.628 159.204 87.3859 159.204C93.1437 159.204 96.7599 162.956 96.7599 168.585C96.7599 174.214 93.1437 178 87.3859 178ZM87.421 174.147C90.0892 174.147 91.4585 171.768 91.4585 168.585C91.4585 165.369 90.0892 162.99 87.421 162.99C84.7176 162.99 83.3133 165.369 83.3133 168.585C83.3133 171.768 84.7176 174.147 87.421 174.147Z" stroke="white" stroke-width="2" mask="url(#path-21-outside-10_16353_17688)"/>
<path d="M100.025 177.631V159.438H105.046V162.588H105.256C105.958 160.343 107.714 159.17 109.855 159.17C110.382 159.17 111.049 159.237 111.506 159.338V163.76C111.014 163.626 110.031 163.492 109.294 163.492C106.941 163.492 105.221 165.067 105.221 167.278V177.631H100.025Z" stroke="white" stroke-width="2" mask="url(#path-21-outside-10_16353_17688)"/>
<path d="M114.033 177.631V153.374H119.229V166.407H119.51L125.689 159.438H131.658L124.566 167.312L132.044 177.631H125.935L120.704 170.227L119.229 171.802V177.631H114.033Z" stroke="white" stroke-width="2" mask="url(#path-21-outside-10_16353_17688)"/>
<path d="M151.424 177.631H142.471V153.374H151.529C159.183 153.374 163.853 157.93 163.853 165.469C163.853 173.075 159.183 177.631 151.424 177.631ZM147.738 173.309H151.213C156.058 173.309 158.586 170.897 158.586 165.469C158.586 160.075 156.058 157.696 151.249 157.696H147.738V173.309Z" stroke="white" stroke-width="2" mask="url(#path-21-outside-10_16353_17688)"/>
<path d="M167.574 177.631V159.438H172.595V162.588H172.805C173.507 160.343 175.263 159.17 177.405 159.17C177.931 159.17 178.598 159.237 179.055 159.338V163.76C178.563 163.626 177.58 163.492 176.843 163.492C174.491 163.492 172.77 165.067 172.77 167.278V177.631H167.574Z" stroke="white" stroke-width="2" mask="url(#path-21-outside-10_16353_17688)"/>
<path d="M181.582 177.631V159.438H186.779V177.631H181.582ZM184.181 157.059C182.601 157.059 181.337 155.92 181.337 154.546C181.337 153.139 182.601 152 184.181 152C185.725 152 186.989 153.139 186.989 154.546C186.989 155.92 185.725 157.059 184.181 157.059Z" stroke="white" stroke-width="2" mask="url(#path-21-outside-10_16353_17688)"/>
<path d="M208.511 159.438L201.805 177.631H195.977L189.306 159.438H194.783L198.786 172.505H198.996L202.999 159.438H208.511Z" stroke="white" stroke-width="2" mask="url(#path-21-outside-10_16353_17688)"/>
<path d="M219.043 178C213.215 178 209.634 174.381 209.634 168.619C209.634 162.99 213.251 159.204 218.833 159.204C223.853 159.204 227.786 162.219 227.786 168.418V169.825H214.76C214.76 172.572 216.481 174.281 219.149 174.281C220.904 174.281 222.168 173.544 222.695 172.438H227.645C226.908 175.789 223.748 178 219.043 178ZM214.76 166.709H222.87C222.87 164.497 221.255 162.923 218.938 162.923C216.551 162.923 214.848 164.615 214.76 166.709Z" stroke="white" stroke-width="2" mask="url(#path-21-outside-10_16353_17688)"/>
<path d="M236.247 167.111V177.631H231.051V159.438H236.001V162.621H236.212C237.089 160.51 239.126 159.204 241.934 159.204C245.902 159.204 248.535 161.784 248.5 166.039V177.631H243.339V166.91C243.339 164.665 242.04 163.325 239.898 163.325C237.721 163.325 236.247 164.698 236.247 167.111Z" stroke="white" stroke-width="2" mask="url(#path-21-outside-10_16353_17688)"/>
<g filter="url(#filter0_dd_16353_17688)">
<rect x="33.5" y="201" width="226" height="70" rx="8" fill="white"/>
<path d="M56.0547 222L53.6641 213.516H55.3047L56.8398 219.762H56.9219L58.5508 213.516H60.0508L61.6914 219.773H61.7617L63.2969 213.516H64.9375L62.5469 222H61.0352L59.3359 216.035H59.2773L57.5664 222H56.0547ZM67.9609 222.129C66.1094 222.129 64.9141 220.816 64.9141 218.848C64.9141 216.867 66.1094 215.555 67.9609 215.555C69.8242 215.555 71.0078 216.867 71.0078 218.848C71.0078 220.816 69.8242 222.129 67.9609 222.129ZM67.9727 220.934C68.9922 220.934 69.4961 220.008 69.4961 218.836C69.4961 217.676 68.9922 216.738 67.9727 216.738C66.9297 216.738 66.4258 217.676 66.4258 218.836C66.4258 220.008 66.9297 220.934 67.9727 220.934ZM72.168 222V215.637H73.6211V216.691H73.6914C73.9141 215.965 74.5352 215.543 75.2617 215.543C75.4258 215.543 75.6602 215.555 75.8008 215.578V216.961C75.6719 216.914 75.3555 216.867 75.1094 216.867C74.2773 216.867 73.668 217.441 73.668 218.25V222H72.168ZM76.6914 222V213.516H78.1914V218.191H78.2969L80.582 215.637H82.3281L79.8672 218.379L82.4805 222H80.6992L78.7422 219.27L78.1914 219.855V222H76.6914ZM89.0195 222H86.1367V213.516H89.0664C91.5977 213.516 93.1328 215.109 93.1328 217.746C93.1328 220.395 91.5977 222 89.0195 222ZM87.6602 220.676H88.9375C90.707 220.676 91.6094 219.703 91.6094 217.746C91.6094 215.801 90.707 214.84 88.9844 214.84H87.6602V220.676ZM94.4102 222V215.637H95.8633V216.691H95.9336C96.1562 215.965 96.7773 215.543 97.5039 215.543C97.668 215.543 97.9023 215.555 98.043 215.578V216.961C97.9141 216.914 97.5977 216.867 97.3516 216.867C96.5195 216.867 95.9102 217.441 95.9102 218.25V222H94.4102ZM98.9336 222V215.637H100.434V222H98.9336ZM99.6953 214.734C99.2266 214.734 98.8281 214.371 98.8281 213.914C98.8281 213.469 99.2266 213.105 99.6953 213.105C100.176 213.105 100.562 213.469 100.562 213.914C100.562 214.371 100.176 214.734 99.6953 214.734ZM107.547 215.637L105.273 222H103.633L101.359 215.637H102.953L104.418 220.371H104.488L105.965 215.637H107.547ZM111.086 222.129C109.164 222.129 107.992 220.852 107.992 218.859C107.992 216.891 109.188 215.555 111.004 215.555C112.562 215.555 113.91 216.527 113.91 218.766V219.234H109.469C109.486 220.318 110.125 220.957 111.098 220.957C111.754 220.957 112.199 220.676 112.387 220.301H113.852C113.582 221.402 112.562 222.129 111.086 222.129ZM109.48 218.215H112.48C112.469 217.348 111.895 216.715 111.027 216.715C110.125 216.715 109.527 217.4 109.48 218.215ZM116.57 218.273V222H115.07V215.637H116.5V216.715H116.582C116.875 216 117.52 215.555 118.469 215.555C119.793 215.555 120.66 216.422 120.648 217.945V222H119.16V218.18C119.16 217.324 118.703 216.82 117.918 216.82C117.121 216.82 116.57 217.348 116.57 218.273ZM130.527 212.449V223.055H129.215V212.449H130.527ZM124.82 213.223C126.414 213.223 127.574 214.676 127.586 216.961C127.574 219.27 126.414 220.711 124.82 220.711C123.215 220.711 122.055 219.27 122.055 216.961C122.055 214.676 123.215 213.223 124.82 213.223ZM124.82 214.395C123.918 214.395 123.309 215.344 123.309 216.961C123.309 218.59 123.918 219.539 124.82 219.539C125.711 219.539 126.32 218.59 126.32 216.961C126.32 215.344 125.711 214.395 124.82 214.395ZM140.441 212.461V215.578H141.93V216.668H140.441V220.254H139.141V212.461H140.441ZM140.875 221.777V222.832H133.703V219.633H135.027V221.777H140.875ZM137.324 213.117V216.34H133.797V217.641C135.596 217.629 136.826 217.553 138.273 217.301L138.414 218.367C136.832 218.648 135.461 218.695 133.363 218.695H132.496V215.355H136.047V214.184H132.484V213.117H137.324ZM144.52 221.168L143.535 224.449H142.422L143.031 221.168H144.52ZM156.789 212.883V216.562H153.836V217.676H158.02V218.73H148.363V217.676H152.523V216.562H149.582V212.883H156.789ZM150.848 213.902V215.531H155.5V213.902H150.848ZM156.836 219.621V223.043H155.535V220.652H149.43V219.621H156.836ZM168.414 220.77V221.824H158.734V220.77H161.242V218.59H159.566V217.535H161.055V214.395H159.531V213.352H167.57V214.395H166.023V217.535H167.535V218.59H165.859V220.77H168.414ZM162.355 217.535H164.734V214.395H162.355V217.535ZM162.543 220.77H164.559V218.59H162.543V220.77ZM178.773 217.254V218.238H169.094V217.254H178.773ZM177.602 218.871V221.285H171.531V222.023H177.918V222.926H170.23V220.441H176.312V219.785H170.219V218.871H177.602ZM177.578 212.684V215.074H171.613V215.766H177.766V216.656H170.324V214.23H176.277V213.586H170.289V212.684H177.578ZM192.121 214.102V215.168H190.68V216.375H192.121V217.441H190.68V219.211H189.379V212.449H190.68V214.102H192.121ZM187.258 219.305C189.426 219.305 190.797 219.996 190.797 221.168C190.797 222.328 189.426 223.031 187.258 223.031C185.055 223.031 183.707 222.328 183.719 221.168C183.707 219.996 185.055 219.305 187.258 219.305ZM187.258 220.301C185.805 220.301 184.996 220.582 185.008 221.168C184.996 221.73 185.805 222.047 187.258 222.047C188.688 222.047 189.496 221.73 189.496 221.168C189.496 220.582 188.688 220.301 187.258 220.301ZM188.617 213.527V214.547H182.336V213.527H184.832V212.379H186.133V213.527H188.617ZM185.477 214.969C187.012 214.969 188.055 215.73 188.066 216.867C188.055 218.004 187.012 218.754 185.477 218.754C183.93 218.754 182.875 218.004 182.875 216.867C182.875 215.73 183.93 214.969 185.477 214.969ZM185.477 215.93C184.668 215.93 184.141 216.281 184.141 216.867C184.141 217.441 184.668 217.77 185.477 217.77C186.285 217.77 186.824 217.441 186.824 216.867C186.824 216.281 186.285 215.93 185.477 215.93ZM197.863 214.137V215.18H192.672V214.137H194.641V212.754H195.93V214.137H197.863ZM195.285 215.742C196.633 215.742 197.594 216.762 197.594 218.203C197.594 219.668 196.633 220.699 195.285 220.699C193.949 220.699 192.965 219.668 192.977 218.203C192.965 216.762 193.949 215.742 195.285 215.742ZM195.285 216.82C194.594 216.82 194.113 217.371 194.125 218.203C194.113 219.059 194.594 219.598 195.285 219.586C195.965 219.598 196.445 219.059 196.445 218.203C196.445 217.371 195.965 216.82 195.285 216.82ZM201.801 212.449V223.043H200.559V217.863H199.527V222.562H198.309V212.672H199.527V216.809H200.559V212.449H201.801ZM214.785 212.449V217.77H213.484V215.707H211.574C211.316 216.861 210.238 217.629 208.855 217.629C207.25 217.629 206.055 216.621 206.055 215.18C206.055 213.773 207.25 212.777 208.855 212.777C210.232 212.777 211.305 213.533 211.574 214.652H213.484V212.449H214.785ZM208.855 213.832C207.941 213.832 207.297 214.371 207.297 215.18C207.297 216.035 207.941 216.562 208.855 216.562C209.734 216.562 210.379 216.035 210.391 215.18C210.379 214.371 209.734 213.832 208.855 213.832ZM214.785 218.285V221.027H209.113V221.883H215.125V222.914H207.812V220.066H213.484V219.293H207.801V218.285H214.785ZM221.676 213.48V220.418H216.66V213.48H221.676ZM217.938 214.5V219.375H220.375V214.5H217.938ZM224.582 212.449V216.516H226.211V217.617H224.582V223.043H223.281V212.449H224.582ZM236.523 216.539V217.605H234.953V223.02H233.652V212.449H234.953V216.539H236.523ZM228.32 213.48V219.328C229.732 219.305 231.238 219.182 232.832 218.848L232.973 219.949C231.191 220.301 229.492 220.406 227.922 220.406H227.031V213.48H228.32ZM58.5098 230.449V233.027H59.9863V234.094H58.5098V236.66H57.209V230.449H58.5098ZM55.5801 231.176C55.5801 233.965 53.7637 235.934 50.6348 236.824L50.1191 235.77C52.5215 235.113 53.9453 233.818 54.1738 232.23H50.5996V231.176H55.5801ZM55.0879 236.789C57.2324 236.789 58.627 237.609 58.627 238.91C58.627 240.234 57.2324 241.031 55.0879 241.031C52.9551 241.031 51.5371 240.234 51.5488 238.91C51.5371 237.609 52.9551 236.789 55.0879 236.789ZM55.0879 237.809C53.6934 237.809 52.8262 238.207 52.8379 238.91C52.8262 239.602 53.6934 240.012 55.0879 240.012C56.4824 240.012 57.3496 239.602 57.3496 238.91C57.3496 238.207 56.4824 237.809 55.0879 237.809ZM68.8223 230.449V234.668H70.4512V235.746H68.8223V241.043H67.5332V230.449H68.8223ZM66.7129 232.078V233.121H60.4668V232.078H62.9746V230.602H64.2754V232.078H66.7129ZM63.6309 233.812C65.1543 233.812 66.291 234.844 66.291 236.309C66.291 237.773 65.1543 238.793 63.6309 238.793C62.084 238.793 60.9473 237.773 60.959 236.309C60.9473 234.844 62.084 233.812 63.6309 233.812ZM63.6309 234.879C62.7988 234.879 62.2012 235.441 62.2012 236.309C62.2012 237.176 62.7988 237.727 63.6309 237.715C64.4395 237.727 65.0371 237.176 65.0488 236.309C65.0371 235.441 64.4395 234.879 63.6309 234.879ZM79.5449 231.422V232.441C79.5332 233.754 79.5332 235.23 79.123 237.445L77.8105 237.305C78.2207 235.242 78.2207 233.736 78.2324 232.465H71.9043V231.422H79.5449ZM80.5527 238.605V239.672H70.8965V238.605H74.459V234.926H75.748V238.605H80.5527ZM92.7988 230.449V234.434H93.9824V235.535H92.7988V241.043H91.5098V230.449H92.7988ZM85.3223 231.422V233.965H86.2129V231.422H87.291V238.547H84.2441V231.422H85.3223ZM85.3223 237.48H86.2129V234.996H85.3223V237.48ZM88.8262 231.422V233.965H89.7168V231.422H90.7949V238.547H87.7715V231.422H88.8262ZM88.8262 237.48H89.7168V234.996H88.8262V237.48ZM104.166 238.723V239.789H94.4863V238.723H104.166ZM103.018 231.199V234.609H96.9355V235.992H103.264V237.023H95.6348V233.566H101.729V232.254H95.6113V231.199H103.018ZM113.998 230.449V241.043H112.756V230.449H113.998ZM111.748 230.707V240.539H110.518V235.664H108.631C108.01 236.883 107.014 237.938 105.514 238.805L104.775 237.879C106.973 236.584 107.975 234.926 108.174 232.793H105.314V231.738H109.463C109.463 232.764 109.34 233.725 109.053 234.621H110.518V230.707H111.748ZM121.076 230.789C122.682 230.789 123.877 231.785 123.889 233.18C123.877 234.586 122.682 235.57 121.076 235.57C119.459 235.57 118.264 234.586 118.264 233.18C118.264 231.785 119.459 230.789 121.076 230.789ZM121.076 231.867C120.186 231.867 119.529 232.371 119.529 233.18C119.529 234 120.186 234.516 121.076 234.516C121.967 234.516 122.623 234 122.623 233.18C122.623 232.371 121.967 231.867 121.076 231.867ZM126.9 230.449V235.805H125.588V230.449H126.9ZM126.9 236.262V239.027H121.17V239.883H127.217V240.914H119.893V238.066H125.6V237.281H119.869V236.262H126.9ZM133.264 230.613C135.678 230.613 137.072 231.258 137.084 232.43C137.072 233.613 135.678 234.246 133.264 234.258C130.85 234.246 129.443 233.613 129.443 232.43C129.443 231.258 130.85 230.613 133.264 230.613ZM133.264 231.574C131.646 231.574 130.803 231.879 130.814 232.43C130.803 233.016 131.646 233.285 133.264 233.285C134.904 233.285 135.736 233.016 135.736 232.43C135.736 231.879 134.904 231.574 133.264 231.574ZM138.104 234.82V235.863H128.447V234.82H138.104ZM136.896 236.578V239.168H130.873V239.953H137.189V240.949H129.596V238.242H135.619V237.539H129.584V236.578H136.896ZM147.314 231V235.418H142.205V231H147.314ZM143.494 232.043V234.398H146.025V232.043H143.494ZM150.467 230.449V235.84H149.178V230.449H150.467ZM150.467 236.32V239.062H144.76V239.918H150.783V240.949H143.471V238.125H149.201V237.34H143.459V236.32H150.467ZM154.932 231.223C156.367 231.223 157.428 232.418 157.615 234.352H159.631V230.449H160.92V241.055H159.631V235.406H157.627C157.486 237.451 156.408 238.711 154.932 238.711C153.338 238.711 152.213 237.27 152.213 234.961C152.213 232.676 153.338 231.223 154.932 231.223ZM154.932 232.395C154.053 232.395 153.455 233.344 153.467 234.961C153.455 236.59 154.053 237.539 154.932 237.539C155.811 237.539 156.396 236.59 156.408 234.961C156.396 233.344 155.811 232.395 154.932 232.395ZM170.939 236.824V237.75H164.881V238.418H170.729V239.309H164.881V239.988H171.104V240.949H163.592V236.824H166.568V235.945H162.408V234.914H172.064V235.945H167.869V236.824H170.939ZM164.951 230.637V231.48H169.521V230.637H170.811V234.234H163.662V230.637H164.951ZM164.951 233.238H169.521V232.453H164.951V233.238ZM175.779 230.789C177.385 230.789 178.58 231.785 178.592 233.18C178.58 234.586 177.385 235.57 175.779 235.57C174.162 235.57 172.967 234.586 172.967 233.18C172.967 231.785 174.162 230.789 175.779 230.789ZM175.779 231.867C174.889 231.867 174.232 232.371 174.232 233.18C174.232 234 174.889 234.516 175.779 234.516C176.67 234.516 177.326 234 177.326 233.18C177.326 232.371 176.67 231.867 175.779 231.867ZM181.604 230.449V235.805H180.291V230.449H181.604ZM181.604 236.262V239.027H175.873V239.883H181.92V240.914H174.596V238.066H180.303V237.281H174.572V236.262H181.604ZM191.518 231.328C191.518 232.664 193.006 234.012 195.268 234.305L194.752 235.359C192.953 235.09 191.523 234.205 190.838 233.004C190.141 234.205 188.717 235.09 186.936 235.359L186.42 234.305C188.658 234.012 190.146 232.664 190.146 231.328V230.789H191.518V231.328ZM195.654 236.273V237.352H191.447V241.043H190.158V237.352H185.998V236.273H195.654ZM202.979 237.34C202.979 238.219 203.383 239.145 204.291 239.719C205.211 239.104 205.639 238.143 205.65 237.34V236.906H206.928V237.34C206.916 238.453 207.572 239.484 208.967 239.93L208.334 240.879C207.303 240.533 206.617 239.859 206.248 239.016C205.908 239.848 205.281 240.592 204.326 240.973C203.318 240.609 202.686 239.895 202.357 239.051C201.977 239.865 201.303 240.527 200.318 240.879L199.674 239.93C201.045 239.449 201.701 238.371 201.713 237.34V236.906H202.979V237.34ZM208.041 230.461V236.461H206.729V230.461H208.041ZM202.264 231.023C203.893 231.023 205.111 232.055 205.111 233.543C205.111 235.02 203.893 236.051 202.264 236.051C200.623 236.051 199.404 235.02 199.404 233.543C199.404 232.055 200.623 231.023 202.264 231.023ZM202.264 232.125C201.338 232.125 200.67 232.676 200.682 233.543C200.67 234.41 201.338 234.973 202.264 234.973C203.178 234.973 203.834 234.41 203.834 233.543C203.834 232.676 203.178 232.125 202.264 232.125ZM218.166 233.449V234.48H210.83V230.836H212.119V233.449H218.166ZM219.256 235.711V236.742H209.576V235.711H219.256ZM218.236 239.742V240.797H210.736V237.68H212.037V239.742H218.236ZM223.955 233.461C223.955 235.195 224.975 237.023 226.686 237.738L225.971 238.77C224.717 238.23 223.803 237.117 223.322 235.77C222.83 237.223 221.904 238.441 220.662 239.027L219.912 238.008C221.588 237.234 222.631 235.266 222.631 233.461V232.57H220.299V231.492H226.275V232.57H223.955V233.461ZM228.771 230.449V241.043H227.459V230.449H228.771ZM239.998 235.254V236.238H230.318V235.254H239.998ZM238.826 236.871V239.285H232.756V240.023H239.143V240.926H231.455V238.441H237.537V237.785H231.443V236.871H238.826ZM238.803 230.684V233.074H232.838V233.766H238.99V234.656H231.549V232.23H237.502V231.586H231.514V230.684H238.803ZM75.2266 252.539V253.605H73.6562V259.02H72.3555V248.449H73.6562V252.539H75.2266ZM67.0234 249.48V255.328C68.4355 255.305 69.9414 255.182 71.5352 254.848L71.6758 255.949C69.8945 256.301 68.1953 256.406 66.625 256.406H65.7344V249.48H67.0234ZM81.168 249.363V250.43H77.4883V252.316H80.9805V253.348H77.4883V255.527C79.1172 255.516 80.3887 255.457 81.8711 255.211L81.9883 256.266C80.3594 256.523 78.9414 256.582 77.043 256.582H76.1641V249.363H81.168ZM84.0273 248.449V252.551H85.6562V253.641H84.0273V259.043H82.7266V248.449H84.0273ZM95.1953 248.449V259.043H93.9414V253.688H92.7695V258.504H91.5508V248.648H92.7695V252.621H93.9414V248.449H95.1953ZM87.8711 249.668V255.258C88.7852 255.24 89.7871 255.164 90.8945 254.941L91.0234 256.078C89.5938 256.336 88.3867 256.406 87.2617 256.406H86.5586V249.668H87.8711ZM105.051 251.449V252.48H97.7148V248.836H99.0039V251.449H105.051ZM106.141 253.711V254.742H96.4609V253.711H106.141ZM105.121 257.742V258.797H97.6211V255.68H98.9219V257.742H105.121ZM109.785 252.797L110.77 249.516H111.883L111.273 252.797H109.785ZM115.621 248.918C116.992 248.906 118.07 249.697 118.34 250.863H120.25V248.449H121.551V254.133H120.25V251.918H118.352C118.088 253.107 116.998 253.91 115.621 253.91C113.992 253.91 112.82 252.867 112.82 251.402C112.82 249.961 113.992 248.906 115.621 248.918ZM115.621 250.008C114.707 250.008 114.062 250.547 114.062 251.402C114.062 252.246 114.707 252.809 115.621 252.809C116.512 252.809 117.145 252.246 117.156 251.402C117.145 250.547 116.512 250.008 115.621 250.008ZM115.855 254.625V255.75H120.25V254.625H121.551V258.914H114.566V254.625H115.855ZM115.855 257.859H120.25V256.758H115.855V257.859ZM132.719 254.449V255.504H128.5V259.031H127.211V255.504H123.039V254.449H132.719ZM131.535 248.988V253.207H124.223V248.988H131.535ZM125.5 250.031V252.188H130.234V250.031H125.5ZM145.926 254.812V255.879H141.73V259.055H140.441V255.879H136.27V254.812H145.926ZM145.023 249.703V250.734H141.754C141.877 251.783 143.254 252.879 145.375 253.137L144.895 254.168C143.143 253.945 141.783 253.172 141.098 252.152C140.4 253.184 139.029 253.945 137.266 254.168L136.797 253.137C138.912 252.879 140.301 251.801 140.43 250.734H137.16V249.703H140.441V248.461H141.73V249.703H145.023ZM150.66 250.605C150.66 251.918 151.562 253.207 153.25 253.734L152.582 254.754C151.381 254.361 150.508 253.57 150.027 252.562C149.547 253.658 148.65 254.531 147.391 254.965L146.723 253.934C148.422 253.371 149.336 252 149.348 250.605V250.301H147.062V249.258H152.887V250.301H150.66V250.605ZM155.465 248.461V256.148H154.152V248.461H155.465ZM155.758 257.777V258.832H148.457V255.445H149.77V257.777H155.758ZM162.074 249.082V252.27H158.734V253.57C160.434 253.576 161.412 253.523 162.531 253.312L162.66 254.367C161.395 254.578 160.293 254.613 158.219 254.613H157.445V251.297H160.773V250.113H157.422V249.082H162.074ZM165.883 248.461V254.977H164.582V253.23H162.707V252.188H164.582V251.004H162.707V249.961H164.582V248.461H165.883ZM165.883 255.48V259.043H164.582V256.523H158.641V255.48H165.883ZM169.574 249.527L168.59 252.809H167.477L168.086 249.527H169.574ZM180.039 253.254V254.238H170.359V253.254H180.039ZM178.867 254.871V257.285H172.797V258.023H179.184V258.926H171.496V256.441H177.578V255.785H171.484V254.871H178.867ZM178.844 248.684V251.074H172.879V251.766H179.031V252.656H171.59V250.23H177.543V249.586H171.555V248.684H178.844ZM191.945 248.449V250.582H193.422V251.66H191.945V253.77H190.645V248.449H191.945ZM188.969 248.988V253.324H183.953V248.988H188.969ZM185.23 250.02V252.293H187.691V250.02H185.23ZM191.945 254.227V257.004H186.32V257.883H192.273V258.914H185.031V256.055H190.645V255.234H185.02V254.227H191.945ZM202.316 248.449V251.062H203.793V252.141H202.316V254.637H201.016V248.449H202.316ZM196.762 255.059V255.973H201.016V255.059H202.316V258.914H195.473V255.059H196.762ZM196.762 257.883H201.016V256.98H196.762V257.883ZM200.254 249.434V250.477H193.973V249.434H196.469V248.367H197.77V249.434H200.254ZM197.113 250.84C198.648 250.84 199.691 251.578 199.703 252.703C199.691 253.828 198.648 254.566 197.113 254.566C195.566 254.566 194.512 253.828 194.512 252.703C194.512 251.578 195.566 250.84 197.113 250.84ZM197.113 251.801C196.305 251.801 195.777 252.141 195.777 252.703C195.777 253.277 196.305 253.605 197.113 253.605C197.922 253.605 198.461 253.277 198.461 252.703C198.461 252.141 197.922 251.801 197.113 251.801ZM213.168 248.449V259.043H211.879V248.449H213.168ZM206.23 249.48V255.27C207.719 255.246 209.301 255.111 210.93 254.789L211.094 255.879C209.23 256.266 207.496 256.383 205.855 256.383H204.941V249.48H206.23ZM223 248.449V252.469H224.629V253.535H223V259.055H221.699V248.449H223ZM220.094 249.457V250.512H216.438V255.375C218.084 255.375 219.385 255.293 220.844 255.035L220.996 256.137C219.355 256.418 217.926 256.465 216.016 256.465H215.137V249.457H220.094ZM226.363 258.094C225.859 258.094 225.449 257.684 225.449 257.18C225.449 256.688 225.859 256.277 226.363 256.277C226.844 256.277 227.266 256.688 227.266 257.18C227.266 257.684 226.844 258.094 226.363 258.094Z" fill="#737373"/>
</g>
<defs>
<filter id="filter0_dd_16353_17688" x="30.5" y="199" width="232" height="76" filterUnits="userSpaceOnUse" color-interpolation-filters="sRGB">
<feFlood flood-opacity="0" result="BackgroundImageFix"/>
<feColorMatrix in="SourceAlpha" type="matrix" values="0 0 0 0 0 0 0 0 0 0 0 0 0 0 0 0 0 0 127 0" result="hardAlpha"/>
<feOffset dy="1"/>
<feGaussianBlur stdDeviation="1"/>
<feColorMatrix type="matrix" values="0 0 0 0 0 0 0 0 0 0 0 0 0 0 0 0 0 0 0.06 0"/>
<feBlend mode="normal" in2="BackgroundImageFix" result="effect1_dropShadow_16353_17688"/>
<feColorMatrix in="SourceAlpha" type="matrix" values="0 0 0 0 0 0 0 0 0 0 0 0 0 0 0 0 0 0 127 0" result="hardAlpha"/>
<feOffset dy="1"/>
<feGaussianBlur stdDeviation="1.5"/>
<feColorMatrix type="matrix" values="0 0 0 0 0 0 0 0 0 0 0 0 0 0 0 0 0 0 0.1 0"/>
<feBlend mode="normal" in2="effect1_dropShadow_16353_17688" result="effect2_dropShadow_16353_17688"/>
<feBlend mode="normal" in="SourceGraphic" in2="effect2_dropShadow_16353_17688" result="shape"/>
</filter>
</defs>
</svg>
