<svg width="266" height="250" viewBox="0 0 266 250" fill="none" xmlns="http://www.w3.org/2000/svg">
<g clip-path="url(#clip0_16396_15017)">
<rect width="266" height="250" rx="14" fill="white"/>
<mask id="path-2-inside-1_16396_15017" fill="white">
<path d="M27.041 108.166C27.041 94.193 29.7931 80.3571 35.1402 67.4481C40.4873 54.5391 48.3247 42.8096 58.2049 32.9295C68.085 23.0493 79.8145 15.2119 92.7235 9.86484C105.633 4.51774 119.468 1.76562 133.441 1.76563C147.414 1.76563 161.25 4.51775 174.159 9.86485C187.068 15.212 198.797 23.0493 208.677 32.9295C218.557 42.8096 226.395 54.5391 231.742 67.4481C237.089 80.3572 239.841 94.193 239.841 108.166L154.721 108.166C154.721 105.371 154.171 102.604 153.101 100.022C152.032 97.4403 150.464 95.0944 148.488 93.1184C146.512 91.1424 144.166 89.5749 141.585 88.5055C139.003 87.4361 136.236 86.8856 133.441 86.8856C130.646 86.8856 127.879 87.4361 125.298 88.5055C122.716 89.5749 120.37 91.1424 118.394 93.1184C116.418 95.0944 114.85 97.4403 113.781 100.022C112.711 102.604 112.161 105.371 112.161 108.166L27.041 108.166Z"/>
</mask>
<path d="M27.041 108.166C27.041 94.193 29.7931 80.3571 35.1402 67.4481C40.4873 54.5391 48.3247 42.8096 58.2049 32.9295C68.085 23.0493 79.8145 15.2119 92.7235 9.86484C105.633 4.51774 119.468 1.76562 133.441 1.76563C147.414 1.76563 161.25 4.51775 174.159 9.86485C187.068 15.212 198.797 23.0493 208.677 32.9295C218.557 42.8096 226.395 54.5391 231.742 67.4481C237.089 80.3572 239.841 94.193 239.841 108.166L154.721 108.166C154.721 105.371 154.171 102.604 153.101 100.022C152.032 97.4403 150.464 95.0944 148.488 93.1184C146.512 91.1424 144.166 89.5749 141.585 88.5055C139.003 87.4361 136.236 86.8856 133.441 86.8856C130.646 86.8856 127.879 87.4361 125.298 88.5055C122.716 89.5749 120.37 91.1424 118.394 93.1184C116.418 95.0944 114.85 97.4403 113.781 100.022C112.711 102.604 112.161 105.371 112.161 108.166L27.041 108.166Z" stroke="#737373" stroke-width="0.308406" mask="url(#path-2-inside-1_16396_15017)"/>
<mask id="path-3-inside-2_16396_15017" fill="white">
<path d="M27.041 108.166C27.041 85.6961 34.1544 63.8034 47.3616 45.6253C60.5688 27.4471 79.1919 13.9166 100.562 6.9732C121.931 0.029759 144.951 0.0297656 166.32 6.97322C187.69 13.9167 206.313 27.4471 219.52 45.6253L150.657 95.6576C148.015 92.0219 144.291 89.3158 140.017 87.9271C135.743 86.5385 131.139 86.5385 126.865 87.9271C122.591 89.3158 118.867 92.0219 116.225 95.6576C113.584 99.2932 112.161 103.672 112.161 108.166L27.041 108.166Z"/>
</mask>
<path d="M27.041 108.166C27.041 85.6961 34.1544 63.8034 47.3616 45.6253C60.5688 27.4471 79.1919 13.9166 100.562 6.9732C121.931 0.029759 144.951 0.0297656 166.32 6.97322C187.69 13.9167 206.313 27.4471 219.52 45.6253L150.657 95.6576C148.015 92.0219 144.291 89.3158 140.017 87.9271C135.743 86.5385 131.139 86.5385 126.865 87.9271C122.591 89.3158 118.867 92.0219 116.225 95.6576C113.584 99.2932 112.161 103.672 112.161 108.166L27.041 108.166Z" stroke="#737373" stroke-width="0.308406" mask="url(#path-3-inside-2_16396_15017)"/>
<mask id="path-4-inside-3_16396_15017" fill="white">
<path d="M27.041 108.166C27.041 91.3746 31.015 74.8219 38.6379 59.861C46.2609 44.9001 57.3164 31.9557 70.9007 22.0862C84.4849 12.2167 100.212 5.70228 116.796 3.07558C133.381 0.44889 150.351 1.7845 166.32 6.97322L140.017 87.9271C136.823 86.8894 133.429 86.6223 130.112 87.1476C126.795 87.673 123.65 88.9758 120.933 90.9497C118.216 92.9236 116.005 95.5125 114.48 98.5047C112.956 101.497 112.161 104.807 112.161 108.166L27.041 108.166Z"/>
</mask>
<path d="M27.041 108.166C27.041 91.3746 31.015 74.8219 38.6379 59.861C46.2609 44.9001 57.3164 31.9557 70.9007 22.0862C84.4849 12.2167 100.212 5.70228 116.796 3.07558C133.381 0.44889 150.351 1.7845 166.32 6.97322L140.017 87.9271C136.823 86.8894 133.429 86.6223 130.112 87.1476C126.795 87.673 123.65 88.9758 120.933 90.9497C118.216 92.9236 116.005 95.5125 114.48 98.5047C112.956 101.497 112.161 104.807 112.161 108.166L27.041 108.166Z" stroke="#737373" stroke-width="0.308406" mask="url(#path-4-inside-3_16396_15017)"/>
<mask id="path-5-inside-4_16396_15017" fill="white">
<path d="M27.041 108.166C27.041 85.6962 34.1544 63.8035 47.3616 45.6253C60.5688 27.4471 79.1919 13.9167 100.562 6.97322L126.865 87.9271C122.591 89.3158 118.867 92.0219 116.225 95.6576C113.584 99.2932 112.161 103.672 112.161 108.166L27.041 108.166Z"/>
</mask>
<path d="M27.041 108.166C27.041 85.6962 34.1544 63.8035 47.3616 45.6253C60.5688 27.4471 79.1919 13.9167 100.562 6.97322L126.865 87.9271C122.591 89.3158 118.867 92.0219 116.225 95.6576C113.584 99.2932 112.161 103.672 112.161 108.166L27.041 108.166Z" stroke="#737373" stroke-width="0.308406" mask="url(#path-5-inside-4_16396_15017)"/>
<mask id="path-6-inside-5_16396_15017" fill="white">
<path d="M27.041 108.166C27.041 85.6961 34.1544 63.8035 47.3616 45.6253L116.225 95.6576C113.584 99.2932 112.161 103.672 112.161 108.166L27.041 108.166Z"/>
</mask>
<path d="M27.041 108.166C27.041 85.6961 34.1544 63.8035 47.3616 45.6253L116.225 95.6576C113.584 99.2932 112.161 103.672 112.161 108.166L27.041 108.166Z" stroke="#737373" stroke-width="0.308406" mask="url(#path-6-inside-5_16396_15017)"/>
<mask id="path-7-inside-6_16396_15017" fill="white">
<path d="M27.041 108.166C27.041 94.193 29.7931 80.3571 35.1402 67.4481C40.4873 54.5391 48.3247 42.8096 58.2049 32.9295C68.085 23.0493 79.8145 15.2119 92.7235 9.86484C105.633 4.51774 119.468 1.76562 133.441 1.76563C147.414 1.76563 161.25 4.51775 174.159 9.86485C187.068 15.212 198.797 23.0493 208.677 32.9295C218.557 42.8096 226.395 54.5391 231.742 67.4481C237.089 80.3572 239.841 94.193 239.841 108.166H216.433C216.433 97.267 214.286 86.475 210.116 76.406C205.945 66.3369 199.832 57.188 192.125 49.4814C184.419 41.7749 175.27 35.6618 165.201 31.491C155.132 27.3203 144.34 25.1736 133.441 25.1736C122.542 25.1736 111.75 27.3203 101.681 31.491C91.6123 35.6618 82.4633 41.7749 74.7568 49.4814C67.0503 57.1879 60.9372 66.3369 56.7664 76.406C52.5957 86.475 50.449 97.267 50.449 108.166H27.041Z"/>
</mask>
<path d="M27.041 108.166C27.041 94.193 29.7931 80.3571 35.1402 67.4481C40.4873 54.5391 48.3247 42.8096 58.2049 32.9295C68.085 23.0493 79.8145 15.2119 92.7235 9.86484C105.633 4.51774 119.468 1.76562 133.441 1.76563C147.414 1.76563 161.25 4.51775 174.159 9.86485C187.068 15.212 198.797 23.0493 208.677 32.9295C218.557 42.8096 226.395 54.5391 231.742 67.4481C237.089 80.3572 239.841 94.193 239.841 108.166H216.433C216.433 97.267 214.286 86.475 210.116 76.406C205.945 66.3369 199.832 57.188 192.125 49.4814C184.419 41.7749 175.27 35.6618 165.201 31.491C155.132 27.3203 144.34 25.1736 133.441 25.1736C122.542 25.1736 111.75 27.3203 101.681 31.491C91.6123 35.6618 82.4633 41.7749 74.7568 49.4814C67.0503 57.1879 60.9372 66.3369 56.7664 76.406C52.5957 86.475 50.449 97.267 50.449 108.166H27.041Z" fill="#A23F00" stroke="white" stroke-width="1.41867" mask="url(#path-7-inside-6_16396_15017)"/>
<mask id="path-8-inside-7_16396_15017" fill="white">
<path d="M27.041 108.166C27.041 85.6961 34.1544 63.8034 47.3616 45.6253C60.5688 27.4471 79.1919 13.9166 100.562 6.9732C121.931 0.029759 144.951 0.0297656 166.32 6.97322C187.69 13.9167 206.313 27.4471 219.52 45.6253L200.583 59.3842C190.281 45.2052 175.755 34.6515 159.087 29.2356C142.419 23.8197 124.464 23.8197 107.795 29.2355C91.1267 34.6514 76.6007 45.2052 66.2991 59.3841C55.9975 73.5631 50.449 90.6394 50.449 108.166H27.041Z"/>
</mask>
<path d="M27.041 108.166C27.041 85.6961 34.1544 63.8034 47.3616 45.6253C60.5688 27.4471 79.1919 13.9166 100.562 6.9732C121.931 0.029759 144.951 0.0297656 166.32 6.97322C187.69 13.9167 206.313 27.4471 219.52 45.6253L200.583 59.3842C190.281 45.2052 175.755 34.6515 159.087 29.2356C142.419 23.8197 124.464 23.8197 107.795 29.2355C91.1267 34.6514 76.6007 45.2052 66.2991 59.3841C55.9975 73.5631 50.449 90.6394 50.449 108.166H27.041Z" fill="#E05600" stroke="white" stroke-width="1.41867" mask="url(#path-8-inside-7_16396_15017)"/>
<mask id="path-9-inside-8_16396_15017" fill="white">
<path d="M27.041 108.166C27.041 91.3746 31.015 74.8219 38.6379 59.861C46.2609 44.9001 57.3164 31.9557 70.9007 22.0862C84.4849 12.2167 100.212 5.70228 116.796 3.07558C133.381 0.44889 150.351 1.7845 166.32 6.97322L159.087 29.2355C146.631 25.1884 133.394 24.1466 120.458 26.1954C107.522 28.2442 95.2552 33.3255 84.6596 41.0237C74.0639 48.7219 65.4405 58.8185 59.4946 70.488C53.5487 82.1576 50.449 95.0686 50.449 108.166H27.041Z"/>
</mask>
<path d="M27.041 108.166C27.041 91.3746 31.015 74.8219 38.6379 59.861C46.2609 44.9001 57.3164 31.9557 70.9007 22.0862C84.4849 12.2167 100.212 5.70228 116.796 3.07558C133.381 0.44889 150.351 1.7845 166.32 6.97322L159.087 29.2355C146.631 25.1884 133.394 24.1466 120.458 26.1954C107.522 28.2442 95.2552 33.3255 84.6596 41.0237C74.0639 48.7219 65.4405 58.8185 59.4946 70.488C53.5487 82.1576 50.449 95.0686 50.449 108.166H27.041Z" fill="#FF6000" stroke="white" stroke-width="1.41867" mask="url(#path-9-inside-8_16396_15017)"/>
<mask id="path-10-inside-9_16396_15017" fill="white">
<path d="M27.041 108.166C27.041 85.6962 34.1544 63.8035 47.3616 45.6253C60.5688 27.4471 79.1919 13.9167 100.562 6.97322L107.795 29.2355C91.1267 34.6514 76.6007 45.2052 66.2991 59.3842C55.9974 73.5631 50.449 90.6394 50.449 108.166H27.041Z"/>
</mask>
<path d="M27.041 108.166C27.041 85.6962 34.1544 63.8035 47.3616 45.6253C60.5688 27.4471 79.1919 13.9167 100.562 6.97322L107.795 29.2355C91.1267 34.6514 76.6007 45.2052 66.2991 59.3842C55.9974 73.5631 50.449 90.6394 50.449 108.166H27.041Z" fill="#FF8032" stroke="white" stroke-width="1.41867" mask="url(#path-10-inside-9_16396_15017)"/>
<path d="M27.041 108.166C27.041 85.6961 34.1544 63.8035 47.3616 45.6253L66.2991 59.3841C55.9974 73.5631 50.449 90.6394 50.449 108.166H27.041Z" fill="#FEA770" stroke="white" stroke-width="0.709333" stroke-linejoin="round"/>
<path d="M83.3242 108.163C83.3242 94.8712 88.6043 82.1241 98.0028 72.7255C107.401 63.3269 120.149 58.0469 133.44 58.0469C146.732 58.0469 159.479 63.3269 168.877 72.7255C178.276 82.124 183.556 94.8712 183.556 108.163L83.3242 108.163Z" fill="#E5E5E5"/>
<path d="M138.57 78.8848V102.34H132.977V84.5078L128.356 87.4033L127.678 87.8281V82.6387L127.883 82.5078L133.463 78.9541L133.571 78.8848H138.57Z" fill="#FF6000" stroke="white" stroke-width="0.886667"/>
<path d="M153.998 68.3994L154.759 68.751L154.849 68.792L154.798 68.877L151.437 74.5176L151.396 74.5859L151.323 74.5527L150.562 74.2012L150.472 74.1602L150.522 74.0752L153.885 68.4346L153.925 68.3662L153.998 68.3994ZM113.014 67.9766L116.165 73.7109L116.213 73.7969L116.122 73.835L115.348 74.1641L115.274 74.1953L115.235 74.125L112.084 68.3916L112.037 68.3057L112.127 68.2666L112.901 67.9375L112.976 67.9062L113.014 67.9766ZM141.57 68.7822C142.03 67.3253 143.329 66.5433 144.803 66.9033C145.366 67.0409 145.905 67.3362 146.233 67.8252C146.564 68.3176 146.671 68.9924 146.396 69.8643L146.3 70.1689L146.274 70.248L146.194 70.2285L142.484 69.3213C142.382 69.7581 142.439 70.1218 142.614 70.4033C142.801 70.7033 143.131 70.923 143.582 71.0332C144.185 71.1806 144.625 71.0421 144.884 70.8223L144.918 70.793L144.962 70.8037L145.849 71.0205L145.979 71.0527L145.898 71.1592C145.401 71.8298 144.44 72.119 143.337 71.8496C142.562 71.6604 142.002 71.2636 141.694 70.7227C141.387 70.1815 141.341 69.5084 141.57 68.7822ZM122.253 66.6201C122.821 66.4987 123.453 66.5266 124.006 66.8105C124.561 67.0959 125.028 67.6349 125.271 68.5146L125.355 68.8223L125.38 68.9131L125.288 68.9326L121.559 69.7285C121.712 70.148 121.962 70.4416 122.273 70.6133C122.608 70.7976 123.021 70.8471 123.476 70.75C124.084 70.6199 124.387 70.3124 124.488 70.0166L124.504 69.9688L124.553 69.958L125.447 69.7676L125.563 69.7422L125.554 69.8613C125.49 70.6689 124.802 71.3359 123.691 71.5732C122.91 71.7401 122.204 71.6327 121.641 71.2949C121.078 70.9572 120.666 70.3934 120.464 69.6611C120.262 68.9285 120.332 68.2467 120.646 67.707C120.961 67.167 121.513 66.7782 122.253 66.6201ZM130.918 65.5166L131.857 65.5303L131.919 65.5312L131.939 65.5879L133.298 69.2646L134.794 65.6289L134.816 65.5723L134.877 65.5732L135.817 65.5869L135.951 65.5889L135.896 65.7119L133.799 70.459L133.775 70.5127L133.716 70.5117L132.826 70.499L132.768 70.498L132.745 70.4434L130.834 65.6387L130.785 65.5146L130.918 65.5166ZM144.558 67.7197C143.738 67.5195 143.035 67.928 142.747 68.5371L145.508 69.2109C145.594 68.876 145.557 68.5638 145.411 68.3096C145.253 68.0352 144.966 67.8197 144.558 67.7197ZM124.137 68.335C123.906 67.6603 123.255 67.2758 122.47 67.4434C121.642 67.6202 121.261 68.2775 121.352 68.9307L124.137 68.335Z" fill="#FF6000" stroke="#FF6000" stroke-width="0.177333"/>
<path d="M37.46 78.5596L48.3594 81.4805L48.7021 81.5723L48.6104 81.915L48.001 84.1885L47.9092 84.5303L47.5664 84.4385L39.4004 82.25L40.1309 84.627L40.3184 85.2402L39.6992 85.0742L37.6973 84.5371L37.5098 84.4873L37.4512 84.3018L36.457 81.1465L36.4258 81.0479L36.4521 80.9482L37.0254 78.8105L37.1172 78.4678L37.46 78.5596Z" fill="white" stroke="#E05600" stroke-width="0.709333"/>
<path d="M75.1221 26.2373C76.1443 26.2744 77.0711 26.738 77.7373 27.5957C78.6235 28.7369 78.749 30.0996 78.2051 33.1895L77.9844 34.7686L81.1484 32.3115L81.4287 32.0938L81.6465 32.374L82.832 33.9004L83.0498 34.1807L82.7695 34.3984L76.3936 39.3506L76.1162 39.5664L75.8975 39.291L74.8428 37.959L74.7451 37.835L74.7715 37.6797L75.6865 32.252C75.9056 30.7759 75.9239 30.1021 75.4873 29.54C75.2409 29.2229 74.9338 29.0728 74.6162 29.0537C74.2926 29.0343 73.9259 29.1495 73.5752 29.4219C73.2166 29.7004 73.0349 30.0215 72.9941 30.3369C72.9535 30.652 73.0473 31.01 73.3301 31.374L73.5479 31.6543L73.2676 31.8711L71.5078 33.2383L71.2295 33.4551L71.0117 33.1777C70.2687 32.235 70.0011 31.1702 70.1934 30.1338C70.3846 29.1034 71.0224 28.1383 72.0176 27.3652C73.0228 26.5845 74.1064 26.2006 75.1221 26.2373Z" fill="white" stroke="#E05600" stroke-width="0.709333"/>
<path d="M133.341 7.61816C135.821 7.61821 137.621 9.10102 137.607 11.1475L137.599 11.418C137.523 12.3698 136.982 13.1109 136.195 13.5371C136.622 13.7057 136.987 13.9411 137.277 14.2441C137.781 14.7709 138.036 15.4653 138.028 16.2461L138.023 16.4512C137.914 18.5526 135.864 19.9228 133.31 19.9229C130.719 19.9229 128.706 18.4687 128.653 16.2412L128.645 15.8789H131.712L131.731 16.2139C131.763 16.784 132.326 17.2812 133.325 17.2812C134.334 17.2812 134.899 16.7288 134.888 16.0986V16.0869C134.893 15.7469 134.748 15.4583 134.464 15.2441C134.171 15.0239 133.714 14.873 133.106 14.873H131.708V12.4336H133.106C133.598 12.4336 133.987 12.2993 134.245 12.0957C134.497 11.8968 134.638 11.6226 134.638 11.292C134.638 10.9593 134.514 10.6958 134.306 10.5117C134.094 10.3245 133.77 10.1973 133.341 10.1973C132.442 10.1973 131.862 10.688 131.841 11.2744L131.828 11.6162H128.881L128.887 11.2559C128.922 9.0459 130.917 7.61816 133.341 7.61816Z" fill="white" stroke="#E05600" stroke-width="0.709333"/>
<path d="M193.452 26.3008L195.854 28.0059L196.144 28.2109L195.938 28.5L191.856 34.248L192.737 34.873L193.027 35.0781L192.821 35.3672L191.729 36.9053L191.524 37.1943L191.235 36.9893L190.354 36.3643L189.405 37.7021L189.2 37.9912L188.911 37.7852L187.094 36.4951L186.805 36.29L187.01 36.001L187.959 34.6621L183.775 31.6924L183.486 31.4873L183.691 31.1982L184.765 29.6855L184.825 29.6016L184.922 29.5625L193.114 26.2607L193.294 26.1885L193.452 26.3008ZM187.688 31.2891L189.487 32.5654L191.477 29.7617L187.688 31.2891Z" fill="white" stroke="#E05600" stroke-width="0.709333"/>
<path d="M229.097 75.1367L231.01 81.8193L231.107 82.1611L230.767 82.2578L228.923 82.7861L228.582 82.8838L228.484 82.542L227.19 78.0234L225.494 78.3145C225.952 78.7199 226.32 79.3125 226.52 80.0088C227.145 82.1955 225.97 84.2958 223.705 84.9443C222.521 85.2833 221.358 85.127 220.396 84.543C219.437 83.9602 218.701 82.9667 218.33 81.6719C217.647 79.2856 218.54 77.0182 220.64 76.3623L220.986 76.2539L221.086 76.6025L221.712 78.791L221.805 79.1143L221.486 79.2236C220.879 79.4327 220.559 80.1409 220.795 80.9658C220.932 81.4452 221.212 81.788 221.559 81.9805C221.905 82.1729 222.344 82.229 222.823 82.0918C223.318 81.9502 223.666 81.6644 223.862 81.3105C224.058 80.9571 224.117 80.5102 223.985 80.0205L223.9 79.7695C223.684 79.2219 223.334 78.9287 222.848 78.8232L222.641 78.7783L222.582 78.5742L221.999 76.5361L221.892 76.1621L222.274 76.0898L228.69 74.8857L229.008 74.8262L229.097 75.1367Z" fill="white" stroke="#E05600" stroke-width="0.709333"/>
<mask id="path-20-outside-10_16396_15017" maskUnits="userSpaceOnUse" x="40.1152" y="124.898" width="185" height="25" fill="black">
<rect fill="white" x="40.1152" y="124.898" width="185" height="25"/>
<path d="M48.5591 148.625L42.1152 127.116H47.2205L51.0183 142.149H51.2051L55.3454 127.116H59.7346L63.8749 142.178H64.0617L67.8595 127.116H72.9648L66.5209 148.625H61.9449L57.649 134.425H57.4622L53.1351 148.625H48.5591Z"/>
<path d="M81.0274 148.952C75.9221 148.952 72.7469 145.595 72.7469 140.604C72.7469 135.613 75.9221 132.286 81.0274 132.286C86.1326 132.286 89.339 135.613 89.339 140.604C89.339 145.595 86.1326 148.952 81.0274 148.952ZM81.0585 145.535C83.4244 145.535 84.6384 143.426 84.6384 140.604C84.6384 137.752 83.4244 135.643 81.0585 135.643C78.6615 135.643 77.4163 137.752 77.4163 140.604C77.4163 143.426 78.6615 145.535 81.0585 145.535Z"/>
<path d="M92.2341 148.625V132.494H96.6856V135.286H96.8724C97.495 133.296 99.0515 132.256 100.95 132.256C101.417 132.256 102.009 132.315 102.413 132.404V136.326C101.978 136.207 101.106 136.088 100.452 136.088C98.3666 136.088 96.8413 137.485 96.8413 139.445V148.625H92.2341Z"/>
<path d="M104.655 148.625V127.116H109.262V138.673H109.511L114.99 132.494H120.282L113.994 139.475L120.624 148.625H115.208L110.569 142.06L109.262 143.456V148.625H104.655Z"/>
<path d="M137.808 148.625H129.87V127.116H137.901C144.688 127.116 148.828 131.157 148.828 137.841C148.828 144.585 144.688 148.625 137.808 148.625ZM134.539 144.793H137.621C141.917 144.793 144.158 142.654 144.158 137.841C144.158 133.058 141.917 130.949 137.652 130.949H134.539V144.793Z"/>
<path d="M152.128 148.625V132.494H156.579V135.286H156.766C157.389 133.296 158.945 132.256 160.844 132.256C161.311 132.256 161.902 132.315 162.307 132.404V136.326C161.871 136.207 161 136.088 160.346 136.088C158.26 136.088 156.735 137.485 156.735 139.445V148.625H152.128Z"/>
<path d="M164.548 148.625V132.494H169.156V148.625H164.548ZM166.852 130.384C165.451 130.384 164.33 129.374 164.33 128.156C164.33 126.909 165.451 125.898 166.852 125.898C168.222 125.898 169.342 126.909 169.342 128.156C169.342 129.374 168.222 130.384 166.852 130.384Z"/>
<path d="M188.425 132.494L182.479 148.625H177.312L171.397 132.494H176.253L179.802 144.08H179.989L183.537 132.494H188.425Z"/>
<path d="M197.764 148.952C192.596 148.952 189.421 145.743 189.421 140.634C189.421 135.643 192.627 132.286 197.577 132.286C202.029 132.286 205.515 134.959 205.515 140.455V141.703H193.966C193.966 144.139 195.491 145.654 197.857 145.654C199.414 145.654 200.534 145.001 201.001 144.02H205.391C204.737 146.991 201.935 148.952 197.764 148.952ZM193.966 138.94H201.157C201.157 136.979 199.725 135.583 197.67 135.583C195.554 135.583 194.044 137.083 193.966 138.94Z"/>
<path d="M213.017 139.297V148.625H208.41V132.494H212.799V135.316H212.986C213.764 133.444 215.57 132.286 218.06 132.286C221.578 132.286 223.913 134.573 223.882 138.346V148.625H219.306V139.118C219.306 137.128 218.154 135.94 216.255 135.94C214.325 135.94 213.017 137.158 213.017 139.297Z"/>
</mask>
<path d="M48.5591 148.625L42.1152 127.116H47.2205L51.0183 142.149H51.2051L55.3454 127.116H59.7346L63.8749 142.178H64.0617L67.8595 127.116H72.9648L66.5209 148.625H61.9449L57.649 134.425H57.4622L53.1351 148.625H48.5591Z" fill="#291000"/>
<path d="M81.0274 148.952C75.9221 148.952 72.7469 145.595 72.7469 140.604C72.7469 135.613 75.9221 132.286 81.0274 132.286C86.1326 132.286 89.339 135.613 89.339 140.604C89.339 145.595 86.1326 148.952 81.0274 148.952ZM81.0585 145.535C83.4244 145.535 84.6384 143.426 84.6384 140.604C84.6384 137.752 83.4244 135.643 81.0585 135.643C78.6615 135.643 77.4163 137.752 77.4163 140.604C77.4163 143.426 78.6615 145.535 81.0585 145.535Z" fill="#291000"/>
<path d="M92.2341 148.625V132.494H96.6856V135.286H96.8724C97.495 133.296 99.0515 132.256 100.95 132.256C101.417 132.256 102.009 132.315 102.413 132.404V136.326C101.978 136.207 101.106 136.088 100.452 136.088C98.3666 136.088 96.8413 137.485 96.8413 139.445V148.625H92.2341Z" fill="#291000"/>
<path d="M104.655 148.625V127.116H109.262V138.673H109.511L114.99 132.494H120.282L113.994 139.475L120.624 148.625H115.208L110.569 142.06L109.262 143.456V148.625H104.655Z" fill="#291000"/>
<path d="M137.808 148.625H129.87V127.116H137.901C144.688 127.116 148.828 131.157 148.828 137.841C148.828 144.585 144.688 148.625 137.808 148.625ZM134.539 144.793H137.621C141.917 144.793 144.158 142.654 144.158 137.841C144.158 133.058 141.917 130.949 137.652 130.949H134.539V144.793Z" fill="#291000"/>
<path d="M152.128 148.625V132.494H156.579V135.286H156.766C157.389 133.296 158.945 132.256 160.844 132.256C161.311 132.256 161.902 132.315 162.307 132.404V136.326C161.871 136.207 161 136.088 160.346 136.088C158.26 136.088 156.735 137.485 156.735 139.445V148.625H152.128Z" fill="#291000"/>
<path d="M164.548 148.625V132.494H169.156V148.625H164.548ZM166.852 130.384C165.451 130.384 164.33 129.374 164.33 128.156C164.33 126.909 165.451 125.898 166.852 125.898C168.222 125.898 169.342 126.909 169.342 128.156C169.342 129.374 168.222 130.384 166.852 130.384Z" fill="#291000"/>
<path d="M188.425 132.494L182.479 148.625H177.312L171.397 132.494H176.253L179.802 144.08H179.989L183.537 132.494H188.425Z" fill="#291000"/>
<path d="M197.764 148.952C192.596 148.952 189.421 145.743 189.421 140.634C189.421 135.643 192.627 132.286 197.577 132.286C202.029 132.286 205.515 134.959 205.515 140.455V141.703H193.966C193.966 144.139 195.491 145.654 197.857 145.654C199.414 145.654 200.534 145.001 201.001 144.02H205.391C204.737 146.991 201.935 148.952 197.764 148.952ZM193.966 138.94H201.157C201.157 136.979 199.725 135.583 197.67 135.583C195.554 135.583 194.044 137.083 193.966 138.94Z" fill="#291000"/>
<path d="M213.017 139.297V148.625H208.41V132.494H212.799V135.316H212.986C213.764 133.444 215.57 132.286 218.06 132.286C221.578 132.286 223.913 134.573 223.882 138.346V148.625H219.306V139.118C219.306 137.128 218.154 135.94 216.255 135.94C214.325 135.94 213.017 137.158 213.017 139.297Z" fill="#291000"/>
<path d="M48.5591 148.625L42.1152 127.116H47.2205L51.0183 142.149H51.2051L55.3454 127.116H59.7346L63.8749 142.178H64.0617L67.8595 127.116H72.9648L66.5209 148.625H61.9449L57.649 134.425H57.4622L53.1351 148.625H48.5591Z" stroke="white" stroke-width="1.77333" mask="url(#path-20-outside-10_16396_15017)"/>
<path d="M81.0274 148.952C75.9221 148.952 72.7469 145.595 72.7469 140.604C72.7469 135.613 75.9221 132.286 81.0274 132.286C86.1326 132.286 89.339 135.613 89.339 140.604C89.339 145.595 86.1326 148.952 81.0274 148.952ZM81.0585 145.535C83.4244 145.535 84.6384 143.426 84.6384 140.604C84.6384 137.752 83.4244 135.643 81.0585 135.643C78.6615 135.643 77.4163 137.752 77.4163 140.604C77.4163 143.426 78.6615 145.535 81.0585 145.535Z" stroke="white" stroke-width="1.77333" mask="url(#path-20-outside-10_16396_15017)"/>
<path d="M92.2341 148.625V132.494H96.6856V135.286H96.8724C97.495 133.296 99.0515 132.256 100.95 132.256C101.417 132.256 102.009 132.315 102.413 132.404V136.326C101.978 136.207 101.106 136.088 100.452 136.088C98.3666 136.088 96.8413 137.485 96.8413 139.445V148.625H92.2341Z" stroke="white" stroke-width="1.77333" mask="url(#path-20-outside-10_16396_15017)"/>
<path d="M104.655 148.625V127.116H109.262V138.673H109.511L114.99 132.494H120.282L113.994 139.475L120.624 148.625H115.208L110.569 142.06L109.262 143.456V148.625H104.655Z" stroke="white" stroke-width="1.77333" mask="url(#path-20-outside-10_16396_15017)"/>
<path d="M137.808 148.625H129.87V127.116H137.901C144.688 127.116 148.828 131.157 148.828 137.841C148.828 144.585 144.688 148.625 137.808 148.625ZM134.539 144.793H137.621C141.917 144.793 144.158 142.654 144.158 137.841C144.158 133.058 141.917 130.949 137.652 130.949H134.539V144.793Z" stroke="white" stroke-width="1.77333" mask="url(#path-20-outside-10_16396_15017)"/>
<path d="M152.128 148.625V132.494H156.579V135.286H156.766C157.389 133.296 158.945 132.256 160.844 132.256C161.311 132.256 161.902 132.315 162.307 132.404V136.326C161.871 136.207 161 136.088 160.346 136.088C158.26 136.088 156.735 137.485 156.735 139.445V148.625H152.128Z" stroke="white" stroke-width="1.77333" mask="url(#path-20-outside-10_16396_15017)"/>
<path d="M164.548 148.625V132.494H169.156V148.625H164.548ZM166.852 130.384C165.451 130.384 164.33 129.374 164.33 128.156C164.33 126.909 165.451 125.898 166.852 125.898C168.222 125.898 169.342 126.909 169.342 128.156C169.342 129.374 168.222 130.384 166.852 130.384Z" stroke="white" stroke-width="1.77333" mask="url(#path-20-outside-10_16396_15017)"/>
<path d="M188.425 132.494L182.479 148.625H177.312L171.397 132.494H176.253L179.802 144.08H179.989L183.537 132.494H188.425Z" stroke="white" stroke-width="1.77333" mask="url(#path-20-outside-10_16396_15017)"/>
<path d="M197.764 148.952C192.596 148.952 189.421 145.743 189.421 140.634C189.421 135.643 192.627 132.286 197.577 132.286C202.029 132.286 205.515 134.959 205.515 140.455V141.703H193.966C193.966 144.139 195.491 145.654 197.857 145.654C199.414 145.654 200.534 145.001 201.001 144.02H205.391C204.737 146.991 201.935 148.952 197.764 148.952ZM193.966 138.94H201.157C201.157 136.979 199.725 135.583 197.67 135.583C195.554 135.583 194.044 137.083 193.966 138.94Z" stroke="white" stroke-width="1.77333" mask="url(#path-20-outside-10_16396_15017)"/>
<path d="M213.017 139.297V148.625H208.41V132.494H212.799V135.316H212.986C213.764 133.444 215.57 132.286 218.06 132.286C221.578 132.286 223.913 134.573 223.882 138.346V148.625H219.306V139.118C219.306 137.128 218.154 135.94 216.255 135.94C214.325 135.94 213.017 137.158 213.017 139.297Z" stroke="white" stroke-width="1.77333" mask="url(#path-20-outside-10_16396_15017)"/>
<path d="M59.9057 87.2564C59.5254 86.8645 59.712 86.208 60.2416 86.0746L80.1977 81.0495C80.7272 80.9161 81.2025 81.406 81.0532 81.9313L75.4271 101.726C75.2778 102.252 74.6159 102.418 74.2357 102.026L59.9057 87.2564Z" fill="#FF6000"/>
<g filter="url(#filter0_dd_16396_15017)">
<rect x="20.4434" y="179.16" width="226" height="70" rx="7.09333" fill="white"/>
<path d="M42.998 200.16L40.6074 191.676H42.248L43.7832 197.922H43.8652L45.4941 191.676H46.9941L48.6348 197.934H48.7051L50.2402 191.676H51.8809L49.4902 200.16H47.9785L46.2793 194.195H46.2207L44.5098 200.16H42.998ZM54.9043 200.289C53.0527 200.289 51.8574 198.977 51.8574 197.008C51.8574 195.027 53.0527 193.715 54.9043 193.715C56.7676 193.715 57.9512 195.027 57.9512 197.008C57.9512 198.977 56.7676 200.289 54.9043 200.289ZM54.916 199.094C55.9355 199.094 56.4395 198.168 56.4395 196.996C56.4395 195.836 55.9355 194.898 54.916 194.898C53.873 194.898 53.3691 195.836 53.3691 196.996C53.3691 198.168 53.873 199.094 54.916 199.094ZM59.1113 200.16V193.797H60.5645V194.852H60.6348C60.8574 194.125 61.4785 193.703 62.2051 193.703C62.3691 193.703 62.6035 193.715 62.7441 193.738V195.121C62.6152 195.074 62.2988 195.027 62.0527 195.027C61.2207 195.027 60.6113 195.602 60.6113 196.41V200.16H59.1113ZM63.6348 200.16V191.676H65.1348V196.352H65.2402L67.5254 193.797H69.2715L66.8105 196.539L69.4238 200.16H67.6426L65.6855 197.43L65.1348 198.016V200.16H63.6348ZM75.9629 200.16H73.0801V191.676H76.0098C78.541 191.676 80.0762 193.27 80.0762 195.906C80.0762 198.555 78.541 200.16 75.9629 200.16ZM74.6035 198.836H75.8809C77.6504 198.836 78.5527 197.863 78.5527 195.906C78.5527 193.961 77.6504 193 75.9277 193H74.6035V198.836ZM81.3535 200.16V193.797H82.8066V194.852H82.877C83.0996 194.125 83.7207 193.703 84.4473 193.703C84.6113 193.703 84.8457 193.715 84.9863 193.738V195.121C84.8574 195.074 84.541 195.027 84.2949 195.027C83.4629 195.027 82.8535 195.602 82.8535 196.41V200.16H81.3535ZM85.877 200.16V193.797H87.377V200.16H85.877ZM86.6387 192.895C86.1699 192.895 85.7715 192.531 85.7715 192.074C85.7715 191.629 86.1699 191.266 86.6387 191.266C87.1191 191.266 87.5059 191.629 87.5059 192.074C87.5059 192.531 87.1191 192.895 86.6387 192.895ZM94.4902 193.797L92.2168 200.16H90.5762L88.3027 193.797H89.8965L91.3613 198.531H91.4316L92.9082 193.797H94.4902ZM98.0293 200.289C96.1074 200.289 94.9355 199.012 94.9355 197.02C94.9355 195.051 96.1309 193.715 97.9473 193.715C99.5059 193.715 100.854 194.688 100.854 196.926V197.395H96.4121C96.4297 198.479 97.0684 199.117 98.041 199.117C98.6973 199.117 99.1426 198.836 99.3301 198.461H100.795C100.525 199.562 99.5059 200.289 98.0293 200.289ZM96.4238 196.375H99.4238C99.4121 195.508 98.8379 194.875 97.9707 194.875C97.0684 194.875 96.4707 195.561 96.4238 196.375ZM103.514 196.434V200.16H102.014V193.797H103.443V194.875H103.525C103.818 194.16 104.463 193.715 105.412 193.715C106.736 193.715 107.604 194.582 107.592 196.105V200.16H106.104V196.34C106.104 195.484 105.646 194.98 104.861 194.98C104.064 194.98 103.514 195.508 103.514 196.434ZM117.471 190.609V201.215H116.158V190.609H117.471ZM111.764 191.383C113.357 191.383 114.518 192.836 114.529 195.121C114.518 197.43 113.357 198.871 111.764 198.871C110.158 198.871 108.998 197.43 108.998 195.121C108.998 192.836 110.158 191.383 111.764 191.383ZM111.764 192.555C110.861 192.555 110.252 193.504 110.252 195.121C110.252 196.75 110.861 197.699 111.764 197.699C112.654 197.699 113.264 196.75 113.264 195.121C113.264 193.504 112.654 192.555 111.764 192.555ZM127.385 190.621V193.738H128.873V194.828H127.385V198.414H126.084V190.621H127.385ZM127.818 199.938V200.992H120.646V197.793H121.971V199.938H127.818ZM124.268 191.277V194.5H120.74V195.801C122.539 195.789 123.77 195.713 125.217 195.461L125.357 196.527C123.775 196.809 122.404 196.855 120.307 196.855H119.439V193.516H122.99V192.344H119.428V191.277H124.268ZM131.463 199.328L130.479 202.609H129.365L129.975 199.328H131.463ZM143.732 191.043V194.723H140.779V195.836H144.963V196.891H135.307V195.836H139.467V194.723H136.525V191.043H143.732ZM137.791 192.062V193.691H142.443V192.062H137.791ZM143.779 197.781V201.203H142.479V198.812H136.373V197.781H143.779ZM155.357 198.93V199.984H145.678V198.93H148.186V196.75H146.51V195.695H147.998V192.555H146.475V191.512H154.514V192.555H152.967V195.695H154.479V196.75H152.803V198.93H155.357ZM149.299 195.695H151.678V192.555H149.299V195.695ZM149.486 198.93H151.502V196.75H149.486V198.93ZM165.717 195.414V196.398H156.037V195.414H165.717ZM164.545 197.031V199.445H158.475V200.184H164.861V201.086H157.174V198.602H163.256V197.945H157.162V197.031H164.545ZM164.521 190.844V193.234H158.557V193.926H164.709V194.816H157.268V192.391H163.221V191.746H157.232V190.844H164.521ZM179.064 192.262V193.328H177.623V194.535H179.064V195.602H177.623V197.371H176.322V190.609H177.623V192.262H179.064ZM174.201 197.465C176.369 197.465 177.74 198.156 177.74 199.328C177.74 200.488 176.369 201.191 174.201 201.191C171.998 201.191 170.65 200.488 170.662 199.328C170.65 198.156 171.998 197.465 174.201 197.465ZM174.201 198.461C172.748 198.461 171.939 198.742 171.951 199.328C171.939 199.891 172.748 200.207 174.201 200.207C175.631 200.207 176.439 199.891 176.439 199.328C176.439 198.742 175.631 198.461 174.201 198.461ZM175.561 191.688V192.707H169.279V191.688H171.775V190.539H173.076V191.688H175.561ZM172.42 193.129C173.955 193.129 174.998 193.891 175.01 195.027C174.998 196.164 173.955 196.914 172.42 196.914C170.873 196.914 169.818 196.164 169.818 195.027C169.818 193.891 170.873 193.129 172.42 193.129ZM172.42 194.09C171.611 194.09 171.084 194.441 171.084 195.027C171.084 195.602 171.611 195.93 172.42 195.93C173.229 195.93 173.768 195.602 173.768 195.027C173.768 194.441 173.229 194.09 172.42 194.09ZM184.807 192.297V193.34H179.615V192.297H181.584V190.914H182.873V192.297H184.807ZM182.229 193.902C183.576 193.902 184.537 194.922 184.537 196.363C184.537 197.828 183.576 198.859 182.229 198.859C180.893 198.859 179.908 197.828 179.92 196.363C179.908 194.922 180.893 193.902 182.229 193.902ZM182.229 194.98C181.537 194.98 181.057 195.531 181.068 196.363C181.057 197.219 181.537 197.758 182.229 197.746C182.908 197.758 183.389 197.219 183.389 196.363C183.389 195.531 182.908 194.98 182.229 194.98ZM188.744 190.609V201.203H187.502V196.023H186.471V200.723H185.252V190.832H186.471V194.969H187.502V190.609H188.744ZM201.729 190.609V195.93H200.428V193.867H198.518C198.26 195.021 197.182 195.789 195.799 195.789C194.193 195.789 192.998 194.781 192.998 193.34C192.998 191.934 194.193 190.938 195.799 190.938C197.176 190.938 198.248 191.693 198.518 192.812H200.428V190.609H201.729ZM195.799 191.992C194.885 191.992 194.24 192.531 194.24 193.34C194.24 194.195 194.885 194.723 195.799 194.723C196.678 194.723 197.322 194.195 197.334 193.34C197.322 192.531 196.678 191.992 195.799 191.992ZM201.729 196.445V199.188H196.057V200.043H202.068V201.074H194.756V198.227H200.428V197.453H194.744V196.445H201.729ZM208.619 191.641V198.578H203.604V191.641H208.619ZM204.881 192.66V197.535H207.318V192.66H204.881ZM211.525 190.609V194.676H213.154V195.777H211.525V201.203H210.225V190.609H211.525ZM223.467 194.699V195.766H221.896V201.18H220.596V190.609H221.896V194.699H223.467ZM215.264 191.641V197.488C216.676 197.465 218.182 197.342 219.775 197.008L219.916 198.109C218.135 198.461 216.436 198.566 214.865 198.566H213.975V191.641H215.264ZM45.4531 208.609V211.188H46.9297V212.254H45.4531V214.82H44.1523V208.609H45.4531ZM42.5234 209.336C42.5234 212.125 40.707 214.094 37.5781 214.984L37.0625 213.93C39.4648 213.273 40.8887 211.979 41.1172 210.391H37.543V209.336H42.5234ZM42.0312 214.949C44.1758 214.949 45.5703 215.77 45.5703 217.07C45.5703 218.395 44.1758 219.191 42.0312 219.191C39.8984 219.191 38.4805 218.395 38.4922 217.07C38.4805 215.77 39.8984 214.949 42.0312 214.949ZM42.0312 215.969C40.6367 215.969 39.7695 216.367 39.7812 217.07C39.7695 217.762 40.6367 218.172 42.0312 218.172C43.4258 218.172 44.293 217.762 44.293 217.07C44.293 216.367 43.4258 215.969 42.0312 215.969ZM55.7656 208.609V212.828H57.3945V213.906H55.7656V219.203H54.4766V208.609H55.7656ZM53.6562 210.238V211.281H47.4102V210.238H49.918V208.762H51.2188V210.238H53.6562ZM50.5742 211.973C52.0977 211.973 53.2344 213.004 53.2344 214.469C53.2344 215.934 52.0977 216.953 50.5742 216.953C49.0273 216.953 47.8906 215.934 47.9023 214.469C47.8906 213.004 49.0273 211.973 50.5742 211.973ZM50.5742 213.039C49.7422 213.039 49.1445 213.602 49.1445 214.469C49.1445 215.336 49.7422 215.887 50.5742 215.875C51.3828 215.887 51.9805 215.336 51.9922 214.469C51.9805 213.602 51.3828 213.039 50.5742 213.039ZM66.4883 209.582V210.602C66.4766 211.914 66.4766 213.391 66.0664 215.605L64.7539 215.465C65.1641 213.402 65.1641 211.896 65.1758 210.625H58.8477V209.582H66.4883ZM67.4961 216.766V217.832H57.8398V216.766H61.4023V213.086H62.6914V216.766H67.4961ZM79.7422 208.609V212.594H80.9258V213.695H79.7422V219.203H78.4531V208.609H79.7422ZM72.2656 209.582V212.125H73.1562V209.582H74.2344V216.707H71.1875V209.582H72.2656ZM72.2656 215.641H73.1562V213.156H72.2656V215.641ZM75.7695 209.582V212.125H76.6602V209.582H77.7383V216.707H74.7148V209.582H75.7695ZM75.7695 215.641H76.6602V213.156H75.7695V215.641ZM91.1094 216.883V217.949H81.4297V216.883H91.1094ZM89.9609 209.359V212.77H83.8789V214.152H90.207V215.184H82.5781V211.727H88.6719V210.414H82.5547V209.359H89.9609ZM100.941 208.609V219.203H99.6992V208.609H100.941ZM98.6914 208.867V218.699H97.4609V213.824H95.5742C94.9531 215.043 93.957 216.098 92.457 216.965L91.7188 216.039C93.916 214.744 94.918 213.086 95.1172 210.953H92.2578V209.898H96.4062C96.4062 210.924 96.2832 211.885 95.9961 212.781H97.4609V208.867H98.6914ZM108.02 208.949C109.625 208.949 110.82 209.945 110.832 211.34C110.82 212.746 109.625 213.73 108.02 213.73C106.402 213.73 105.207 212.746 105.207 211.34C105.207 209.945 106.402 208.949 108.02 208.949ZM108.02 210.027C107.129 210.027 106.473 210.531 106.473 211.34C106.473 212.16 107.129 212.676 108.02 212.676C108.91 212.676 109.566 212.16 109.566 211.34C109.566 210.531 108.91 210.027 108.02 210.027ZM113.844 208.609V213.965H112.531V208.609H113.844ZM113.844 214.422V217.188H108.113V218.043H114.16V219.074H106.836V216.227H112.543V215.441H106.812V214.422H113.844ZM120.207 208.773C122.621 208.773 124.016 209.418 124.027 210.59C124.016 211.773 122.621 212.406 120.207 212.418C117.793 212.406 116.387 211.773 116.387 210.59C116.387 209.418 117.793 208.773 120.207 208.773ZM120.207 209.734C118.59 209.734 117.746 210.039 117.758 210.59C117.746 211.176 118.59 211.445 120.207 211.445C121.848 211.445 122.68 211.176 122.68 210.59C122.68 210.039 121.848 209.734 120.207 209.734ZM125.047 212.98V214.023H115.391V212.98H125.047ZM123.84 214.738V217.328H117.816V218.113H124.133V219.109H116.539V216.402H122.562V215.699H116.527V214.738H123.84ZM134.258 209.16V213.578H129.148V209.16H134.258ZM130.438 210.203V212.559H132.969V210.203H130.438ZM137.41 208.609V214H136.121V208.609H137.41ZM137.41 214.48V217.223H131.703V218.078H137.727V219.109H130.414V216.285H136.145V215.5H130.402V214.48H137.41ZM141.875 209.383C143.311 209.383 144.371 210.578 144.559 212.512H146.574V208.609H147.863V219.215H146.574V213.566H144.57C144.43 215.611 143.352 216.871 141.875 216.871C140.281 216.871 139.156 215.43 139.156 213.121C139.156 210.836 140.281 209.383 141.875 209.383ZM141.875 210.555C140.996 210.555 140.398 211.504 140.41 213.121C140.398 214.75 140.996 215.699 141.875 215.699C142.754 215.699 143.34 214.75 143.352 213.121C143.34 211.504 142.754 210.555 141.875 210.555ZM157.883 214.984V215.91H151.824V216.578H157.672V217.469H151.824V218.148H158.047V219.109H150.535V214.984H153.512V214.105H149.352V213.074H159.008V214.105H154.812V214.984H157.883ZM151.895 208.797V209.641H156.465V208.797H157.754V212.395H150.605V208.797H151.895ZM151.895 211.398H156.465V210.613H151.895V211.398ZM162.723 208.949C164.328 208.949 165.523 209.945 165.535 211.34C165.523 212.746 164.328 213.73 162.723 213.73C161.105 213.73 159.91 212.746 159.91 211.34C159.91 209.945 161.105 208.949 162.723 208.949ZM162.723 210.027C161.832 210.027 161.176 210.531 161.176 211.34C161.176 212.16 161.832 212.676 162.723 212.676C163.613 212.676 164.27 212.16 164.27 211.34C164.27 210.531 163.613 210.027 162.723 210.027ZM168.547 208.609V213.965H167.234V208.609H168.547ZM168.547 214.422V217.188H162.816V218.043H168.863V219.074H161.539V216.227H167.246V215.441H161.516V214.422H168.547ZM178.461 209.488C178.461 210.824 179.949 212.172 182.211 212.465L181.695 213.52C179.896 213.25 178.467 212.365 177.781 211.164C177.084 212.365 175.66 213.25 173.879 213.52L173.363 212.465C175.602 212.172 177.09 210.824 177.09 209.488V208.949H178.461V209.488ZM182.598 214.434V215.512H178.391V219.203H177.102V215.512H172.941V214.434H182.598ZM189.922 215.5C189.922 216.379 190.326 217.305 191.234 217.879C192.154 217.264 192.582 216.303 192.594 215.5V215.066H193.871V215.5C193.859 216.613 194.516 217.645 195.91 218.09L195.277 219.039C194.246 218.693 193.561 218.02 193.191 217.176C192.852 218.008 192.225 218.752 191.27 219.133C190.262 218.77 189.629 218.055 189.301 217.211C188.92 218.025 188.246 218.688 187.262 219.039L186.617 218.09C187.988 217.609 188.645 216.531 188.656 215.5V215.066H189.922V215.5ZM194.984 208.621V214.621H193.672V208.621H194.984ZM189.207 209.184C190.836 209.184 192.055 210.215 192.055 211.703C192.055 213.18 190.836 214.211 189.207 214.211C187.566 214.211 186.348 213.18 186.348 211.703C186.348 210.215 187.566 209.184 189.207 209.184ZM189.207 210.285C188.281 210.285 187.613 210.836 187.625 211.703C187.613 212.57 188.281 213.133 189.207 213.133C190.121 213.133 190.777 212.57 190.777 211.703C190.777 210.836 190.121 210.285 189.207 210.285ZM205.109 211.609V212.641H197.773V208.996H199.062V211.609H205.109ZM206.199 213.871V214.902H196.52V213.871H206.199ZM205.18 217.902V218.957H197.68V215.84H198.98V217.902H205.18ZM210.898 211.621C210.898 213.355 211.918 215.184 213.629 215.898L212.914 216.93C211.66 216.391 210.746 215.277 210.266 213.93C209.773 215.383 208.848 216.602 207.605 217.188L206.855 216.168C208.531 215.395 209.574 213.426 209.574 211.621V210.73H207.242V209.652H213.219V210.73H210.898V211.621ZM215.715 208.609V219.203H214.402V208.609H215.715ZM226.941 213.414V214.398H217.262V213.414H226.941ZM225.77 215.031V217.445H219.699V218.184H226.086V219.086H218.398V216.602H224.48V215.945H218.387V215.031H225.77ZM225.746 208.844V211.234H219.781V211.926H225.934V212.816H218.492V210.391H224.445V209.746H218.457V208.844H225.746ZM62.1699 230.699V231.766H60.5996V237.18H59.2988V226.609H60.5996V230.699H62.1699ZM53.9668 227.641V233.488C55.3789 233.465 56.8848 233.342 58.4785 233.008L58.6191 234.109C56.8379 234.461 55.1387 234.566 53.5684 234.566H52.6777V227.641H53.9668ZM68.1113 227.523V228.59H64.4316V230.477H67.9238V231.508H64.4316V233.688C66.0605 233.676 67.332 233.617 68.8145 233.371L68.9316 234.426C67.3027 234.684 65.8848 234.742 63.9863 234.742H63.1074V227.523H68.1113ZM70.9707 226.609V230.711H72.5996V231.801H70.9707V237.203H69.6699V226.609H70.9707ZM82.1387 226.609V237.203H80.8848V231.848H79.7129V236.664H78.4941V226.809H79.7129V230.781H80.8848V226.609H82.1387ZM74.8145 227.828V233.418C75.7285 233.4 76.7305 233.324 77.8379 233.102L77.9668 234.238C76.5371 234.496 75.3301 234.566 74.2051 234.566H73.502V227.828H74.8145ZM91.9941 229.609V230.641H84.6582V226.996H85.9473V229.609H91.9941ZM93.084 231.871V232.902H83.4043V231.871H93.084ZM92.0645 235.902V236.957H84.5645V233.84H85.8652V235.902H92.0645ZM96.7285 230.957L97.7129 227.676H98.8262L98.2168 230.957H96.7285ZM102.564 227.078C103.936 227.066 105.014 227.857 105.283 229.023H107.193V226.609H108.494V232.293H107.193V230.078H105.295C105.031 231.268 103.941 232.07 102.564 232.07C100.936 232.07 99.7637 231.027 99.7637 229.562C99.7637 228.121 100.936 227.066 102.564 227.078ZM102.564 228.168C101.65 228.168 101.006 228.707 101.006 229.562C101.006 230.406 101.65 230.969 102.564 230.969C103.455 230.969 104.088 230.406 104.1 229.562C104.088 228.707 103.455 228.168 102.564 228.168ZM102.799 232.785V233.91H107.193V232.785H108.494V237.074H101.51V232.785H102.799ZM102.799 236.02H107.193V234.918H102.799V236.02ZM119.662 232.609V233.664H115.443V237.191H114.154V233.664H109.982V232.609H119.662ZM118.479 227.148V231.367H111.166V227.148H118.479ZM112.443 228.191V230.348H117.178V228.191H112.443ZM132.869 232.973V234.039H128.674V237.215H127.385V234.039H123.213V232.973H132.869ZM131.967 227.863V228.895H128.697C128.82 229.943 130.197 231.039 132.318 231.297L131.838 232.328C130.086 232.105 128.727 231.332 128.041 230.312C127.344 231.344 125.973 232.105 124.209 232.328L123.74 231.297C125.855 231.039 127.244 229.961 127.373 228.895H124.104V227.863H127.385V226.621H128.674V227.863H131.967ZM137.604 228.766C137.604 230.078 138.506 231.367 140.193 231.895L139.525 232.914C138.324 232.521 137.451 231.73 136.971 230.723C136.49 231.818 135.594 232.691 134.334 233.125L133.666 232.094C135.365 231.531 136.279 230.16 136.291 228.766V228.461H134.006V227.418H139.83V228.461H137.604V228.766ZM142.408 226.621V234.309H141.096V226.621H142.408ZM142.701 235.938V236.992H135.4V233.605H136.713V235.938H142.701ZM149.018 227.242V230.43H145.678V231.73C147.377 231.736 148.355 231.684 149.475 231.473L149.604 232.527C148.338 232.738 147.236 232.773 145.162 232.773H144.389V229.457H147.717V228.273H144.365V227.242H149.018ZM152.826 226.621V233.137H151.525V231.391H149.65V230.348H151.525V229.164H149.65V228.121H151.525V226.621H152.826ZM152.826 233.641V237.203H151.525V234.684H145.584V233.641H152.826ZM156.518 227.688L155.533 230.969H154.42L155.029 227.688H156.518ZM166.982 231.414V232.398H157.303V231.414H166.982ZM165.811 233.031V235.445H159.74V236.184H166.127V237.086H158.439V234.602H164.521V233.945H158.428V233.031H165.811ZM165.787 226.844V229.234H159.822V229.926H165.975V230.816H158.533V228.391H164.486V227.746H158.498V226.844H165.787ZM178.889 226.609V228.742H180.365V229.82H178.889V231.93H177.588V226.609H178.889ZM175.912 227.148V231.484H170.896V227.148H175.912ZM172.174 228.18V230.453H174.635V228.18H172.174ZM178.889 232.387V235.164H173.264V236.043H179.217V237.074H171.975V234.215H177.588V233.395H171.963V232.387H178.889ZM189.26 226.609V229.223H190.736V230.301H189.26V232.797H187.959V226.609H189.26ZM183.705 233.219V234.133H187.959V233.219H189.26V237.074H182.416V233.219H183.705ZM183.705 236.043H187.959V235.141H183.705V236.043ZM187.197 227.594V228.637H180.916V227.594H183.412V226.527H184.713V227.594H187.197ZM184.057 229C185.592 229 186.635 229.738 186.646 230.863C186.635 231.988 185.592 232.727 184.057 232.727C182.51 232.727 181.455 231.988 181.455 230.863C181.455 229.738 182.51 229 184.057 229ZM184.057 229.961C183.248 229.961 182.721 230.301 182.721 230.863C182.721 231.438 183.248 231.766 184.057 231.766C184.865 231.766 185.404 231.438 185.404 230.863C185.404 230.301 184.865 229.961 184.057 229.961ZM200.111 226.609V237.203H198.822V226.609H200.111ZM193.174 227.641V233.43C194.662 233.406 196.244 233.271 197.873 232.949L198.037 234.039C196.174 234.426 194.439 234.543 192.799 234.543H191.885V227.641H193.174ZM209.943 226.609V230.629H211.572V231.695H209.943V237.215H208.643V226.609H209.943ZM207.037 227.617V228.672H203.381V233.535C205.027 233.535 206.328 233.453 207.787 233.195L207.939 234.297C206.299 234.578 204.869 234.625 202.959 234.625H202.08V227.617H207.037ZM213.307 236.254C212.803 236.254 212.393 235.844 212.393 235.34C212.393 234.848 212.803 234.438 213.307 234.438C213.787 234.438 214.209 234.848 214.209 235.34C214.209 235.844 213.787 236.254 213.307 236.254Z" fill="#737373"/>
</g>
</g>
<defs>
<filter id="filter0_dd_16396_15017" x="17.7834" y="177.387" width="231.32" height="75.32" filterUnits="userSpaceOnUse" color-interpolation-filters="sRGB">
<feFlood flood-opacity="0" result="BackgroundImageFix"/>
<feColorMatrix in="SourceAlpha" type="matrix" values="0 0 0 0 0 0 0 0 0 0 0 0 0 0 0 0 0 0 127 0" result="hardAlpha"/>
<feOffset dy="0.886667"/>
<feGaussianBlur stdDeviation="0.886667"/>
<feColorMatrix type="matrix" values="0 0 0 0 0 0 0 0 0 0 0 0 0 0 0 0 0 0 0.06 0"/>
<feBlend mode="normal" in2="BackgroundImageFix" result="effect1_dropShadow_16396_15017"/>
<feColorMatrix in="SourceAlpha" type="matrix" values="0 0 0 0 0 0 0 0 0 0 0 0 0 0 0 0 0 0 127 0" result="hardAlpha"/>
<feOffset dy="0.886667"/>
<feGaussianBlur stdDeviation="1.33"/>
<feColorMatrix type="matrix" values="0 0 0 0 0 0 0 0 0 0 0 0 0 0 0 0 0 0 0.1 0"/>
<feBlend mode="normal" in2="effect1_dropShadow_16396_15017" result="effect2_dropShadow_16396_15017"/>
<feBlend mode="normal" in="SourceGraphic" in2="effect2_dropShadow_16396_15017" result="shape"/>
</filter>
<clipPath id="clip0_16396_15017">
<rect width="266" height="250" rx="14" fill="white"/>
</clipPath>
</defs>
</svg>
