<svg width="266" height="250" viewBox="0 0 266 250" fill="none" xmlns="http://www.w3.org/2000/svg">
<g clip-path="url(#clip0_16396_15021)">
<rect width="266" height="250" rx="14" fill="white"/>
<mask id="path-2-inside-1_16396_15021" fill="white">
<path d="M27.043 108.166C27.043 94.193 29.7951 80.3571 35.1422 67.4481C40.4893 54.5391 48.3267 42.8096 58.2068 32.9295C68.087 23.0493 79.8164 15.2119 92.7255 9.86484C105.635 4.51774 119.47 1.76562 133.443 1.76563C147.416 1.76563 161.251 4.51775 174.161 9.86485C187.07 15.212 198.799 23.0493 208.679 32.9295C218.559 42.8096 226.397 54.5391 231.744 67.4481C237.091 80.3572 239.843 94.193 239.843 108.166L154.723 108.166C154.723 105.371 154.173 102.604 153.103 100.022C152.034 97.4403 150.466 95.0944 148.49 93.1184C146.514 91.1424 144.168 89.5749 141.586 88.5055C139.005 87.4361 136.238 86.8856 133.443 86.8856C130.648 86.8856 127.881 87.4361 125.299 88.5055C122.718 89.5749 120.372 91.1424 118.396 93.1184C116.42 95.0944 114.852 97.4403 113.783 100.022C112.713 102.604 112.163 105.371 112.163 108.166L27.043 108.166Z"/>
</mask>
<path d="M27.043 108.166C27.043 94.193 29.7951 80.3571 35.1422 67.4481C40.4893 54.5391 48.3267 42.8096 58.2068 32.9295C68.087 23.0493 79.8164 15.2119 92.7255 9.86484C105.635 4.51774 119.47 1.76562 133.443 1.76563C147.416 1.76563 161.251 4.51775 174.161 9.86485C187.07 15.212 198.799 23.0493 208.679 32.9295C218.559 42.8096 226.397 54.5391 231.744 67.4481C237.091 80.3572 239.843 94.193 239.843 108.166L154.723 108.166C154.723 105.371 154.173 102.604 153.103 100.022C152.034 97.4403 150.466 95.0944 148.49 93.1184C146.514 91.1424 144.168 89.5749 141.586 88.5055C139.005 87.4361 136.238 86.8856 133.443 86.8856C130.648 86.8856 127.881 87.4361 125.299 88.5055C122.718 89.5749 120.372 91.1424 118.396 93.1184C116.42 95.0944 114.852 97.4403 113.783 100.022C112.713 102.604 112.163 105.371 112.163 108.166L27.043 108.166Z" stroke="#737373" stroke-width="0.308406" mask="url(#path-2-inside-1_16396_15021)"/>
<mask id="path-3-inside-2_16396_15021" fill="white">
<path d="M27.043 108.166C27.043 85.6961 34.1563 63.8034 47.3636 45.6253C60.5708 27.4471 79.1938 13.9166 100.564 6.9732C121.933 0.029759 144.953 0.0297656 166.322 6.97322C187.692 13.9167 206.315 27.4471 219.522 45.6253L150.659 95.6576C148.017 92.0219 144.293 89.3158 140.019 87.9271C135.745 86.5385 131.141 86.5385 126.867 87.9271C122.593 89.3158 118.869 92.0219 116.227 95.6576C113.586 99.2932 112.163 103.672 112.163 108.166L27.043 108.166Z"/>
</mask>
<path d="M27.043 108.166C27.043 85.6961 34.1563 63.8034 47.3636 45.6253C60.5708 27.4471 79.1938 13.9166 100.564 6.9732C121.933 0.029759 144.953 0.0297656 166.322 6.97322C187.692 13.9167 206.315 27.4471 219.522 45.6253L150.659 95.6576C148.017 92.0219 144.293 89.3158 140.019 87.9271C135.745 86.5385 131.141 86.5385 126.867 87.9271C122.593 89.3158 118.869 92.0219 116.227 95.6576C113.586 99.2932 112.163 103.672 112.163 108.166L27.043 108.166Z" stroke="#737373" stroke-width="0.308406" mask="url(#path-3-inside-2_16396_15021)"/>
<mask id="path-4-inside-3_16396_15021" fill="white">
<path d="M27.043 108.166C27.043 91.3746 31.0169 74.8219 38.6399 59.861C46.2628 44.9001 57.3184 31.9557 70.9026 22.0862C84.4869 12.2167 100.214 5.70228 116.798 3.07558C133.383 0.44889 150.353 1.7845 166.322 6.97322L140.019 87.9271C136.825 86.8894 133.431 86.6223 130.114 87.1476C126.797 87.673 123.652 88.9758 120.935 90.9497C118.218 92.9236 116.007 95.5125 114.482 98.5047C112.958 101.497 112.163 104.807 112.163 108.166L27.043 108.166Z"/>
</mask>
<path d="M27.043 108.166C27.043 91.3746 31.0169 74.8219 38.6399 59.861C46.2628 44.9001 57.3184 31.9557 70.9026 22.0862C84.4869 12.2167 100.214 5.70228 116.798 3.07558C133.383 0.44889 150.353 1.7845 166.322 6.97322L140.019 87.9271C136.825 86.8894 133.431 86.6223 130.114 87.1476C126.797 87.673 123.652 88.9758 120.935 90.9497C118.218 92.9236 116.007 95.5125 114.482 98.5047C112.958 101.497 112.163 104.807 112.163 108.166L27.043 108.166Z" stroke="#737373" stroke-width="0.308406" mask="url(#path-4-inside-3_16396_15021)"/>
<mask id="path-5-inside-4_16396_15021" fill="white">
<path d="M27.043 108.166C27.043 85.6962 34.1563 63.8035 47.3636 45.6253C60.5708 27.4471 79.1938 13.9167 100.564 6.97322L126.867 87.9271C122.593 89.3158 118.869 92.0219 116.227 95.6576C113.586 99.2932 112.163 103.672 112.163 108.166L27.043 108.166Z"/>
</mask>
<path d="M27.043 108.166C27.043 85.6962 34.1563 63.8035 47.3636 45.6253C60.5708 27.4471 79.1938 13.9167 100.564 6.97322L126.867 87.9271C122.593 89.3158 118.869 92.0219 116.227 95.6576C113.586 99.2932 112.163 103.672 112.163 108.166L27.043 108.166Z" stroke="#737373" stroke-width="0.308406" mask="url(#path-5-inside-4_16396_15021)"/>
<mask id="path-6-inside-5_16396_15021" fill="white">
<path d="M27.043 108.166C27.043 85.6961 34.1563 63.8035 47.3636 45.6253L116.227 95.6576C113.586 99.2932 112.163 103.672 112.163 108.166L27.043 108.166Z"/>
</mask>
<path d="M27.043 108.166C27.043 85.6961 34.1563 63.8035 47.3636 45.6253L116.227 95.6576C113.586 99.2932 112.163 103.672 112.163 108.166L27.043 108.166Z" stroke="#737373" stroke-width="0.308406" mask="url(#path-6-inside-5_16396_15021)"/>
<mask id="path-7-inside-6_16396_15021" fill="white">
<path d="M27.043 108.166C27.043 94.193 29.7951 80.3571 35.1422 67.4481C40.4893 54.5391 48.3267 42.8096 58.2068 32.9295C68.087 23.0493 79.8164 15.2119 92.7255 9.86484C105.635 4.51774 119.47 1.76562 133.443 1.76563C147.416 1.76563 161.251 4.51775 174.161 9.86485C187.07 15.212 198.799 23.0493 208.679 32.9295C218.559 42.8096 226.397 54.5391 231.744 67.4481C237.091 80.3572 239.843 94.193 239.843 108.166H216.435C216.435 97.267 214.288 86.475 210.118 76.406C205.947 66.3369 199.834 57.188 192.127 49.4814C184.421 41.7749 175.272 35.6618 165.203 31.491C155.134 27.3203 144.342 25.1736 133.443 25.1736C122.544 25.1736 111.752 27.3203 101.683 31.491C91.6143 35.6618 82.4653 41.7749 74.7588 49.4814C67.0523 57.1879 60.9391 66.3369 56.7684 76.406C52.5976 86.475 50.451 97.267 50.451 108.166H27.043Z"/>
</mask>
<path d="M27.043 108.166C27.043 94.193 29.7951 80.3571 35.1422 67.4481C40.4893 54.5391 48.3267 42.8096 58.2068 32.9295C68.087 23.0493 79.8164 15.2119 92.7255 9.86484C105.635 4.51774 119.47 1.76562 133.443 1.76563C147.416 1.76563 161.251 4.51775 174.161 9.86485C187.07 15.212 198.799 23.0493 208.679 32.9295C218.559 42.8096 226.397 54.5391 231.744 67.4481C237.091 80.3572 239.843 94.193 239.843 108.166H216.435C216.435 97.267 214.288 86.475 210.118 76.406C205.947 66.3369 199.834 57.188 192.127 49.4814C184.421 41.7749 175.272 35.6618 165.203 31.491C155.134 27.3203 144.342 25.1736 133.443 25.1736C122.544 25.1736 111.752 27.3203 101.683 31.491C91.6143 35.6618 82.4653 41.7749 74.7588 49.4814C67.0523 57.1879 60.9391 66.3369 56.7684 76.406C52.5976 86.475 50.451 97.267 50.451 108.166H27.043Z" fill="#A23F00" stroke="white" stroke-width="1.41867" mask="url(#path-7-inside-6_16396_15021)"/>
<mask id="path-8-inside-7_16396_15021" fill="white">
<path d="M27.043 108.166C27.043 85.6961 34.1563 63.8034 47.3636 45.6253C60.5708 27.4471 79.1938 13.9166 100.564 6.9732C121.933 0.029759 144.953 0.0297656 166.322 6.97322C187.692 13.9167 206.315 27.4471 219.522 45.6253L200.585 59.3842C190.283 45.2052 175.757 34.6515 159.089 29.2356C142.421 23.8197 124.465 23.8197 107.797 29.2355C91.1287 34.6514 76.6027 45.2052 66.301 59.3841C55.9994 73.5631 50.451 90.6394 50.451 108.166H27.043Z"/>
</mask>
<path d="M27.043 108.166C27.043 85.6961 34.1563 63.8034 47.3636 45.6253C60.5708 27.4471 79.1938 13.9166 100.564 6.9732C121.933 0.029759 144.953 0.0297656 166.322 6.97322C187.692 13.9167 206.315 27.4471 219.522 45.6253L200.585 59.3842C190.283 45.2052 175.757 34.6515 159.089 29.2356C142.421 23.8197 124.465 23.8197 107.797 29.2355C91.1287 34.6514 76.6027 45.2052 66.301 59.3841C55.9994 73.5631 50.451 90.6394 50.451 108.166H27.043Z" fill="#E05600" stroke="white" stroke-width="1.41867" mask="url(#path-8-inside-7_16396_15021)"/>
<mask id="path-9-inside-8_16396_15021" fill="white">
<path d="M27.043 108.166C27.043 91.3746 31.0169 74.8219 38.6399 59.861C46.2628 44.9001 57.3184 31.9557 70.9026 22.0862C84.4869 12.2167 100.214 5.70228 116.798 3.07558C133.383 0.44889 150.353 1.7845 166.322 6.97322L159.089 29.2355C146.633 25.1884 133.396 24.1466 120.46 26.1954C107.524 28.2442 95.2572 33.3255 84.6615 41.0237C74.0658 48.7219 65.4425 58.8185 59.4966 70.488C53.5506 82.1576 50.451 95.0686 50.451 108.166H27.043Z"/>
</mask>
<path d="M27.043 108.166C27.043 91.3746 31.0169 74.8219 38.6399 59.861C46.2628 44.9001 57.3184 31.9557 70.9026 22.0862C84.4869 12.2167 100.214 5.70228 116.798 3.07558C133.383 0.44889 150.353 1.7845 166.322 6.97322L159.089 29.2355C146.633 25.1884 133.396 24.1466 120.46 26.1954C107.524 28.2442 95.2572 33.3255 84.6615 41.0237C74.0658 48.7219 65.4425 58.8185 59.4966 70.488C53.5506 82.1576 50.451 95.0686 50.451 108.166H27.043Z" fill="#FF6000" stroke="white" stroke-width="1.41867" mask="url(#path-9-inside-8_16396_15021)"/>
<mask id="path-10-inside-9_16396_15021" fill="white">
<path d="M27.043 108.166C27.043 85.6962 34.1563 63.8035 47.3636 45.6253C60.5708 27.4471 79.1938 13.9167 100.564 6.97322L107.797 29.2355C91.1286 34.6514 76.6027 45.2052 66.301 59.3842C55.9994 73.5631 50.451 90.6394 50.451 108.166H27.043Z"/>
</mask>
<path d="M27.043 108.166C27.043 85.6962 34.1563 63.8035 47.3636 45.6253C60.5708 27.4471 79.1938 13.9167 100.564 6.97322L107.797 29.2355C91.1286 34.6514 76.6027 45.2052 66.301 59.3842C55.9994 73.5631 50.451 90.6394 50.451 108.166H27.043Z" fill="#FF8032" stroke="white" stroke-width="1.41867" mask="url(#path-10-inside-9_16396_15021)"/>
<path d="M27.043 108.166C27.043 85.6961 34.1563 63.8035 47.3636 45.6253L66.301 59.3841C55.9994 73.5631 50.451 90.6394 50.451 108.166H27.043Z" fill="#FEA770" stroke="white" stroke-width="0.709333" stroke-linejoin="round"/>
<path d="M83.3281 108.167C83.3281 94.8751 88.6082 82.128 98.0067 72.7294C107.405 63.3308 120.152 58.0508 133.444 58.0508C146.736 58.0508 159.483 63.3308 168.881 72.7294C178.28 82.128 183.56 94.8751 183.56 108.167L83.3281 108.167Z" fill="#E5E5E5"/>
<path d="M133.477 78.7285C135.974 78.7286 138.092 79.4378 139.594 80.6943C141.102 81.956 141.962 83.7488 141.962 85.8428C141.962 88.6076 140.573 90.8441 135.925 95.0557L133.161 97.7432H142.273V102.495H125.244L125.24 102.056L125.209 98.6582L125.207 98.4609L125.353 98.3281L133.45 90.8838C135.598 88.831 136.556 87.7116 136.556 86.1543C136.556 85.2781 136.224 84.591 135.686 84.1182C135.141 83.6403 134.355 83.3555 133.414 83.3555C132.449 83.3555 131.696 83.6592 131.186 84.166C130.676 84.6723 130.366 85.4242 130.366 86.4033V86.8467H125.024L125.021 86.4072C125.005 84.0769 125.863 82.1431 127.376 80.7969C128.884 79.4557 131.007 78.7285 133.477 78.7285Z" fill="#FF6000" stroke="white" stroke-width="0.886667"/>
<path d="M154.002 68.3994L154.763 68.751L154.853 68.792L154.802 68.877L151.44 74.5176L151.399 74.5859L151.327 74.5527L150.565 74.2012L150.476 74.1602L150.526 74.0752L153.889 68.4346L153.929 68.3662L154.002 68.3994ZM113.018 67.9766L116.169 73.7109L116.217 73.7969L116.126 73.835L115.352 74.1641L115.278 74.1953L115.239 74.125L112.088 68.3916L112.041 68.3057L112.131 68.2666L112.905 67.9375L112.979 67.9062L113.018 67.9766ZM141.574 68.7822C142.034 67.3253 143.333 66.5433 144.807 66.9033C145.37 67.0409 145.909 67.3362 146.237 67.8252C146.568 68.3176 146.675 68.9924 146.399 69.8643L146.304 70.1689L146.278 70.248L146.198 70.2285L142.488 69.3213C142.386 69.7581 142.443 70.1218 142.618 70.4033C142.805 70.7033 143.135 70.923 143.586 71.0332C144.189 71.1806 144.629 71.0421 144.888 70.8223L144.922 70.793L144.966 70.8037L145.853 71.0205L145.982 71.0527L145.902 71.1592C145.405 71.8298 144.444 72.119 143.341 71.8496C142.566 71.6604 142.005 71.2636 141.698 70.7227C141.391 70.1815 141.345 69.5084 141.574 68.7822ZM122.257 66.6201C122.825 66.4987 123.457 66.5266 124.01 66.8105C124.565 67.0959 125.032 67.6349 125.274 68.5146L125.359 68.8223L125.384 68.9131L125.292 68.9326L121.562 69.7285C121.716 70.148 121.966 70.4416 122.277 70.6133C122.612 70.7976 123.025 70.8471 123.479 70.75C124.088 70.6199 124.39 70.3124 124.492 70.0166L124.508 69.9688L124.557 69.958L125.451 69.7676L125.567 69.7422L125.558 69.8613C125.494 70.6689 124.806 71.3359 123.695 71.5732C122.914 71.7401 122.208 71.6327 121.645 71.2949C121.082 70.9572 120.67 70.3934 120.468 69.6611C120.266 68.9285 120.336 68.2467 120.65 67.707C120.965 67.167 121.517 66.7782 122.257 66.6201ZM130.922 65.5166L131.861 65.5303L131.923 65.5312L131.943 65.5879L133.302 69.2646L134.798 65.6289L134.82 65.5723L134.881 65.5732L135.821 65.5869L135.955 65.5889L135.9 65.7119L133.803 70.459L133.779 70.5127L133.72 70.5117L132.83 70.499L132.771 70.498L132.749 70.4434L130.838 65.6387L130.789 65.5146L130.922 65.5166ZM144.562 67.7197C143.742 67.5195 143.039 67.928 142.751 68.5371L145.512 69.2109C145.598 68.876 145.561 68.5638 145.415 68.3096C145.257 68.0352 144.97 67.8197 144.562 67.7197ZM124.141 68.335C123.909 67.6603 123.259 67.2758 122.474 67.4434C121.646 67.6202 121.265 68.2775 121.355 68.9307L124.141 68.335Z" fill="#FF6000" stroke="#FF6000" stroke-width="0.177333"/>
<path d="M87.5491 46.3334C87.4889 45.7907 88.0387 45.3863 88.5389 45.6055L107.387 53.8665C107.887 54.0857 107.962 54.7641 107.523 55.0876L90.9442 67.2801C90.5043 67.6036 89.8792 67.3297 89.819 66.7869L87.5491 46.3334Z" fill="#FF6000"/>
<path d="M37.4619 78.5635L48.3613 81.4844L48.7041 81.5762L48.6123 81.9189L48.0029 84.1924L47.9111 84.5342L47.5684 84.4424L39.4023 82.2539L40.1328 84.6309L40.3203 85.2441L39.7012 85.0781L37.6992 84.541L37.5117 84.4912L37.4531 84.3057L36.459 81.1504L36.4277 81.0518L36.4541 80.9521L37.0273 78.8145L37.1191 78.4717L37.4619 78.5635Z" fill="white" stroke="#E05600" stroke-width="0.709333"/>
<path d="M75.124 26.2412C76.1462 26.2783 77.073 26.7419 77.7393 27.5996C78.6255 28.7408 78.7509 30.1035 78.207 33.1934L77.9863 34.7725L81.1504 32.3154L81.4307 32.0977L81.6484 32.3779L82.834 33.9043L83.0518 34.1846L82.7715 34.4023L76.3955 39.3545L76.1182 39.5703L75.8994 39.2949L74.8447 37.9629L74.7471 37.8389L74.7734 37.6836L75.6885 32.2559C75.9076 30.7798 75.9259 30.106 75.4893 29.5439C75.2428 29.2268 74.9357 29.0767 74.6182 29.0576C74.2945 29.0382 73.9278 29.1534 73.5771 29.4258C73.2186 29.7043 73.0368 30.0254 72.9961 30.3408C72.9555 30.6559 73.0493 31.0139 73.332 31.3779L73.5498 31.6582L73.2695 31.875L71.5098 33.2422L71.2314 33.459L71.0137 33.1816C70.2707 32.2389 70.0031 31.1741 70.1953 30.1377C70.3865 29.1073 71.0243 28.1422 72.0195 27.3691C73.0247 26.5884 74.1083 26.2045 75.124 26.2412Z" fill="white" stroke="#E05600" stroke-width="0.709333"/>
<path d="M133.343 7.61816C135.823 7.61821 137.623 9.10102 137.609 11.1475L137.601 11.418C137.525 12.3698 136.984 13.1109 136.197 13.5371C136.624 13.7057 136.989 13.9411 137.279 14.2441C137.783 14.7709 138.037 15.4653 138.03 16.2461L138.025 16.4512C137.916 18.5526 135.866 19.9228 133.312 19.9229C130.721 19.9229 128.708 18.4687 128.655 16.2412L128.646 15.8789H131.714L131.733 16.2139C131.765 16.784 132.328 17.2812 133.327 17.2812C134.336 17.2812 134.901 16.7288 134.89 16.0986V16.0869C134.895 15.7469 134.75 15.4583 134.466 15.2441C134.173 15.0239 133.716 14.873 133.108 14.873H131.71V12.4336H133.108C133.6 12.4336 133.989 12.2993 134.247 12.0957C134.499 11.8968 134.64 11.6226 134.64 11.292C134.64 10.9593 134.516 10.6958 134.308 10.5117C134.096 10.3245 133.772 10.1973 133.343 10.1973C132.444 10.1973 131.864 10.688 131.843 11.2744L131.83 11.6162H128.883L128.889 11.2559C128.924 9.0459 130.918 7.61816 133.343 7.61816Z" fill="white" stroke="#E05600" stroke-width="0.709333"/>
<path d="M193.454 26.3047L195.856 28.0098L196.146 28.2148L195.939 28.5039L191.858 34.252L192.739 34.877L193.029 35.082L192.823 35.3711L191.731 36.9092L191.526 37.1982L191.237 36.9932L190.356 36.3682L189.407 37.7061L189.202 37.9951L188.913 37.7891L187.096 36.499L186.807 36.2939L187.012 36.0049L187.961 34.666L183.777 31.6963L183.488 31.4912L183.693 31.2021L184.767 29.6895L184.827 29.6055L184.924 29.5664L193.116 26.2646L193.296 26.1924L193.454 26.3047ZM187.69 31.293L189.489 32.5693L191.479 29.7656L187.69 31.293Z" fill="white" stroke="#E05600" stroke-width="0.709333"/>
<path d="M229.099 75.1367L231.012 81.8193L231.109 82.1611L230.769 82.2578L228.925 82.7861L228.584 82.8838L228.486 82.542L227.192 78.0234L225.496 78.3145C225.954 78.7199 226.322 79.3125 226.521 80.0088C227.147 82.1955 225.972 84.2958 223.707 84.9443C222.523 85.2833 221.36 85.127 220.398 84.543C219.439 83.9602 218.703 82.9667 218.332 81.6719C217.649 79.2856 218.542 77.0182 220.642 76.3623L220.988 76.2539L221.088 76.6025L221.714 78.791L221.807 79.1143L221.488 79.2236C220.881 79.4327 220.561 80.1409 220.797 80.9658C220.934 81.4452 221.214 81.788 221.561 81.9805C221.907 82.1729 222.346 82.229 222.825 82.0918C223.32 81.9502 223.668 81.6644 223.864 81.3105C224.06 80.9571 224.119 80.5102 223.987 80.0205L223.902 79.7695C223.686 79.2219 223.335 78.9287 222.85 78.8232L222.643 78.7783L222.584 78.5742L222.001 76.5361L221.894 76.1621L222.276 76.0898L228.692 74.8857L229.01 74.8262L229.099 75.1367Z" fill="white" stroke="#E05600" stroke-width="0.709333"/>
<mask id="path-21-outside-10_16396_15021" maskUnits="userSpaceOnUse" x="40.1172" y="124.898" width="185" height="25" fill="black">
<rect fill="white" x="40.1172" y="124.898" width="185" height="25"/>
<path d="M48.561 148.625L42.1172 127.116H47.2225L51.0203 142.149H51.2071L55.3473 127.116H59.7366L63.8769 142.178H64.0636L67.8615 127.116H72.9667L66.5229 148.625H61.9468L57.6509 134.425H57.4641L53.1371 148.625H48.561Z"/>
<path d="M81.0293 148.952C75.924 148.952 72.7488 145.595 72.7488 140.604C72.7488 135.613 75.924 132.286 81.0293 132.286C86.1346 132.286 89.341 135.613 89.341 140.604C89.341 145.595 86.1346 148.952 81.0293 148.952ZM81.0604 145.535C83.4263 145.535 84.6404 143.426 84.6404 140.604C84.6404 137.752 83.4263 135.643 81.0604 135.643C78.6635 135.643 77.4183 137.752 77.4183 140.604C77.4183 143.426 78.6635 145.535 81.0604 145.535Z"/>
<path d="M92.236 148.625V132.494H96.6876V135.286H96.8743C97.4969 133.296 99.0534 132.256 100.952 132.256C101.419 132.256 102.011 132.315 102.415 132.404V136.326C101.98 136.207 101.108 136.088 100.454 136.088C98.3686 136.088 96.8432 137.485 96.8432 139.445V148.625H92.236Z"/>
<path d="M104.657 148.625V127.116H109.264V138.673H109.513L114.992 132.494H120.284L113.996 139.475L120.626 148.625H115.21L110.571 142.06L109.264 143.456V148.625H104.657Z"/>
<path d="M137.81 148.625H129.872V127.116H137.903C144.69 127.116 148.83 131.157 148.83 137.841C148.83 144.585 144.69 148.625 137.81 148.625ZM134.541 144.793H137.623C141.919 144.793 144.16 142.654 144.16 137.841C144.16 133.058 141.919 130.949 137.654 130.949H134.541V144.793Z"/>
<path d="M152.13 148.625V132.494H156.581V135.286H156.768C157.39 133.296 158.947 132.256 160.846 132.256C161.313 132.256 161.904 132.315 162.309 132.404V136.326C161.873 136.207 161.002 136.088 160.348 136.088C158.262 136.088 156.737 137.485 156.737 139.445V148.625H152.13Z"/>
<path d="M164.55 148.625V132.494H169.158V148.625H164.55ZM166.854 130.384C165.453 130.384 164.332 129.374 164.332 128.156C164.332 126.909 165.453 125.898 166.854 125.898C168.224 125.898 169.344 126.909 169.344 128.156C169.344 129.374 168.224 130.384 166.854 130.384Z"/>
<path d="M188.427 132.494L182.481 148.625H177.313L171.399 132.494H176.255L179.804 144.08H179.991L183.539 132.494H188.427Z"/>
<path d="M197.766 148.952C192.598 148.952 189.423 145.743 189.423 140.634C189.423 135.643 192.629 132.286 197.579 132.286C202.03 132.286 205.517 134.959 205.517 140.455V141.703H193.968C193.968 144.139 195.493 145.654 197.859 145.654C199.416 145.654 200.536 145.001 201.003 144.02H205.392C204.739 146.991 201.937 148.952 197.766 148.952ZM193.968 138.94H201.159C201.159 136.979 199.727 135.583 197.672 135.583C195.556 135.583 194.046 137.083 193.968 138.94Z"/>
<path d="M213.019 139.297V148.625H208.412V132.494H212.801V135.316H212.988C213.766 133.444 215.572 132.286 218.062 132.286C221.58 132.286 223.915 134.573 223.884 138.346V148.625H219.307V139.118C219.307 137.128 218.156 135.94 216.257 135.94C214.327 135.94 213.019 137.158 213.019 139.297Z"/>
</mask>
<path d="M48.561 148.625L42.1172 127.116H47.2225L51.0203 142.149H51.2071L55.3473 127.116H59.7366L63.8769 142.178H64.0636L67.8615 127.116H72.9667L66.5229 148.625H61.9468L57.6509 134.425H57.4641L53.1371 148.625H48.561Z" fill="#291000"/>
<path d="M81.0293 148.952C75.924 148.952 72.7488 145.595 72.7488 140.604C72.7488 135.613 75.924 132.286 81.0293 132.286C86.1346 132.286 89.341 135.613 89.341 140.604C89.341 145.595 86.1346 148.952 81.0293 148.952ZM81.0604 145.535C83.4263 145.535 84.6404 143.426 84.6404 140.604C84.6404 137.752 83.4263 135.643 81.0604 135.643C78.6635 135.643 77.4183 137.752 77.4183 140.604C77.4183 143.426 78.6635 145.535 81.0604 145.535Z" fill="#291000"/>
<path d="M92.236 148.625V132.494H96.6876V135.286H96.8743C97.4969 133.296 99.0534 132.256 100.952 132.256C101.419 132.256 102.011 132.315 102.415 132.404V136.326C101.98 136.207 101.108 136.088 100.454 136.088C98.3686 136.088 96.8432 137.485 96.8432 139.445V148.625H92.236Z" fill="#291000"/>
<path d="M104.657 148.625V127.116H109.264V138.673H109.513L114.992 132.494H120.284L113.996 139.475L120.626 148.625H115.21L110.571 142.06L109.264 143.456V148.625H104.657Z" fill="#291000"/>
<path d="M137.81 148.625H129.872V127.116H137.903C144.69 127.116 148.83 131.157 148.83 137.841C148.83 144.585 144.69 148.625 137.81 148.625ZM134.541 144.793H137.623C141.919 144.793 144.16 142.654 144.16 137.841C144.16 133.058 141.919 130.949 137.654 130.949H134.541V144.793Z" fill="#291000"/>
<path d="M152.13 148.625V132.494H156.581V135.286H156.768C157.39 133.296 158.947 132.256 160.846 132.256C161.313 132.256 161.904 132.315 162.309 132.404V136.326C161.873 136.207 161.002 136.088 160.348 136.088C158.262 136.088 156.737 137.485 156.737 139.445V148.625H152.13Z" fill="#291000"/>
<path d="M164.55 148.625V132.494H169.158V148.625H164.55ZM166.854 130.384C165.453 130.384 164.332 129.374 164.332 128.156C164.332 126.909 165.453 125.898 166.854 125.898C168.224 125.898 169.344 126.909 169.344 128.156C169.344 129.374 168.224 130.384 166.854 130.384Z" fill="#291000"/>
<path d="M188.427 132.494L182.481 148.625H177.313L171.399 132.494H176.255L179.804 144.08H179.991L183.539 132.494H188.427Z" fill="#291000"/>
<path d="M197.766 148.952C192.598 148.952 189.423 145.743 189.423 140.634C189.423 135.643 192.629 132.286 197.579 132.286C202.03 132.286 205.517 134.959 205.517 140.455V141.703H193.968C193.968 144.139 195.493 145.654 197.859 145.654C199.416 145.654 200.536 145.001 201.003 144.02H205.392C204.739 146.991 201.937 148.952 197.766 148.952ZM193.968 138.94H201.159C201.159 136.979 199.727 135.583 197.672 135.583C195.556 135.583 194.046 137.083 193.968 138.94Z" fill="#291000"/>
<path d="M213.019 139.297V148.625H208.412V132.494H212.801V135.316H212.988C213.766 133.444 215.572 132.286 218.062 132.286C221.58 132.286 223.915 134.573 223.884 138.346V148.625H219.307V139.118C219.307 137.128 218.156 135.94 216.257 135.94C214.327 135.94 213.019 137.158 213.019 139.297Z" fill="#291000"/>
<path d="M48.561 148.625L42.1172 127.116H47.2225L51.0203 142.149H51.2071L55.3473 127.116H59.7366L63.8769 142.178H64.0636L67.8615 127.116H72.9667L66.5229 148.625H61.9468L57.6509 134.425H57.4641L53.1371 148.625H48.561Z" stroke="white" stroke-width="1.77333" mask="url(#path-21-outside-10_16396_15021)"/>
<path d="M81.0293 148.952C75.924 148.952 72.7488 145.595 72.7488 140.604C72.7488 135.613 75.924 132.286 81.0293 132.286C86.1346 132.286 89.341 135.613 89.341 140.604C89.341 145.595 86.1346 148.952 81.0293 148.952ZM81.0604 145.535C83.4263 145.535 84.6404 143.426 84.6404 140.604C84.6404 137.752 83.4263 135.643 81.0604 135.643C78.6635 135.643 77.4183 137.752 77.4183 140.604C77.4183 143.426 78.6635 145.535 81.0604 145.535Z" stroke="white" stroke-width="1.77333" mask="url(#path-21-outside-10_16396_15021)"/>
<path d="M92.236 148.625V132.494H96.6876V135.286H96.8743C97.4969 133.296 99.0534 132.256 100.952 132.256C101.419 132.256 102.011 132.315 102.415 132.404V136.326C101.98 136.207 101.108 136.088 100.454 136.088C98.3686 136.088 96.8432 137.485 96.8432 139.445V148.625H92.236Z" stroke="white" stroke-width="1.77333" mask="url(#path-21-outside-10_16396_15021)"/>
<path d="M104.657 148.625V127.116H109.264V138.673H109.513L114.992 132.494H120.284L113.996 139.475L120.626 148.625H115.21L110.571 142.06L109.264 143.456V148.625H104.657Z" stroke="white" stroke-width="1.77333" mask="url(#path-21-outside-10_16396_15021)"/>
<path d="M137.81 148.625H129.872V127.116H137.903C144.69 127.116 148.83 131.157 148.83 137.841C148.83 144.585 144.69 148.625 137.81 148.625ZM134.541 144.793H137.623C141.919 144.793 144.16 142.654 144.16 137.841C144.16 133.058 141.919 130.949 137.654 130.949H134.541V144.793Z" stroke="white" stroke-width="1.77333" mask="url(#path-21-outside-10_16396_15021)"/>
<path d="M152.13 148.625V132.494H156.581V135.286H156.768C157.39 133.296 158.947 132.256 160.846 132.256C161.313 132.256 161.904 132.315 162.309 132.404V136.326C161.873 136.207 161.002 136.088 160.348 136.088C158.262 136.088 156.737 137.485 156.737 139.445V148.625H152.13Z" stroke="white" stroke-width="1.77333" mask="url(#path-21-outside-10_16396_15021)"/>
<path d="M164.55 148.625V132.494H169.158V148.625H164.55ZM166.854 130.384C165.453 130.384 164.332 129.374 164.332 128.156C164.332 126.909 165.453 125.898 166.854 125.898C168.224 125.898 169.344 126.909 169.344 128.156C169.344 129.374 168.224 130.384 166.854 130.384Z" stroke="white" stroke-width="1.77333" mask="url(#path-21-outside-10_16396_15021)"/>
<path d="M188.427 132.494L182.481 148.625H177.313L171.399 132.494H176.255L179.804 144.08H179.991L183.539 132.494H188.427Z" stroke="white" stroke-width="1.77333" mask="url(#path-21-outside-10_16396_15021)"/>
<path d="M197.766 148.952C192.598 148.952 189.423 145.743 189.423 140.634C189.423 135.643 192.629 132.286 197.579 132.286C202.03 132.286 205.517 134.959 205.517 140.455V141.703H193.968C193.968 144.139 195.493 145.654 197.859 145.654C199.416 145.654 200.536 145.001 201.003 144.02H205.392C204.739 146.991 201.937 148.952 197.766 148.952ZM193.968 138.94H201.159C201.159 136.979 199.727 135.583 197.672 135.583C195.556 135.583 194.046 137.083 193.968 138.94Z" stroke="white" stroke-width="1.77333" mask="url(#path-21-outside-10_16396_15021)"/>
<path d="M213.019 139.297V148.625H208.412V132.494H212.801V135.316H212.988C213.766 133.444 215.572 132.286 218.062 132.286C221.58 132.286 223.915 134.573 223.884 138.346V148.625H219.307V139.118C219.307 137.128 218.156 135.94 216.257 135.94C214.327 135.94 213.019 137.158 213.019 139.297Z" stroke="white" stroke-width="1.77333" mask="url(#path-21-outside-10_16396_15021)"/>
<g filter="url(#filter0_dd_16396_15021)">
<rect x="20.4434" y="179.16" width="226" height="70" rx="7.09333" fill="white"/>
<path d="M42.998 200.16L40.6074 191.676H42.248L43.7832 197.922H43.8652L45.4941 191.676H46.9941L48.6348 197.934H48.7051L50.2402 191.676H51.8809L49.4902 200.16H47.9785L46.2793 194.195H46.2207L44.5098 200.16H42.998ZM54.9043 200.289C53.0527 200.289 51.8574 198.977 51.8574 197.008C51.8574 195.027 53.0527 193.715 54.9043 193.715C56.7676 193.715 57.9512 195.027 57.9512 197.008C57.9512 198.977 56.7676 200.289 54.9043 200.289ZM54.916 199.094C55.9355 199.094 56.4395 198.168 56.4395 196.996C56.4395 195.836 55.9355 194.898 54.916 194.898C53.873 194.898 53.3691 195.836 53.3691 196.996C53.3691 198.168 53.873 199.094 54.916 199.094ZM59.1113 200.16V193.797H60.5645V194.852H60.6348C60.8574 194.125 61.4785 193.703 62.2051 193.703C62.3691 193.703 62.6035 193.715 62.7441 193.738V195.121C62.6152 195.074 62.2988 195.027 62.0527 195.027C61.2207 195.027 60.6113 195.602 60.6113 196.41V200.16H59.1113ZM63.6348 200.16V191.676H65.1348V196.352H65.2402L67.5254 193.797H69.2715L66.8105 196.539L69.4238 200.16H67.6426L65.6855 197.43L65.1348 198.016V200.16H63.6348ZM75.9629 200.16H73.0801V191.676H76.0098C78.541 191.676 80.0762 193.27 80.0762 195.906C80.0762 198.555 78.541 200.16 75.9629 200.16ZM74.6035 198.836H75.8809C77.6504 198.836 78.5527 197.863 78.5527 195.906C78.5527 193.961 77.6504 193 75.9277 193H74.6035V198.836ZM81.3535 200.16V193.797H82.8066V194.852H82.877C83.0996 194.125 83.7207 193.703 84.4473 193.703C84.6113 193.703 84.8457 193.715 84.9863 193.738V195.121C84.8574 195.074 84.541 195.027 84.2949 195.027C83.4629 195.027 82.8535 195.602 82.8535 196.41V200.16H81.3535ZM85.877 200.16V193.797H87.377V200.16H85.877ZM86.6387 192.895C86.1699 192.895 85.7715 192.531 85.7715 192.074C85.7715 191.629 86.1699 191.266 86.6387 191.266C87.1191 191.266 87.5059 191.629 87.5059 192.074C87.5059 192.531 87.1191 192.895 86.6387 192.895ZM94.4902 193.797L92.2168 200.16H90.5762L88.3027 193.797H89.8965L91.3613 198.531H91.4316L92.9082 193.797H94.4902ZM98.0293 200.289C96.1074 200.289 94.9355 199.012 94.9355 197.02C94.9355 195.051 96.1309 193.715 97.9473 193.715C99.5059 193.715 100.854 194.688 100.854 196.926V197.395H96.4121C96.4297 198.479 97.0684 199.117 98.041 199.117C98.6973 199.117 99.1426 198.836 99.3301 198.461H100.795C100.525 199.562 99.5059 200.289 98.0293 200.289ZM96.4238 196.375H99.4238C99.4121 195.508 98.8379 194.875 97.9707 194.875C97.0684 194.875 96.4707 195.561 96.4238 196.375ZM103.514 196.434V200.16H102.014V193.797H103.443V194.875H103.525C103.818 194.16 104.463 193.715 105.412 193.715C106.736 193.715 107.604 194.582 107.592 196.105V200.16H106.104V196.34C106.104 195.484 105.646 194.98 104.861 194.98C104.064 194.98 103.514 195.508 103.514 196.434ZM117.471 190.609V201.215H116.158V190.609H117.471ZM111.764 191.383C113.357 191.383 114.518 192.836 114.529 195.121C114.518 197.43 113.357 198.871 111.764 198.871C110.158 198.871 108.998 197.43 108.998 195.121C108.998 192.836 110.158 191.383 111.764 191.383ZM111.764 192.555C110.861 192.555 110.252 193.504 110.252 195.121C110.252 196.75 110.861 197.699 111.764 197.699C112.654 197.699 113.264 196.75 113.264 195.121C113.264 193.504 112.654 192.555 111.764 192.555ZM127.385 190.621V193.738H128.873V194.828H127.385V198.414H126.084V190.621H127.385ZM127.818 199.938V200.992H120.646V197.793H121.971V199.938H127.818ZM124.268 191.277V194.5H120.74V195.801C122.539 195.789 123.77 195.713 125.217 195.461L125.357 196.527C123.775 196.809 122.404 196.855 120.307 196.855H119.439V193.516H122.99V192.344H119.428V191.277H124.268ZM131.463 199.328L130.479 202.609H129.365L129.975 199.328H131.463ZM143.732 191.043V194.723H140.779V195.836H144.963V196.891H135.307V195.836H139.467V194.723H136.525V191.043H143.732ZM137.791 192.062V193.691H142.443V192.062H137.791ZM143.779 197.781V201.203H142.479V198.812H136.373V197.781H143.779ZM155.357 198.93V199.984H145.678V198.93H148.186V196.75H146.51V195.695H147.998V192.555H146.475V191.512H154.514V192.555H152.967V195.695H154.479V196.75H152.803V198.93H155.357ZM149.299 195.695H151.678V192.555H149.299V195.695ZM149.486 198.93H151.502V196.75H149.486V198.93ZM165.717 195.414V196.398H156.037V195.414H165.717ZM164.545 197.031V199.445H158.475V200.184H164.861V201.086H157.174V198.602H163.256V197.945H157.162V197.031H164.545ZM164.521 190.844V193.234H158.557V193.926H164.709V194.816H157.268V192.391H163.221V191.746H157.232V190.844H164.521ZM179.064 192.262V193.328H177.623V194.535H179.064V195.602H177.623V197.371H176.322V190.609H177.623V192.262H179.064ZM174.201 197.465C176.369 197.465 177.74 198.156 177.74 199.328C177.74 200.488 176.369 201.191 174.201 201.191C171.998 201.191 170.65 200.488 170.662 199.328C170.65 198.156 171.998 197.465 174.201 197.465ZM174.201 198.461C172.748 198.461 171.939 198.742 171.951 199.328C171.939 199.891 172.748 200.207 174.201 200.207C175.631 200.207 176.439 199.891 176.439 199.328C176.439 198.742 175.631 198.461 174.201 198.461ZM175.561 191.688V192.707H169.279V191.688H171.775V190.539H173.076V191.688H175.561ZM172.42 193.129C173.955 193.129 174.998 193.891 175.01 195.027C174.998 196.164 173.955 196.914 172.42 196.914C170.873 196.914 169.818 196.164 169.818 195.027C169.818 193.891 170.873 193.129 172.42 193.129ZM172.42 194.09C171.611 194.09 171.084 194.441 171.084 195.027C171.084 195.602 171.611 195.93 172.42 195.93C173.229 195.93 173.768 195.602 173.768 195.027C173.768 194.441 173.229 194.09 172.42 194.09ZM184.807 192.297V193.34H179.615V192.297H181.584V190.914H182.873V192.297H184.807ZM182.229 193.902C183.576 193.902 184.537 194.922 184.537 196.363C184.537 197.828 183.576 198.859 182.229 198.859C180.893 198.859 179.908 197.828 179.92 196.363C179.908 194.922 180.893 193.902 182.229 193.902ZM182.229 194.98C181.537 194.98 181.057 195.531 181.068 196.363C181.057 197.219 181.537 197.758 182.229 197.746C182.908 197.758 183.389 197.219 183.389 196.363C183.389 195.531 182.908 194.98 182.229 194.98ZM188.744 190.609V201.203H187.502V196.023H186.471V200.723H185.252V190.832H186.471V194.969H187.502V190.609H188.744ZM201.729 190.609V195.93H200.428V193.867H198.518C198.26 195.021 197.182 195.789 195.799 195.789C194.193 195.789 192.998 194.781 192.998 193.34C192.998 191.934 194.193 190.938 195.799 190.938C197.176 190.938 198.248 191.693 198.518 192.812H200.428V190.609H201.729ZM195.799 191.992C194.885 191.992 194.24 192.531 194.24 193.34C194.24 194.195 194.885 194.723 195.799 194.723C196.678 194.723 197.322 194.195 197.334 193.34C197.322 192.531 196.678 191.992 195.799 191.992ZM201.729 196.445V199.188H196.057V200.043H202.068V201.074H194.756V198.227H200.428V197.453H194.744V196.445H201.729ZM208.619 191.641V198.578H203.604V191.641H208.619ZM204.881 192.66V197.535H207.318V192.66H204.881ZM211.525 190.609V194.676H213.154V195.777H211.525V201.203H210.225V190.609H211.525ZM223.467 194.699V195.766H221.896V201.18H220.596V190.609H221.896V194.699H223.467ZM215.264 191.641V197.488C216.676 197.465 218.182 197.342 219.775 197.008L219.916 198.109C218.135 198.461 216.436 198.566 214.865 198.566H213.975V191.641H215.264ZM45.4531 208.609V211.188H46.9297V212.254H45.4531V214.82H44.1523V208.609H45.4531ZM42.5234 209.336C42.5234 212.125 40.707 214.094 37.5781 214.984L37.0625 213.93C39.4648 213.273 40.8887 211.979 41.1172 210.391H37.543V209.336H42.5234ZM42.0312 214.949C44.1758 214.949 45.5703 215.77 45.5703 217.07C45.5703 218.395 44.1758 219.191 42.0312 219.191C39.8984 219.191 38.4805 218.395 38.4922 217.07C38.4805 215.77 39.8984 214.949 42.0312 214.949ZM42.0312 215.969C40.6367 215.969 39.7695 216.367 39.7812 217.07C39.7695 217.762 40.6367 218.172 42.0312 218.172C43.4258 218.172 44.293 217.762 44.293 217.07C44.293 216.367 43.4258 215.969 42.0312 215.969ZM55.7656 208.609V212.828H57.3945V213.906H55.7656V219.203H54.4766V208.609H55.7656ZM53.6562 210.238V211.281H47.4102V210.238H49.918V208.762H51.2188V210.238H53.6562ZM50.5742 211.973C52.0977 211.973 53.2344 213.004 53.2344 214.469C53.2344 215.934 52.0977 216.953 50.5742 216.953C49.0273 216.953 47.8906 215.934 47.9023 214.469C47.8906 213.004 49.0273 211.973 50.5742 211.973ZM50.5742 213.039C49.7422 213.039 49.1445 213.602 49.1445 214.469C49.1445 215.336 49.7422 215.887 50.5742 215.875C51.3828 215.887 51.9805 215.336 51.9922 214.469C51.9805 213.602 51.3828 213.039 50.5742 213.039ZM66.4883 209.582V210.602C66.4766 211.914 66.4766 213.391 66.0664 215.605L64.7539 215.465C65.1641 213.402 65.1641 211.896 65.1758 210.625H58.8477V209.582H66.4883ZM67.4961 216.766V217.832H57.8398V216.766H61.4023V213.086H62.6914V216.766H67.4961ZM79.7422 208.609V212.594H80.9258V213.695H79.7422V219.203H78.4531V208.609H79.7422ZM72.2656 209.582V212.125H73.1562V209.582H74.2344V216.707H71.1875V209.582H72.2656ZM72.2656 215.641H73.1562V213.156H72.2656V215.641ZM75.7695 209.582V212.125H76.6602V209.582H77.7383V216.707H74.7148V209.582H75.7695ZM75.7695 215.641H76.6602V213.156H75.7695V215.641ZM91.1094 216.883V217.949H81.4297V216.883H91.1094ZM89.9609 209.359V212.77H83.8789V214.152H90.207V215.184H82.5781V211.727H88.6719V210.414H82.5547V209.359H89.9609ZM100.941 208.609V219.203H99.6992V208.609H100.941ZM98.6914 208.867V218.699H97.4609V213.824H95.5742C94.9531 215.043 93.957 216.098 92.457 216.965L91.7188 216.039C93.916 214.744 94.918 213.086 95.1172 210.953H92.2578V209.898H96.4062C96.4062 210.924 96.2832 211.885 95.9961 212.781H97.4609V208.867H98.6914ZM108.02 208.949C109.625 208.949 110.82 209.945 110.832 211.34C110.82 212.746 109.625 213.73 108.02 213.73C106.402 213.73 105.207 212.746 105.207 211.34C105.207 209.945 106.402 208.949 108.02 208.949ZM108.02 210.027C107.129 210.027 106.473 210.531 106.473 211.34C106.473 212.16 107.129 212.676 108.02 212.676C108.91 212.676 109.566 212.16 109.566 211.34C109.566 210.531 108.91 210.027 108.02 210.027ZM113.844 208.609V213.965H112.531V208.609H113.844ZM113.844 214.422V217.188H108.113V218.043H114.16V219.074H106.836V216.227H112.543V215.441H106.812V214.422H113.844ZM120.207 208.773C122.621 208.773 124.016 209.418 124.027 210.59C124.016 211.773 122.621 212.406 120.207 212.418C117.793 212.406 116.387 211.773 116.387 210.59C116.387 209.418 117.793 208.773 120.207 208.773ZM120.207 209.734C118.59 209.734 117.746 210.039 117.758 210.59C117.746 211.176 118.59 211.445 120.207 211.445C121.848 211.445 122.68 211.176 122.68 210.59C122.68 210.039 121.848 209.734 120.207 209.734ZM125.047 212.98V214.023H115.391V212.98H125.047ZM123.84 214.738V217.328H117.816V218.113H124.133V219.109H116.539V216.402H122.562V215.699H116.527V214.738H123.84ZM134.258 209.16V213.578H129.148V209.16H134.258ZM130.438 210.203V212.559H132.969V210.203H130.438ZM137.41 208.609V214H136.121V208.609H137.41ZM137.41 214.48V217.223H131.703V218.078H137.727V219.109H130.414V216.285H136.145V215.5H130.402V214.48H137.41ZM141.875 209.383C143.311 209.383 144.371 210.578 144.559 212.512H146.574V208.609H147.863V219.215H146.574V213.566H144.57C144.43 215.611 143.352 216.871 141.875 216.871C140.281 216.871 139.156 215.43 139.156 213.121C139.156 210.836 140.281 209.383 141.875 209.383ZM141.875 210.555C140.996 210.555 140.398 211.504 140.41 213.121C140.398 214.75 140.996 215.699 141.875 215.699C142.754 215.699 143.34 214.75 143.352 213.121C143.34 211.504 142.754 210.555 141.875 210.555ZM157.883 214.984V215.91H151.824V216.578H157.672V217.469H151.824V218.148H158.047V219.109H150.535V214.984H153.512V214.105H149.352V213.074H159.008V214.105H154.812V214.984H157.883ZM151.895 208.797V209.641H156.465V208.797H157.754V212.395H150.605V208.797H151.895ZM151.895 211.398H156.465V210.613H151.895V211.398ZM162.723 208.949C164.328 208.949 165.523 209.945 165.535 211.34C165.523 212.746 164.328 213.73 162.723 213.73C161.105 213.73 159.91 212.746 159.91 211.34C159.91 209.945 161.105 208.949 162.723 208.949ZM162.723 210.027C161.832 210.027 161.176 210.531 161.176 211.34C161.176 212.16 161.832 212.676 162.723 212.676C163.613 212.676 164.27 212.16 164.27 211.34C164.27 210.531 163.613 210.027 162.723 210.027ZM168.547 208.609V213.965H167.234V208.609H168.547ZM168.547 214.422V217.188H162.816V218.043H168.863V219.074H161.539V216.227H167.246V215.441H161.516V214.422H168.547ZM178.461 209.488C178.461 210.824 179.949 212.172 182.211 212.465L181.695 213.52C179.896 213.25 178.467 212.365 177.781 211.164C177.084 212.365 175.66 213.25 173.879 213.52L173.363 212.465C175.602 212.172 177.09 210.824 177.09 209.488V208.949H178.461V209.488ZM182.598 214.434V215.512H178.391V219.203H177.102V215.512H172.941V214.434H182.598ZM189.922 215.5C189.922 216.379 190.326 217.305 191.234 217.879C192.154 217.264 192.582 216.303 192.594 215.5V215.066H193.871V215.5C193.859 216.613 194.516 217.645 195.91 218.09L195.277 219.039C194.246 218.693 193.561 218.02 193.191 217.176C192.852 218.008 192.225 218.752 191.27 219.133C190.262 218.77 189.629 218.055 189.301 217.211C188.92 218.025 188.246 218.688 187.262 219.039L186.617 218.09C187.988 217.609 188.645 216.531 188.656 215.5V215.066H189.922V215.5ZM194.984 208.621V214.621H193.672V208.621H194.984ZM189.207 209.184C190.836 209.184 192.055 210.215 192.055 211.703C192.055 213.18 190.836 214.211 189.207 214.211C187.566 214.211 186.348 213.18 186.348 211.703C186.348 210.215 187.566 209.184 189.207 209.184ZM189.207 210.285C188.281 210.285 187.613 210.836 187.625 211.703C187.613 212.57 188.281 213.133 189.207 213.133C190.121 213.133 190.777 212.57 190.777 211.703C190.777 210.836 190.121 210.285 189.207 210.285ZM205.109 211.609V212.641H197.773V208.996H199.062V211.609H205.109ZM206.199 213.871V214.902H196.52V213.871H206.199ZM205.18 217.902V218.957H197.68V215.84H198.98V217.902H205.18ZM210.898 211.621C210.898 213.355 211.918 215.184 213.629 215.898L212.914 216.93C211.66 216.391 210.746 215.277 210.266 213.93C209.773 215.383 208.848 216.602 207.605 217.188L206.855 216.168C208.531 215.395 209.574 213.426 209.574 211.621V210.73H207.242V209.652H213.219V210.73H210.898V211.621ZM215.715 208.609V219.203H214.402V208.609H215.715ZM226.941 213.414V214.398H217.262V213.414H226.941ZM225.77 215.031V217.445H219.699V218.184H226.086V219.086H218.398V216.602H224.48V215.945H218.387V215.031H225.77ZM225.746 208.844V211.234H219.781V211.926H225.934V212.816H218.492V210.391H224.445V209.746H218.457V208.844H225.746ZM62.1699 230.699V231.766H60.5996V237.18H59.2988V226.609H60.5996V230.699H62.1699ZM53.9668 227.641V233.488C55.3789 233.465 56.8848 233.342 58.4785 233.008L58.6191 234.109C56.8379 234.461 55.1387 234.566 53.5684 234.566H52.6777V227.641H53.9668ZM68.1113 227.523V228.59H64.4316V230.477H67.9238V231.508H64.4316V233.688C66.0605 233.676 67.332 233.617 68.8145 233.371L68.9316 234.426C67.3027 234.684 65.8848 234.742 63.9863 234.742H63.1074V227.523H68.1113ZM70.9707 226.609V230.711H72.5996V231.801H70.9707V237.203H69.6699V226.609H70.9707ZM82.1387 226.609V237.203H80.8848V231.848H79.7129V236.664H78.4941V226.809H79.7129V230.781H80.8848V226.609H82.1387ZM74.8145 227.828V233.418C75.7285 233.4 76.7305 233.324 77.8379 233.102L77.9668 234.238C76.5371 234.496 75.3301 234.566 74.2051 234.566H73.502V227.828H74.8145ZM91.9941 229.609V230.641H84.6582V226.996H85.9473V229.609H91.9941ZM93.084 231.871V232.902H83.4043V231.871H93.084ZM92.0645 235.902V236.957H84.5645V233.84H85.8652V235.902H92.0645ZM96.7285 230.957L97.7129 227.676H98.8262L98.2168 230.957H96.7285ZM102.564 227.078C103.936 227.066 105.014 227.857 105.283 229.023H107.193V226.609H108.494V232.293H107.193V230.078H105.295C105.031 231.268 103.941 232.07 102.564 232.07C100.936 232.07 99.7637 231.027 99.7637 229.562C99.7637 228.121 100.936 227.066 102.564 227.078ZM102.564 228.168C101.65 228.168 101.006 228.707 101.006 229.562C101.006 230.406 101.65 230.969 102.564 230.969C103.455 230.969 104.088 230.406 104.1 229.562C104.088 228.707 103.455 228.168 102.564 228.168ZM102.799 232.785V233.91H107.193V232.785H108.494V237.074H101.51V232.785H102.799ZM102.799 236.02H107.193V234.918H102.799V236.02ZM119.662 232.609V233.664H115.443V237.191H114.154V233.664H109.982V232.609H119.662ZM118.479 227.148V231.367H111.166V227.148H118.479ZM112.443 228.191V230.348H117.178V228.191H112.443ZM132.869 232.973V234.039H128.674V237.215H127.385V234.039H123.213V232.973H132.869ZM131.967 227.863V228.895H128.697C128.82 229.943 130.197 231.039 132.318 231.297L131.838 232.328C130.086 232.105 128.727 231.332 128.041 230.312C127.344 231.344 125.973 232.105 124.209 232.328L123.74 231.297C125.855 231.039 127.244 229.961 127.373 228.895H124.104V227.863H127.385V226.621H128.674V227.863H131.967ZM137.604 228.766C137.604 230.078 138.506 231.367 140.193 231.895L139.525 232.914C138.324 232.521 137.451 231.73 136.971 230.723C136.49 231.818 135.594 232.691 134.334 233.125L133.666 232.094C135.365 231.531 136.279 230.16 136.291 228.766V228.461H134.006V227.418H139.83V228.461H137.604V228.766ZM142.408 226.621V234.309H141.096V226.621H142.408ZM142.701 235.938V236.992H135.4V233.605H136.713V235.938H142.701ZM149.018 227.242V230.43H145.678V231.73C147.377 231.736 148.355 231.684 149.475 231.473L149.604 232.527C148.338 232.738 147.236 232.773 145.162 232.773H144.389V229.457H147.717V228.273H144.365V227.242H149.018ZM152.826 226.621V233.137H151.525V231.391H149.65V230.348H151.525V229.164H149.65V228.121H151.525V226.621H152.826ZM152.826 233.641V237.203H151.525V234.684H145.584V233.641H152.826ZM156.518 227.688L155.533 230.969H154.42L155.029 227.688H156.518ZM166.982 231.414V232.398H157.303V231.414H166.982ZM165.811 233.031V235.445H159.74V236.184H166.127V237.086H158.439V234.602H164.521V233.945H158.428V233.031H165.811ZM165.787 226.844V229.234H159.822V229.926H165.975V230.816H158.533V228.391H164.486V227.746H158.498V226.844H165.787ZM178.889 226.609V228.742H180.365V229.82H178.889V231.93H177.588V226.609H178.889ZM175.912 227.148V231.484H170.896V227.148H175.912ZM172.174 228.18V230.453H174.635V228.18H172.174ZM178.889 232.387V235.164H173.264V236.043H179.217V237.074H171.975V234.215H177.588V233.395H171.963V232.387H178.889ZM189.26 226.609V229.223H190.736V230.301H189.26V232.797H187.959V226.609H189.26ZM183.705 233.219V234.133H187.959V233.219H189.26V237.074H182.416V233.219H183.705ZM183.705 236.043H187.959V235.141H183.705V236.043ZM187.197 227.594V228.637H180.916V227.594H183.412V226.527H184.713V227.594H187.197ZM184.057 229C185.592 229 186.635 229.738 186.646 230.863C186.635 231.988 185.592 232.727 184.057 232.727C182.51 232.727 181.455 231.988 181.455 230.863C181.455 229.738 182.51 229 184.057 229ZM184.057 229.961C183.248 229.961 182.721 230.301 182.721 230.863C182.721 231.438 183.248 231.766 184.057 231.766C184.865 231.766 185.404 231.438 185.404 230.863C185.404 230.301 184.865 229.961 184.057 229.961ZM200.111 226.609V237.203H198.822V226.609H200.111ZM193.174 227.641V233.43C194.662 233.406 196.244 233.271 197.873 232.949L198.037 234.039C196.174 234.426 194.439 234.543 192.799 234.543H191.885V227.641H193.174ZM209.943 226.609V230.629H211.572V231.695H209.943V237.215H208.643V226.609H209.943ZM207.037 227.617V228.672H203.381V233.535C205.027 233.535 206.328 233.453 207.787 233.195L207.939 234.297C206.299 234.578 204.869 234.625 202.959 234.625H202.08V227.617H207.037ZM213.307 236.254C212.803 236.254 212.393 235.844 212.393 235.34C212.393 234.848 212.803 234.438 213.307 234.438C213.787 234.438 214.209 234.848 214.209 235.34C214.209 235.844 213.787 236.254 213.307 236.254Z" fill="#737373"/>
</g>
</g>
<defs>
<filter id="filter0_dd_16396_15021" x="17.7834" y="177.387" width="231.32" height="75.32" filterUnits="userSpaceOnUse" color-interpolation-filters="sRGB">
<feFlood flood-opacity="0" result="BackgroundImageFix"/>
<feColorMatrix in="SourceAlpha" type="matrix" values="0 0 0 0 0 0 0 0 0 0 0 0 0 0 0 0 0 0 127 0" result="hardAlpha"/>
<feOffset dy="0.886667"/>
<feGaussianBlur stdDeviation="0.886667"/>
<feColorMatrix type="matrix" values="0 0 0 0 0 0 0 0 0 0 0 0 0 0 0 0 0 0 0.06 0"/>
<feBlend mode="normal" in2="BackgroundImageFix" result="effect1_dropShadow_16396_15021"/>
<feColorMatrix in="SourceAlpha" type="matrix" values="0 0 0 0 0 0 0 0 0 0 0 0 0 0 0 0 0 0 127 0" result="hardAlpha"/>
<feOffset dy="0.886667"/>
<feGaussianBlur stdDeviation="1.33"/>
<feColorMatrix type="matrix" values="0 0 0 0 0 0 0 0 0 0 0 0 0 0 0 0 0 0 0.1 0"/>
<feBlend mode="normal" in2="effect1_dropShadow_16396_15021" result="effect2_dropShadow_16396_15021"/>
<feBlend mode="normal" in="SourceGraphic" in2="effect2_dropShadow_16396_15021" result="shape"/>
</filter>
<clipPath id="clip0_16396_15021">
<rect width="266" height="250" rx="14" fill="white"/>
</clipPath>
</defs>
</svg>
