<svg width="97" height="22" viewBox="0 0 97 22" fill="none" xmlns="http://www.w3.org/2000/svg">
<rect x="0.5" y="0.5" width="96" height="21" rx="3.5" fill="#FEA770"/>
<rect x="0.5" y="0.5" width="96" height="21" rx="3.5" stroke="#FFF3EB"/>
<path fill-rule="evenodd" clip-rule="evenodd" d="M13.0132 5.76553C13.5277 5.72447 14.0161 5.52218 14.4089 5.18743C15.3255 4.40627 16.6737 4.40627 17.5903 5.18743C17.9832 5.52218 18.4715 5.72447 18.986 5.76553C20.1865 5.86133 21.1398 6.81465 21.2356 8.01517C21.2767 8.52963 21.479 9.01802 21.8137 9.41082C22.5949 10.3275 22.5949 11.6757 21.8137 12.5923C21.479 12.9851 21.2767 13.4735 21.2356 13.988C21.1398 15.1885 20.1865 16.1418 18.986 16.2376C18.4715 16.2787 17.9832 16.481 17.5903 16.8157C16.6737 17.5969 15.3255 17.5969 14.4089 16.8157C14.0161 16.481 13.5277 16.2787 13.0132 16.2376C11.8127 16.1418 10.8594 15.1885 10.7636 13.988C10.7225 13.4735 10.5202 12.9851 10.1855 12.5923C9.40432 11.6757 9.40432 10.3275 10.1855 9.41082C10.5202 9.01802 10.7225 8.52963 10.7636 8.01517C10.8594 6.81465 11.8127 5.86133 13.0132 5.76553ZM18.9653 9.96725C19.2777 9.65483 19.2777 9.1483 18.9653 8.83588C18.6529 8.52346 18.1463 8.52346 17.8339 8.83588L15.1996 11.4702L14.1653 10.4359C13.8529 10.1235 13.3463 10.1235 13.0339 10.4359C12.7215 10.7483 12.7215 11.2548 13.0339 11.5672L14.6339 13.1672C14.9463 13.4797 15.4529 13.4797 15.7653 13.1672L18.9653 9.96725Z" fill="#262626"/>
<path d="M37.9727 7.78125C37.9727 9.05859 39.0273 10.207 40.5625 10.6523L40.1289 11.3906C38.9277 11.0156 38.002 10.2363 37.5391 9.23438C37.0879 10.3711 36.127 11.2383 34.9023 11.6602L34.4336 10.9336C35.9922 10.4531 37.0703 9.21094 37.0703 7.78125V7.57031H34.7148V6.80859H37.0703V5.48438H37.9961V6.80859H40.3281V7.57031H37.9727V7.78125ZM42.5664 5.53125V8.25H44.1367V9.01172H42.5664V11.9297H41.6523V5.53125H42.5664ZM39.2266 12.1875C41.3711 12.1875 42.6602 12.8672 42.6602 14.0508C42.6602 15.2461 41.3711 15.9141 39.2266 15.9141C37.0703 15.9141 35.7695 15.2461 35.7695 14.0508C35.7695 12.8672 37.0703 12.1875 39.2266 12.1875ZM39.2266 12.9141C37.6445 12.9141 36.6836 13.3242 36.6953 14.0508C36.6836 14.7773 37.6445 15.1992 39.2266 15.1992C40.8086 15.1992 41.7695 14.7773 41.7695 14.0508C41.7695 13.3242 40.8086 12.9141 39.2266 12.9141ZM47.6641 6.02344C49.0645 6.01172 50.125 6.82617 50.3242 8.02734H52.5039V5.53125H53.4297V11.1211H52.5039V8.78906H50.3359C50.1484 10.0195 49.0762 10.8398 47.6641 10.8398C46.082 10.8398 44.957 9.85547 44.957 8.42578C44.957 7.00781 46.082 6.01172 47.6641 6.02344ZM47.6641 6.80859C46.5977 6.79688 45.8359 7.46484 45.8359 8.42578C45.8359 9.375 46.5977 10.0664 47.6641 10.0664C48.7188 10.0664 49.4688 9.375 49.4688 8.42578C49.4688 7.46484 48.7188 6.79688 47.6641 6.80859ZM47.6406 11.6484V12.9727H52.5039V11.6484H53.4297V15.8086H46.7148V11.6484H47.6406ZM47.6406 15.0586H52.5039V13.7109H47.6406V15.0586ZM66.8125 5.54297V11.8008H65.8867V10.3945H63.1211V9.63281H65.8867V8.22656H63.2266C62.541 9.90234 60.9297 11.1152 58.7031 11.7773L58.3164 11.0508C60.8359 10.3008 62.4004 8.89453 62.5938 7.08984H58.8438V6.31641H63.5898C63.5898 6.72656 63.543 7.11914 63.4609 7.48828H65.8867V5.54297H66.8125ZM63.4023 11.9062C65.5117 11.9062 66.8711 12.6562 66.8711 13.8984C66.8711 15.1523 65.5117 15.9023 63.4023 15.9023C61.2695 15.9023 59.9219 15.1523 59.9219 13.8984C59.9219 12.6562 61.2695 11.9062 63.4023 11.9062ZM63.4023 12.6445C61.832 12.6328 60.8242 13.1133 60.8242 13.8984C60.8242 14.6836 61.832 15.1523 63.4023 15.1523C64.9492 15.1523 65.9453 14.6836 65.957 13.8984C65.9453 13.1133 64.9492 12.6328 63.4023 12.6445ZM77.1836 5.53125V11.8477H76.2578V9.46875H74.4883V8.70703H76.2578V5.53125H77.1836ZM77.1836 12.4102V15.8086H70.375V12.4102H77.1836ZM71.2891 13.1484V15.0586H76.2812V13.1484H71.2891ZM74.6406 6.63281V7.38281H68.5586V6.63281H71.1484V5.4375H72.0508V6.63281H74.6406ZM71.5938 7.92188C73.0117 7.92188 74.0078 8.68359 74.0195 9.77344C74.0078 10.8984 73.0117 11.6367 71.5938 11.6367C70.1758 11.6367 69.1797 10.8984 69.1797 9.77344C69.1797 8.68359 70.1758 7.92188 71.5938 7.92188ZM71.5938 8.63672C70.6914 8.63672 70.0586 9.10547 70.0586 9.77344C70.0586 10.4648 70.6914 10.9219 71.5938 10.9336C72.4961 10.9219 73.1289 10.4648 73.1289 9.77344C73.1289 9.10547 72.4961 8.63672 71.5938 8.63672ZM82.4453 8.73047C82.4336 10.4062 83.6406 12.2461 85.1523 12.9609L84.625 13.6875C83.4531 13.1191 82.4629 11.877 82 10.4648C81.5195 12 80.4707 13.3477 79.3047 13.9453L78.7422 13.2188C80.2422 12.4922 81.5312 10.5117 81.543 8.73047V7.37109H79.1172V6.60938H84.7891V7.37109H82.4453V8.73047ZM86.9805 5.53125V9.75H88.7266V10.5352H86.9805V15.9492H86.0664V5.53125H86.9805Z" fill="#262626"/>
</svg>
