<svg width="118" height="22" viewBox="0 0 118 22" fill="none" xmlns="http://www.w3.org/2000/svg">
<rect x="0.5" y="0.5" width="117" height="21" rx="3.5" fill="#FFD0B2"/>
<rect x="0.5" y="0.5" width="117" height="21" rx="3.5" stroke="#FFF3EB"/>
<path fill-rule="evenodd" clip-rule="evenodd" d="M13.0132 5.76553C13.5277 5.72447 14.0161 5.52218 14.4089 5.18743C15.3255 4.40627 16.6737 4.40627 17.5903 5.18743C17.9832 5.52218 18.4715 5.72447 18.986 5.76553C20.1865 5.86133 21.1398 6.81465 21.2356 8.01517C21.2767 8.52963 21.479 9.01802 21.8137 9.41082C22.5949 10.3275 22.5949 11.6757 21.8137 12.5923C21.479 12.9851 21.2767 13.4735 21.2356 13.988C21.1398 15.1885 20.1865 16.1418 18.986 16.2376C18.4715 16.2787 17.9832 16.481 17.5903 16.8157C16.6737 17.5969 15.3255 17.5969 14.4089 16.8157C14.0161 16.481 13.5277 16.2787 13.0132 16.2376C11.8127 16.1418 10.8594 15.1885 10.7636 13.988C10.7225 13.4735 10.5202 12.9851 10.1855 12.5923C9.40432 11.6757 9.40432 10.3275 10.1855 9.41082C10.5202 9.01802 10.7225 8.52963 10.7636 8.01517C10.8594 6.81465 11.8127 5.86133 13.0132 5.76553ZM18.9653 9.96725C19.2777 9.65483 19.2777 9.1483 18.9653 8.83588C18.6529 8.52346 18.1463 8.52346 17.8339 8.83588L15.1996 11.4702L14.1653 10.4359C13.8529 10.1235 13.3463 10.1235 13.0339 10.4359C12.7215 10.7483 12.7215 11.2548 13.0339 11.5672L14.6339 13.1672C14.9463 13.4797 15.4529 13.4797 15.7653 13.1672L18.9653 9.96725Z" fill="#262626"/>
<path d="M43.9492 11.7188V12.4688H39.6016V15.9492H38.6992V12.4688H34.4102V11.7188H43.9492ZM36.543 5.96484V7.40625H41.793V5.96484H42.7188V10.4531H35.6289V5.96484H36.543ZM36.543 9.70312H41.793V8.15625H36.543V9.70312ZM53.2305 11.168V11.918H46.0234V6.43359H53.1133V7.20703H46.9609V8.75391H52.8906V9.49219H46.9609V11.168H53.2305ZM54.332 13.8281V14.5898H44.793V13.8281H54.332ZM59.8281 6.24609C59.8281 8.75391 58.6094 10.7109 55.7266 11.8945L55.2695 11.1914C56.7988 10.5996 57.7891 9.79688 58.3516 8.8125L55.3984 9.12891L55.2461 8.36719L58.668 8.14453C58.791 7.78125 58.8672 7.39453 58.9023 6.99609H55.75V6.24609H59.8281ZM64.0117 5.54297V11.6836H63.1328V8.95312H61.7148V11.6016H60.8359V5.74219H61.7148V8.17969H63.1328V5.54297H64.0117ZM64.0117 12.1641V15.8086H57.1328V12.1641H64.0117ZM58.0352 12.9141V15.0586H63.1094V12.9141H58.0352ZM75.0742 13.8281V14.6133H65.5352V13.8281H75.0742ZM74.1602 6.58594V7.34766H72.5078V10.9922H74.1367V11.7422H66.4023V10.9922H68.0312V7.34766H66.3789V6.58594H74.1602ZM68.9453 10.9922H71.6055V7.34766H68.9453V10.9922ZM84.1445 6.50391C84.1445 7.96875 86.0664 9.24609 87.9414 9.50391L87.5664 10.2539C85.9492 9.98438 84.3496 9.08789 83.6758 7.80469C83.0078 9.09375 81.4023 9.98438 79.7852 10.2539L79.4102 9.50391C81.2852 9.24609 83.1953 7.99219 83.1953 6.50391V5.90625H84.1445V6.50391ZM88.4102 11.4023V12.1758H84.0977V15.9492H83.1953V12.1758H78.918V11.4023H88.4102ZM98.8281 13.8867V14.6602H89.2891V13.8867H91.9727V11.9062H90.4844V8.69531H96.7188V7.06641H90.4609V6.30469H97.6211V9.45703H91.3984V11.1445H97.8672V11.9062H96.2383V13.8867H98.8281ZM92.875 13.8867H95.3359V11.9062H92.875V13.8867ZM103.188 8.73047C103.176 10.4062 104.383 12.2461 105.895 12.9609L105.367 13.6875C104.195 13.1191 103.205 11.877 102.742 10.4648C102.262 12 101.213 13.3477 100.047 13.9453L99.4844 13.2188C100.984 12.4922 102.273 10.5117 102.285 8.73047V7.37109H99.8594V6.60938H105.531V7.37109H103.188V8.73047ZM107.723 5.53125V9.75H109.469V10.5352H107.723V15.9492H106.809V5.53125H107.723Z" fill="#262626"/>
</svg>
