<svg width="74" height="22" viewBox="0 0 74 22" fill="none" xmlns="http://www.w3.org/2000/svg">
<rect x="0.5" y="0.5" width="73" height="21" rx="3.5" fill="#FF6000"/>
<rect x="0.5" y="0.5" width="73" height="21" rx="3.5" stroke="#FFF3EB"/>
<path fill-rule="evenodd" clip-rule="evenodd" d="M13.0132 5.76553C13.5277 5.72447 14.0161 5.52218 14.4089 5.18743C15.3255 4.40627 16.6737 4.40627 17.5903 5.18743C17.9832 5.52218 18.4715 5.72447 18.986 5.76553C20.1865 5.86133 21.1398 6.81465 21.2356 8.01517C21.2767 8.52963 21.479 9.01802 21.8137 9.41082C22.5949 10.3275 22.5949 11.6757 21.8137 12.5923C21.479 12.9851 21.2767 13.4735 21.2356 13.988C21.1398 15.1885 20.1865 16.1418 18.986 16.2376C18.4715 16.2787 17.9832 16.481 17.5903 16.8157C16.6737 17.5969 15.3255 17.5969 14.4089 16.8157C14.0161 16.481 13.5277 16.2787 13.0132 16.2376C11.8127 16.1418 10.8594 15.1885 10.7636 13.988C10.7225 13.4735 10.5202 12.9851 10.1855 12.5923C9.40432 11.6757 9.40432 10.3275 10.1855 9.41082C10.5202 9.01802 10.7225 8.52963 10.7636 8.01517C10.8594 6.81465 11.8127 5.86133 13.0132 5.76553ZM18.9653 9.96725C19.2777 9.65483 19.2777 9.1483 18.9653 8.83588C18.6529 8.52346 18.1463 8.52346 17.8339 8.83588L15.1996 11.4702L14.1653 10.4359C13.8529 10.1235 13.3463 10.1235 13.0339 10.4359C12.7215 10.7483 12.7215 11.2548 13.0339 11.5672L14.6339 13.1672C14.9463 13.4797 15.4529 13.4797 15.7653 13.1672L18.9653 9.96725Z" fill="#262626"/>
<path d="M43.0586 5.54297V13.1836H42.1328V9.1875H39.9883V8.42578H42.1328V5.54297H43.0586ZM43.3516 14.9531V15.7266H36.3672V12.4922H37.293V14.9531H43.3516ZM38.043 7.6875C38.043 9.03516 39.0859 10.3477 40.6094 10.8633L40.1289 11.6016C38.9512 11.1797 38.043 10.3008 37.5977 9.22266C37.1465 10.4238 36.1855 11.3848 34.9492 11.8477L34.4688 11.0977C36.0039 10.5586 37.1172 9.1875 37.1172 7.6875V7.14844H34.7617V6.38672H40.375V7.14844H38.043V7.6875ZM49.5039 12.1172C51.7422 12.1172 53.1602 12.8203 53.1602 14.0273C53.1602 15.2227 51.7422 15.9258 49.5039 15.9258C47.2773 15.9258 45.8594 15.2227 45.8594 14.0273C45.8594 12.8203 47.2773 12.1172 49.5039 12.1172ZM49.5039 12.8203C47.8398 12.832 46.7617 13.2891 46.7734 14.0273C46.7617 14.7539 47.8398 15.1992 49.5039 15.1992C51.168 15.1992 52.2344 14.7539 52.2461 14.0273C52.2344 13.2891 51.168 12.832 49.5039 12.8203ZM53.0781 6.07031V6.94922C53.0781 7.79297 53.0781 8.63672 52.7852 9.71484L51.8828 9.60938C52.1641 8.53125 52.1641 7.76953 52.1641 6.94922V6.82031H45.9297V6.07031H53.0781ZM54.2852 10.3945V11.1445H44.8047V10.3945H48.7305V8.37891H49.6328V10.3945H54.2852ZM58.6914 8.73047C58.6797 10.4062 59.8867 12.2461 61.3984 12.9609L60.8711 13.6875C59.6992 13.1191 58.709 11.877 58.2461 10.4648C57.7656 12 56.7168 13.3477 55.5508 13.9453L54.9883 13.2188C56.4883 12.4922 57.7773 10.5117 57.7891 8.73047V7.37109H55.3633V6.60938H61.0352V7.37109H58.6914V8.73047ZM63.2266 5.53125V9.75H64.9727V10.5352H63.2266V15.9492H62.3125V5.53125H63.2266Z" fill="#262626"/>
</svg>
