<svg width="108" height="22" viewBox="0 0 108 22" fill="none" xmlns="http://www.w3.org/2000/svg">
<rect x="0.5" y="0.5" width="107" height="21" rx="3.5" fill="#FF8032"/>
<rect x="0.5" y="0.5" width="107" height="21" rx="3.5" stroke="#FFF3EB"/>
<path fill-rule="evenodd" clip-rule="evenodd" d="M13.0132 5.76553C13.5277 5.72447 14.0161 5.52218 14.4089 5.18743C15.3255 4.40627 16.6737 4.40627 17.5903 5.18743C17.9832 5.52218 18.4715 5.72447 18.986 5.76553C20.1865 5.86133 21.1398 6.81465 21.2356 8.01517C21.2767 8.52963 21.479 9.01802 21.8137 9.41082C22.5949 10.3275 22.5949 11.6757 21.8137 12.5923C21.479 12.9851 21.2767 13.4735 21.2356 13.988C21.1398 15.1885 20.1865 16.1418 18.986 16.2376C18.4715 16.2787 17.9832 16.481 17.5903 16.8157C16.6737 17.5969 15.3255 17.5969 14.4089 16.8157C14.0161 16.481 13.5277 16.2787 13.0132 16.2376C11.8127 16.1418 10.8594 15.1885 10.7636 13.988C10.7225 13.4735 10.5202 12.9851 10.1855 12.5923C9.40432 11.6757 9.40432 10.3275 10.1855 9.41082C10.5202 9.01802 10.7225 8.52963 10.7636 8.01517C10.8594 6.81465 11.8127 5.86133 13.0132 5.76553ZM18.9653 9.96725C19.2777 9.65483 19.2777 9.1483 18.9653 8.83588C18.6529 8.52346 18.1463 8.52346 17.8339 8.83588L15.1996 11.4702L14.1653 10.4359C13.8529 10.1235 13.3463 10.1235 13.0339 10.4359C12.7215 10.7483 12.7215 11.2548 13.0339 11.5672L14.6339 13.1672C14.9463 13.4797 15.4529 13.4797 15.7653 13.1672L18.9653 9.96725Z" fill="#262626"/>
<path d="M37.9492 8.73047C37.9375 10.4062 39.1445 12.2461 40.6562 12.9609L40.1289 13.6875C38.957 13.1191 37.9668 11.877 37.5039 10.4648C37.0234 12 35.9746 13.3477 34.8086 13.9453L34.2461 13.2188C35.7461 12.4922 37.0352 10.5117 37.0469 8.73047V7.37109H34.6211V6.60938H40.293V7.37109H37.9492V8.73047ZM42.4844 5.53125V9.75H44.2305V10.5352H42.4844V15.9492H41.5703V5.53125H42.4844ZM50.2891 6.24609C50.2891 6.65039 50.2422 7.03711 50.1602 7.40625H52.5039V5.54297H53.4297V11.7539H52.5039V10.3711H49.7383V9.60938H52.5039V8.16797H49.9141C49.2051 9.80859 47.5762 10.9922 45.3203 11.6133L44.957 10.875C47.5 10.1719 49.1113 8.77148 49.3047 6.99609H45.4844V6.24609H50.2891ZM53.4297 12.2109V15.9375H52.5039V12.9492H46.4219V12.2109H53.4297ZM64.6562 10.4883V11.25H55.1641V10.4883H64.6562ZM59.9102 12.1641C62.1484 12.1641 63.4844 12.8555 63.4961 14.0508C63.4844 15.2578 62.1484 15.9258 59.9102 15.9258C57.6602 15.9258 56.3125 15.2578 56.3125 14.0508C56.3125 12.8555 57.6602 12.1641 59.9102 12.1641ZM59.9102 12.8906C58.2344 12.9023 57.2383 13.3125 57.25 14.0508C57.2383 14.7773 58.2344 15.1875 59.9102 15.1875C61.5625 15.1875 62.5703 14.7773 62.5703 14.0508C62.5703 13.3125 61.5625 12.9023 59.9102 12.8906ZM63.8125 6.07031V6.83203H60.5078C60.543 8.01562 62.2773 8.91797 64.1289 9.12891L63.7891 9.86719C62.084 9.65039 60.4844 8.88867 59.9102 7.72266C59.3418 8.88867 57.748 9.65039 56.0312 9.86719L55.7031 9.12891C57.5195 8.91797 59.2656 8.01562 59.3125 6.83203H56.0312V6.07031H63.8125ZM78.0859 13.8516V14.6133H68.5469V13.8516H72.8359V11.6016H69.6719V6.26953H70.5977V8.15625H76.0117V6.26953H76.9141V11.6016H73.7383V13.8516H78.0859ZM70.5977 10.8516H76.0117V8.90625H70.5977V10.8516ZM88.4453 11.4727V12.2344H85.9258V15.9492H85V12.2344H82.3281V15.9492H81.3789V12.2344H78.9062V11.4727H88.4453ZM83.6523 5.95312C85.8438 5.95312 87.3203 6.83203 87.3203 8.22656C87.3203 9.60938 85.8438 10.4883 83.6523 10.4766C81.4609 10.4883 79.9844 9.60938 79.9844 8.22656C79.9844 6.83203 81.4609 5.95312 83.6523 5.95312ZM83.6523 6.70312C82.0234 6.70312 80.9219 7.30078 80.9336 8.22656C80.9219 9.15234 82.0234 9.73828 83.6523 9.73828C85.2695 9.73828 86.3828 9.15234 86.3828 8.22656C86.3828 7.30078 85.2695 6.70312 83.6523 6.70312ZM92.8164 8.73047C92.8047 10.4062 94.0117 12.2461 95.5234 12.9609L94.9961 13.6875C93.8242 13.1191 92.834 11.877 92.3711 10.4648C91.8906 12 90.8418 13.3477 89.6758 13.9453L89.1133 13.2188C90.6133 12.4922 91.9023 10.5117 91.9141 8.73047V7.37109H89.4883V6.60938H95.1602V7.37109H92.8164V8.73047ZM97.3516 5.53125V9.75H99.0977V10.5352H97.3516V15.9492H96.4375V5.53125H97.3516Z" fill="#262626"/>
</svg>
