<svg width="24" height="24" viewBox="0 0 24 24" fill="none" xmlns="http://www.w3.org/2000/svg">
<path fill-rule="evenodd" clip-rule="evenodd" d="M12.0007 2.10156C9.7755 2.10156 7.94611 2.88935 6.68862 4.37589C5.4485 5.84191 4.85076 7.88466 4.85076 10.2516L4.85076 11.0016C4.85076 13.4667 4.16753 14.9264 3.19441 15.8697C2.81287 16.2395 2.77327 16.7513 2.90965 17.1279C3.04835 17.5108 3.42845 17.9016 4.00032 17.9016H20.0011C20.573 17.9016 20.9531 17.5108 21.0918 17.1279C21.2282 16.7513 21.1886 16.2395 20.807 15.8697C19.8339 14.9264 19.1507 13.4667 19.1507 11.0016L19.1507 10.2516C19.1507 7.88466 18.553 5.84191 17.3128 4.37589C16.0554 2.88935 14.226 2.10156 12.0007 2.10156ZM6.65075 10.2516C6.65075 8.16668 7.17801 6.58444 8.06287 5.5384C8.93038 4.51288 10.226 3.90156 12.0007 3.90156C13.7755 3.90156 15.0711 4.51288 15.9386 5.5384C16.8235 6.58444 17.3507 8.16668 17.3507 10.2516L17.3507 11.0016C17.3507 13.1643 17.8188 14.8287 18.6694 16.1016H5.33204C6.18261 14.8287 6.65075 13.1643 6.65075 11.0016L6.65075 10.2516Z" fill="#262626"/>
<path d="M10.0007 20.1014C9.50369 20.1014 9.10075 20.5044 9.10075 21.0014C9.10075 21.4985 9.50369 21.9014 10.0007 21.9014H14.0007C14.4978 21.9014 14.9007 21.4985 14.9007 21.0014C14.9007 20.5044 14.4978 20.1014 14.0007 20.1014H10.0007Z" fill="#262626"/>
</svg>
