<svg width="20" height="20" viewBox="0 0 20 20" fill="none" xmlns="http://www.w3.org/2000/svg">
<path d="M2.58398 4.78906C2.58398 4.37485 2.91977 4.03906 3.33398 4.03906H16.6673C17.0815 4.03906 17.4173 4.37485 17.4173 4.78906C17.4173 5.20328 17.0815 5.53906 16.6673 5.53906H3.33398C2.91977 5.53906 2.58398 5.20328 2.58398 4.78906Z" fill="#262626"/>
<path d="M2.584 9.9974C2.584 9.58318 2.91978 9.2474 3.33399 9.2474H16.6673C17.0815 9.2474 17.4173 9.58318 17.4173 9.9974C17.4173 10.4116 17.0815 10.7474 16.6673 10.7474H3.33399C2.91978 10.7474 2.584 10.4116 2.584 9.9974Z" fill="#262626"/>
<path d="M2.58398 15.2057C2.58398 14.7915 2.91977 14.4557 3.33398 14.4557H11.459C11.8732 14.4557 12.2089 14.7915 12.2089 15.2057C12.2089 15.6199 11.8732 15.9557 11.459 15.9557H3.33398C2.91977 15.9557 2.58398 15.6199 2.58398 15.2057Z" fill="#262626"/>
</svg>
