<svg width="24" height="24" viewBox="0 0 24 24" fill="none" xmlns="http://www.w3.org/2000/svg">
<path d="M10.0009 14H5.23696C3.75019 14 2.7832 12.4354 3.4481 11.1056L6.9481 4.10557C7.28689 3.42801 7.97941 3 8.73695 3H12.7547C12.9182 3 13.0811 3.02005 13.2397 3.05972L17.0009 4M10.0009 14V19C10.0009 20.1046 10.8963 21 12.0009 21H12.0964C12.5959 21 13.0009 20.595 13.0009 20.0955C13.0009 19.3812 13.2123 18.6828 13.6085 18.0885L17.0009 13V4M10.0009 14H12.0009M17.0009 4H19.0009C20.1055 4 21.0009 4.89543 21.0009 6V12C21.0009 13.1046 20.1055 14 19.0009 14H16.5009" stroke="#737373" stroke-width="2" stroke-linecap="round" stroke-linejoin="round"/>
</svg>
