<svg width="24" height="24" viewBox="0 0 24 24" fill="none" xmlns="http://www.w3.org/2000/svg">
<path d="M3 18.9986V10.069C3 9.4003 3.3342 8.77584 3.8906 8.40491L10.8906 3.73824C11.5624 3.29038 12.4376 3.29038 13.1094 3.73824L20.1094 8.40491C20.6658 8.77584 21 9.4003 21 10.069V18.9986M3 18.9986C3 20.1032 3.89543 20.9986 5 20.9986H19C20.1046 20.9986 21 20.1032 21 18.9986M3 18.9986L9.75 14.4986M21 18.9986L14.25 14.4986M3 9.99864L9.75 14.4986M21 9.99864L14.25 14.4986M14.25 14.4986L13.1094 15.259C12.4376 15.7069 11.5624 15.7069 10.8906 15.259L9.75 14.4986" stroke="#262626" stroke-width="2" stroke-linecap="round" stroke-linejoin="round"/>
</svg>
