<svg width="24" height="24" viewBox="0 0 24 24" fill="none" xmlns="http://www.w3.org/2000/svg">
<path d="M3 19.0025V10.0729C3 9.40421 3.3342 8.77975 3.8906 8.40882L10.8906 3.74215C11.5624 3.29428 12.4376 3.29428 13.1094 3.74215L20.1094 8.40882C20.6658 8.77975 21 9.40421 21 10.0729V19.0025M3 19.0025C3 20.1071 3.89543 21.0025 5 21.0025H19C20.1046 21.0025 21 20.1071 21 19.0025M3 19.0025L9.75 14.5025M21 19.0025L14.25 14.5025M3 10.0025L9.75 14.5025M21 10.0025L14.25 14.5025M14.25 14.5025L13.1094 15.2629C12.4376 15.7108 11.5624 15.7108 10.8906 15.2629L9.75 14.5025" stroke="#737373" stroke-width="2" stroke-linecap="round" stroke-linejoin="round"/>
</svg>
