<svg width="24" height="24" viewBox="0 0 24 24" fill="none" xmlns="http://www.w3.org/2000/svg">
<path d="M5.63604 18.3646C2.12132 14.8499 2.12132 9.15144 5.63604 5.63672M18.364 5.63672C21.8787 9.15144 21.8787 14.8499 18.364 18.3646M8.46447 15.5362C6.51184 13.5836 6.51184 10.4178 8.46447 8.46515M15.5355 8.46515C17.4882 10.4178 17.4882 13.5836 15.5355 15.5362M13 12.0007C13 12.553 12.5523 13.0007 12 13.0007C11.4477 13.0007 11 12.553 11 12.0007C11 11.4484 11.4477 11.0007 12 11.0007C12.5523 11.0007 13 11.4484 13 12.0007Z" stroke="#262626" stroke-width="2" stroke-linecap="round" stroke-linejoin="round"/>
</svg>
