<svg width="18" height="18" viewBox="0 0 18 18" fill="none" xmlns="http://www.w3.org/2000/svg">
<path d="M15.75 9.94157C13.6655 10.7853 11.387 11.25 9 11.25C6.61298 11.25 4.33447 10.7853 2.25 9.94157M12 4.5V3C12 2.17157 11.3284 1.5 10.5 1.5H7.5C6.67157 1.5 6 2.17157 6 3V4.5M9 9H9.0075M3.75 15H14.25C15.0784 15 15.75 14.3284 15.75 13.5V6C15.75 5.17157 15.0784 4.5 14.25 4.5H3.75C2.92157 4.5 2.25 5.17157 2.25 6V13.5C2.25 14.3284 2.92157 15 3.75 15Z" stroke="#D4D4D4" stroke-width="2" stroke-linecap="round" stroke-linejoin="round"/>
</svg>
