<svg width="24" height="24" viewBox="0 0 24 24" fill="none" xmlns="http://www.w3.org/2000/svg">
<path d="M5.63604 18.3607C2.12132 14.846 2.12132 9.14753 5.63604 5.63281M18.364 5.63281C21.8787 9.14753 21.8787 14.846 18.364 18.3607M8.46447 15.5323C6.51184 13.5797 6.51184 10.4139 8.46447 8.46124M15.5355 8.46124C17.4882 10.4139 17.4882 13.5797 15.5355 15.5323M13 11.9968C13 12.5491 12.5523 12.9968 12 12.9968C11.4477 12.9968 11 12.5491 11 11.9968C11 11.4445 11.4477 10.9968 12 10.9968C12.5523 10.9968 13 11.4445 13 11.9968Z" stroke="#737373" stroke-width="2" stroke-linecap="round" stroke-linejoin="round"/>
</svg>
