<svg width="20" height="20" viewBox="0 0 20 20" fill="none" xmlns="http://www.w3.org/2000/svg">
<path fill-rule="evenodd" clip-rule="evenodd" d="M12.3162 3.05159C12.8402 3.22624 13.1233 3.79256 12.9487 4.3165L8.94868 16.3165C8.77404 16.8404 8.20772 17.1236 7.68377 16.949C7.15983 16.7743 6.87667 16.208 7.05132 15.684L11.0513 3.68404C11.226 3.1601 11.7923 2.87694 12.3162 3.05159ZM5.70711 6.29316C6.09763 6.68369 6.09763 7.31685 5.70711 7.70738L3.41421 10.0003L5.70711 12.2932C6.09763 12.6837 6.09763 13.3169 5.70711 13.7074C5.31658 14.0979 4.68342 14.0979 4.29289 13.7074L1.29289 10.7074C0.902369 10.3169 0.902369 9.68369 1.29289 9.29316L4.29289 6.29316C4.68342 5.90264 5.31658 5.90264 5.70711 6.29316ZM14.2929 6.29316C14.6834 5.90264 15.3166 5.90264 15.7071 6.29316L18.7071 9.29316C19.0976 9.68369 19.0976 10.3169 18.7071 10.7074L15.7071 13.7074C15.3166 14.0979 14.6834 14.0979 14.2929 13.7074C13.9024 13.3169 13.9024 12.6837 14.2929 12.2932L16.5858 10.0003L14.2929 7.70738C13.9024 7.31685 13.9024 6.68369 14.2929 6.29316Z" fill="#737373"/>
</svg>
