<svg width="20" height="20" viewBox="0 0 20 20" fill="none" xmlns="http://www.w3.org/2000/svg">
<path d="M9.04917 3.92536C9.34852 3.00405 10.6519 3.00405 10.9513 3.92536L12.0209 7.21716C12.1547 7.62918 12.5387 7.90814 12.9719 7.90814H16.4331C17.4018 7.90814 17.8046 9.14775 17.0209 9.71715L14.2207 11.7516C13.8702 12.0062 13.7236 12.4576 13.8575 12.8696L14.927 16.1614C15.2264 17.0827 14.1719 17.8489 13.3882 17.2795L10.588 15.245C10.2375 14.9904 9.76293 14.9904 9.41244 15.245L6.61227 17.2795C5.82856 17.8489 4.77408 17.0827 5.07343 16.1614L6.143 12.8696C6.27688 12.4576 6.13022 12.0062 5.77973 11.7516L2.97956 9.71715C2.19585 9.14775 2.59862 7.90814 3.56735 7.90814H7.02855C7.46177 7.90814 7.84573 7.62918 7.9796 7.21716L9.04917 3.92536Z" fill="#262626"/>
</svg>
