<svg width="20" height="20" viewBox="0 0 20 20" fill="none" xmlns="http://www.w3.org/2000/svg">
<path fill-rule="evenodd" clip-rule="evenodd" d="M9.38268 3.07298C9.75636 3.22776 10 3.59239 10 3.99686V15.9969C10 16.4013 9.75636 16.766 9.38268 16.9207C9.00901 17.0755 8.57889 16.99 8.29289 16.704L4.58579 12.9969H2C1.44772 12.9969 1 12.5491 1 11.9969V7.99686C1 7.44457 1.44772 6.99686 2 6.99686H4.58579L8.29289 3.28975C8.57889 3.00375 9.00901 2.91819 9.38268 3.07298Z" fill="#737373"/>
<path fill-rule="evenodd" clip-rule="evenodd" d="M14.6568 2.92571C15.0474 2.53518 15.6805 2.53518 16.0711 2.92571C17.8796 4.73425 19 7.23563 19 9.99677C19 12.7579 17.8796 15.2593 16.0711 17.0678C15.6805 17.4584 15.0474 17.4584 14.6568 17.0678C14.2663 16.6773 14.2663 16.0442 14.6568 15.6536C16.1057 14.2048 17 12.2062 17 9.99677C17 7.78736 16.1057 5.78873 14.6568 4.33992C14.2663 3.9494 14.2663 3.31623 14.6568 2.92571ZM11.8284 5.75413C12.2189 5.36361 12.8521 5.36361 13.2426 5.75413C13.7685 6.28001 14.1976 6.9037 14.5003 7.5964C14.822 8.33275 15 9.14529 15 9.99677C15 11.6534 14.3273 13.1547 13.2426 14.2394C12.8521 14.6299 12.2189 14.6299 11.8284 14.2394C11.4379 13.8489 11.4379 13.2157 11.8284 12.8252C12.5534 12.1002 13 11.1016 13 9.99677C13 9.42605 12.8811 8.88573 12.6676 8.39715C12.4663 7.93641 12.1802 7.5201 11.8284 7.16835C11.4379 6.77782 11.4379 6.14466 11.8284 5.75413Z" fill="#737373"/>
</svg>
