<svg width="20" height="20" viewBox="0 0 20 20" fill="none" xmlns="http://www.w3.org/2000/svg">
<path fill-rule="evenodd" clip-rule="evenodd" d="M17.7791 8.22183C13.4833 3.92606 6.5185 3.92606 2.22273 8.22183C1.83221 8.61235 1.19904 8.61235 0.808518 8.22183C0.417994 7.8313 0.417994 7.19814 0.808518 6.80761C5.88533 1.7308 14.1165 1.7308 19.1933 6.80761C19.5838 7.19814 19.5838 7.8313 19.1933 8.22183C18.8028 8.61235 18.1696 8.61235 17.7791 8.22183ZM14.9507 11.0503C12.217 8.31659 7.78483 8.31659 5.05116 11.0503C4.66063 11.4408 4.02747 11.4408 3.63695 11.0503C3.24642 10.6597 3.24642 10.0266 3.63695 9.63605C7.15166 6.12133 12.8501 6.12133 16.3649 9.63605C16.7554 10.0266 16.7554 10.6597 16.3649 11.0503C15.9743 11.4408 15.3412 11.4408 14.9507 11.0503ZM12.1222 13.8787C10.9507 12.7071 9.05116 12.7071 7.87959 13.8787C7.48906 14.2692 6.8559 14.2692 6.46537 13.8787C6.07485 13.4882 6.07485 12.855 6.46537 12.4645C8.41799 10.5119 11.5838 10.5119 13.5364 12.4645C13.927 12.855 13.927 13.4882 13.5364 13.8787C13.1459 14.2692 12.5128 14.2692 12.1222 13.8787ZM9.00091 16C9.00091 15.4477 9.44862 15 10.0009 15H10.0109C10.5632 15 11.0109 15.4477 11.0109 16C11.0109 16.5523 10.5632 17 10.0109 17H10.0009C9.44862 17 9.00091 16.5523 9.00091 16Z" fill="#262626"/>
</svg>
