<svg width="14" height="14" viewBox="0 0 14 14" fill="none" xmlns="http://www.w3.org/2000/svg">
<path fill-rule="evenodd" clip-rule="evenodd" d="M12.5984 6.99844C12.5984 10.0912 10.0912 12.5984 6.99844 12.5984C3.90564 12.5984 1.39844 10.0912 1.39844 6.99844C1.39844 3.90564 3.90564 1.39844 6.99844 1.39844C10.0912 1.39844 12.5984 3.90564 12.5984 6.99844ZM7.69844 9.79844C7.69844 10.185 7.38504 10.4984 6.99844 10.4984C6.61184 10.4984 6.29844 10.185 6.29844 9.79844C6.29844 9.41184 6.61184 9.09844 6.99844 9.09844C7.38504 9.09844 7.69844 9.41184 7.69844 9.79844ZM6.99844 3.49844C6.61184 3.49844 6.29844 3.81184 6.29844 4.19844V6.99844C6.29844 7.38504 6.61184 7.69844 6.99844 7.69844C7.38504 7.69844 7.69844 7.38504 7.69844 6.99844V4.19844C7.69844 3.81184 7.38504 3.49844 6.99844 3.49844Z" fill="#D4D4D4"/>
</svg>
