<svg width="20" height="20" viewBox="0 0 20 20" fill="none" xmlns="http://www.w3.org/2000/svg">
<path fill-rule="evenodd" clip-rule="evenodd" d="M6.9979 2C6.59344 2 6.2288 2.24364 6.07402 2.61732C5.91924 2.99099 6.00479 3.42111 6.29079 3.70711L6.9979 4.41421V8.17157C6.9979 8.43679 6.89254 8.69114 6.70501 8.87868L2.70501 12.8787C0.815113 14.7686 2.15361 18 4.82633 18H15.1695C17.8422 18 19.1807 14.7686 17.2908 12.8787L13.2908 8.87868C13.1033 8.69114 12.9979 8.43679 12.9979 8.17157V4.41421L13.705 3.70711C13.991 3.42111 14.0766 2.99099 13.9218 2.61732C13.767 2.24364 13.4024 2 12.9979 2H6.9979ZM8.9979 8.17157V4H10.9979V8.17157C10.9979 8.96722 11.314 9.73028 11.8766 10.2929L12.9041 11.3204C12.1873 11.1537 11.4357 11.1874 10.7329 11.4217L10.2628 11.5784C9.44169 11.8521 8.554 11.8521 7.73294 11.5784L7.17048 11.3909C7.1324 11.3782 7.09412 11.3667 7.05567 11.3564L8.11922 10.2929C8.68183 9.73028 8.9979 8.96722 8.9979 8.17157Z" fill="#737373"/>
</svg>
