<svg width="20" height="20" viewBox="0 0 20 20" fill="none" xmlns="http://www.w3.org/2000/svg">
<path d="M17.9986 9.5C17.9986 10.3284 17.327 11 16.4986 11C15.6701 11 14.9986 10.3284 14.9986 9.5V3.5C14.9986 2.67157 15.6701 2 16.4986 2C17.327 2 17.9986 2.67157 17.9986 3.5V9.5Z" fill="#737373"/>
<path d="M13.9986 9.66667V4.23607C13.9986 3.47852 13.5706 2.786 12.893 2.44721L12.8432 2.42229C12.2877 2.14458 11.6753 2 11.0543 2L5.63818 2C4.68482 2 3.86399 2.67292 3.67702 3.60777L2.47702 9.60777C2.2295 10.8453 3.17609 12 4.43818 12H7.99857V16C7.99857 17.1046 8.894 18 9.99857 18C10.5509 18 10.9986 17.5523 10.9986 17V16.3333C10.9986 15.4679 11.2793 14.6257 11.7986 13.9333L13.1986 12.0667C13.7179 11.3743 13.9986 10.5321 13.9986 9.66667Z" fill="#737373"/>
</svg>
