<svg width="20" height="20" viewBox="0 0 20 20" fill="none" xmlns="http://www.w3.org/2000/svg">
<path d="M9.05015 3.92536C9.3495 3.00405 10.6529 3.00405 10.9523 3.92536L12.0218 7.21716C12.1557 7.62918 12.5397 7.90814 12.9729 7.90814H16.4341C17.4028 7.90814 17.8056 9.14775 17.0219 9.71715L14.2217 11.7516C13.8712 12.0062 13.7246 12.4576 13.8584 12.8696L14.928 16.1614C15.2274 17.0827 14.1729 17.8489 13.3892 17.2795L10.589 15.245C10.2385 14.9904 9.76391 14.9904 9.41342 15.245L6.61325 17.2795C5.82954 17.8489 4.77506 17.0827 5.07441 16.1614L6.14398 12.8696C6.27785 12.4576 6.13119 12.0062 5.78071 11.7516L2.98054 9.71715C2.19682 9.14775 2.5996 7.90814 3.56832 7.90814H7.02952C7.46275 7.90814 7.8467 7.62918 7.98058 7.21716L9.05015 3.92536Z" fill="#737373"/>
</svg>
