<svg width="20" height="20" viewBox="0 0 20 20" fill="none" xmlns="http://www.w3.org/2000/svg">
<path d="M9.99928 12C11.1038 12 11.9993 11.1046 11.9993 10C11.9993 8.89543 11.1038 8 9.99928 8C8.89471 8 7.99928 8.89543 7.99928 10C7.99928 11.1046 8.89471 12 9.99928 12Z" fill="#262626"/>
<path fill-rule="evenodd" clip-rule="evenodd" d="M0.457031 10C1.73128 5.94291 5.52158 3 9.99924 3C14.4769 3 18.2671 5.94288 19.5414 9.99996C18.2672 14.0571 14.4769 17 9.99922 17C5.52159 17 1.73131 14.0571 0.457031 10ZM13.9993 10C13.9993 12.2091 12.2084 14 9.99928 14C7.79014 14 5.99928 12.2091 5.99928 10C5.99928 7.79086 7.79014 6 9.99928 6C12.2084 6 13.9993 7.79086 13.9993 10Z" fill="#262626"/>
</svg>
