<svg width="18" height="18" viewBox="0 0 18 18" fill="none" xmlns="http://www.w3.org/2000/svg">
<path d="M1.80078 2.70078C1.80078 2.20372 2.20372 1.80078 2.70078 1.80078H4.63837C5.07832 1.80078 5.45379 2.11885 5.52612 2.55282L6.1915 6.54511C6.25646 6.93484 6.05963 7.32136 5.70624 7.49805L4.31291 8.19471C5.31758 10.6913 7.31029 12.684 9.80685 13.6886L10.5035 12.2953C10.6802 11.9419 11.0667 11.7451 11.4565 11.8101L15.4487 12.4754C15.8827 12.5478 16.2008 12.9232 16.2008 13.3632V15.3008C16.2008 15.7978 15.7978 16.2008 15.3008 16.2008H13.5008C7.03905 16.2008 1.80078 10.9625 1.80078 4.50078V2.70078Z" fill="#D4D4D4" stroke="#D4D4D4" stroke-width="2"/>
</svg>
