<svg width="72" height="72" viewBox="0 0 72 72" fill="none" xmlns="http://www.w3.org/2000/svg">
<path fill-rule="evenodd" clip-rule="evenodd" d="M12 12C12 7.58172 15.5817 4 20 4H52C56.4183 4 60 7.58172 60 12V60C62.2091 60 64 61.7909 64 64C64 66.2091 62.2091 68 60 68H45C44.4477 68 44 67.5523 44 67V56C44 53.7909 42.2091 52 40 52H32C29.7909 52 28 53.7909 28 56V67C28 67.5523 27.5523 68 27 68H12C9.79086 68 8 66.2091 8 64C8 61.7909 9.79086 60 12 60V12ZM24 16H32V24H24V16ZM32 32H24V40H32V32ZM40 16H48V24H40V16ZM48 32H40V40H48V32Z" fill="#737373"/>
</svg>
